<?xml version="1.0" encoding="UTF-8"?>
<!DOCTYPE xmeml>
<xmeml version="4">
  <sequence id="sequence-1">
    <uuid>00000000-0000-0000-0000-000000000000</uuid>
    <name>doc_2026-02-17T17-43-21-570Z_e_CTwR</name>
    <duration>98550</duration>
    <rate>
      <timebase>50</timebase>
      <ntsc>FALSE</ntsc>
    </rate>
    <media>
      <video>
        <format>
          <samplecharacteristics>
            <rate>
              <timebase>50</timebase>
              <ntsc>FALSE</ntsc>
            </rate>
            <width>1920</width>
            <height>960</height>
            <anamorphic>FALSE</anamorphic>
            <pixelaspectratio>square</pixelaspectratio>
            <fielddominance>none</fielddominance>
            <colordepth>24</colordepth>
          </samplecharacteristics>
        </format>
        <track>
          <enabled>TRUE</enabled>
          <locked>FALSE</locked>
          <clipitem id="vclipitem-1">
            <masterclipid>masterclip-1</masterclipid>
            <name>arrow_171429_180226.png</name>
            <enabled>TRUE</enabled>
            <duration>300</duration>
            <rate>
              <timebase>50</timebase>
              <ntsc>FALSE</ntsc>
            </rate>
            <start>250</start>
            <end>550</end>
            <in>0</in>
            <out>300</out>
            <alphatype>straight</alphatype>
            <pixelaspectratio>square</pixelaspectratio>
            <anamorphic>FALSE</anamorphic>
            <file id="file-1">
              <name>arrow_171429_180226.png</name>
              <pathurl>file:///C:/Users/Nemifist/YandexDisk/PAMPAM/%D0%91%D0%BB%D0%B8%D1%86/arrow_171429_180226.png</pathurl>
              <rate>
                <timebase>50</timebase>
                <ntsc>FALSE</ntsc>
              </rate>
              <duration>300</duration>
              <timecode>
                <rate>
                  <timebase>50</timebase>
                  <ntsc>FALSE</ntsc>
                </rate>
                <string>00:00:00:00</string>
                <frame>0</frame>
                <displayformat>NDF</displayformat>
              </timecode>
              <media>
                <video>
                  <samplecharacteristics>
                    <rate>
                      <timebase>50</timebase>
                      <ntsc>FALSE</ntsc>
                    </rate>
                    <width>3840</width>
                    <height>1920</height>
                    <anamorphic>FALSE</anamorphic>
                    <pixelaspectratio>square</pixelaspectratio>
                    <fielddominance>none</fielddominance>
                  </samplecharacteristics>
                </video>
              </media>
            </file>
            <filter>
              <effect>
                <name>Basic Motion</name>
                <effectid>basic</effectid>
                <effectcategory>motion</effectcategory>
                <effecttype>motion</effecttype>
                <mediatype>video</mediatype>
                <pproBypass>false</pproBypass>
                <parameter authoringApp="PremierePro">
                  <parameterid>scale</parameterid>
                  <name>Scale</name>
                  <valuemin>0</valuemin>
                  <valuemax>1000</valuemax>
                  <value>45</value>
                </parameter>
                <parameter authoringApp="PremierePro">
                  <parameterid>rotation</parameterid>
                  <name>Rotation</name>
                  <valuemin>-8640</valuemin>
                  <valuemax>8640</valuemax>
                  <value>0</value>
                </parameter>
                <parameter authoringApp="PremierePro">
                  <parameterid>center</parameterid>
                  <name>Center</name>
                  <value>
                    <horiz>0</horiz>
                    <vert>0</vert>
                  </value>
                </parameter>
                <parameter authoringApp="PremierePro">
                  <parameterid>centerOffset</parameterid>
                  <name>Anchor Point</name>
                  <value>
                    <horiz>0</horiz>
                    <vert>0</vert>
                  </value>
                </parameter>
                <parameter authoringApp="PremierePro">
                  <parameterid>antiflicker</parameterid>
                  <name>Anti-flicker Filter</name>
                  <valuemin>0.0</valuemin>
                  <valuemax>1.0</valuemax>
                  <value>0</value>
                </parameter>
              </effect>
            </filter>
            <link>
              <linkclipref>vclipitem-1</linkclipref>
              <mediatype>video</mediatype>
              <trackindex>1</trackindex>
              <clipindex>1</clipindex>
            </link>
          </clipitem>
          <clipitem id="vclipitem-2">
            <masterclipid>masterclip-2</masterclipid>
            <name>arrow_132303_190226.png</name>
            <enabled>TRUE</enabled>
            <duration>250</duration>
            <rate>
              <timebase>50</timebase>
              <ntsc>FALSE</ntsc>
            </rate>
            <start>800</start>
            <end>1050</end>
            <in>0</in>
            <out>250</out>
            <alphatype>straight</alphatype>
            <pixelaspectratio>square</pixelaspectratio>
            <anamorphic>FALSE</anamorphic>
            <file id="file-2">
              <name>arrow_132303_190226.png</name>
              <pathurl>file:///C:/Users/Nemifist/YandexDisk/PAMPAM/%D0%91%D0%BB%D0%B8%D1%86/arrow_132303_190226.png</pathurl>
              <rate>
                <timebase>50</timebase>
                <ntsc>FALSE</ntsc>
              </rate>
              <duration>250</duration>
              <timecode>
                <rate>
                  <timebase>50</timebase>
                  <ntsc>FALSE</ntsc>
                </rate>
                <string>00:00:00:00</string>
                <frame>0</frame>
                <displayformat>NDF</displayformat>
              </timecode>
              <media>
                <video>
                  <samplecharacteristics>
                    <rate>
                      <timebase>50</timebase>
                      <ntsc>FALSE</ntsc>
                    </rate>
                    <width>3840</width>
                    <height>1499</height>
                    <anamorphic>FALSE</anamorphic>
                    <pixelaspectratio>square</pixelaspectratio>
                    <fielddominance>none</fielddominance>
                  </samplecharacteristics>
                </video>
              </media>
            </file>
            <filter>
              <effect>
                <name>Basic Motion</name>
                <effectid>basic</effectid>
                <effectcategory>motion</effectcategory>
                <effecttype>motion</effecttype>
                <mediatype>video</mediatype>
                <pproBypass>false</pproBypass>
                <parameter authoringApp="PremierePro">
                  <parameterid>scale</parameterid>
                  <name>Scale</name>
                  <valuemin>0</valuemin>
                  <valuemax>1000</valuemax>
                  <value>45</value>
                </parameter>
                <parameter authoringApp="PremierePro">
                  <parameterid>rotation</parameterid>
                  <name>Rotation</name>
                  <valuemin>-8640</valuemin>
                  <valuemax>8640</valuemax>
                  <value>0</value>
                </parameter>
                <parameter authoringApp="PremierePro">
                  <parameterid>center</parameterid>
                  <name>Center</name>
                  <value>
                    <horiz>0</horiz>
                    <vert>0</vert>
                  </value>
                </parameter>
                <parameter authoringApp="PremierePro">
                  <parameterid>centerOffset</parameterid>
                  <name>Anchor Point</name>
                  <value>
                    <horiz>0</horiz>
                    <vert>0</vert>
                  </value>
                </parameter>
                <parameter authoringApp="PremierePro">
                  <parameterid>antiflicker</parameterid>
                  <name>Anti-flicker Filter</name>
                  <valuemin>0.0</valuemin>
                  <valuemax>1.0</valuemax>
                  <value>0</value>
                </parameter>
              </effect>
            </filter>
            <link>
              <linkclipref>vclipitem-2</linkclipref>
              <mediatype>video</mediatype>
              <trackindex>1</trackindex>
              <clipindex>2</clipindex>
            </link>
          </clipitem>
          <clipitem id="vclipitem-3">
            <masterclipid>masterclip-3</masterclipid>
            <name>arrow_171753_180226.png</name>
            <enabled>TRUE</enabled>
            <duration>250</duration>
            <rate>
              <timebase>50</timebase>
              <ntsc>FALSE</ntsc>
            </rate>
            <start>1250</start>
            <end>1500</end>
            <in>0</in>
            <out>250</out>
            <alphatype>straight</alphatype>
            <pixelaspectratio>square</pixelaspectratio>
            <anamorphic>FALSE</anamorphic>
            <file id="file-3">
              <name>arrow_171753_180226.png</name>
              <pathurl>file:///C:/Users/Nemifist/YandexDisk/PAMPAM/%D0%91%D0%BB%D0%B8%D1%86/arrow_171753_180226.png</pathurl>
              <rate>
                <timebase>50</timebase>
                <ntsc>FALSE</ntsc>
              </rate>
              <duration>250</duration>
              <timecode>
                <rate>
                  <timebase>50</timebase>
                  <ntsc>FALSE</ntsc>
                </rate>
                <string>00:00:00:00</string>
                <frame>0</frame>
                <displayformat>NDF</displayformat>
              </timecode>
              <media>
                <video>
                  <samplecharacteristics>
                    <rate>
                      <timebase>50</timebase>
                      <ntsc>FALSE</ntsc>
                    </rate>
                    <width>1920</width>
                    <height>1920</height>
                    <anamorphic>FALSE</anamorphic>
                    <pixelaspectratio>square</pixelaspectratio>
                    <fielddominance>none</fielddominance>
                  </samplecharacteristics>
                </video>
              </media>
            </file>
            <filter>
              <effect>
                <name>Basic Motion</name>
                <effectid>basic</effectid>
                <effectcategory>motion</effectcategory>
                <effecttype>motion</effecttype>
                <mediatype>video</mediatype>
                <pproBypass>false</pproBypass>
                <parameter authoringApp="PremierePro">
                  <parameterid>scale</parameterid>
                  <name>Scale</name>
                  <valuemin>0</valuemin>
                  <valuemax>1000</valuemax>
                  <value>50</value>
                </parameter>
                <parameter authoringApp="PremierePro">
                  <parameterid>rotation</parameterid>
                  <name>Rotation</name>
                  <valuemin>-8640</valuemin>
                  <valuemax>8640</valuemax>
                  <value>0</value>
                </parameter>
                <parameter authoringApp="PremierePro">
                  <parameterid>center</parameterid>
                  <name>Center</name>
                  <value>
                    <horiz>-0.25</horiz>
                    <vert>0</vert>
                  </value>
                </parameter>
                <parameter authoringApp="PremierePro">
                  <parameterid>centerOffset</parameterid>
                  <name>Anchor Point</name>
                  <value>
                    <horiz>0</horiz>
                    <vert>0</vert>
                  </value>
                </parameter>
                <parameter authoringApp="PremierePro">
                  <parameterid>antiflicker</parameterid>
                  <name>Anti-flicker Filter</name>
                  <valuemin>0.0</valuemin>
                  <valuemax>1.0</valuemax>
                  <value>0</value>
                </parameter>
              </effect>
            </filter>
            <link>
              <linkclipref>vclipitem-3</linkclipref>
              <mediatype>video</mediatype>
              <trackindex>1</trackindex>
              <clipindex>3</clipindex>
            </link>
          </clipitem>
          <clipitem id="vclipitem-4">
            <masterclipid>masterclip-4</masterclipid>
            <name>arrow_173240_180226.png</name>
            <enabled>TRUE</enabled>
            <duration>250</duration>
            <rate>
              <timebase>50</timebase>
              <ntsc>FALSE</ntsc>
            </rate>
            <start>1850</start>
            <end>2100</end>
            <in>0</in>
            <out>250</out>
            <alphatype>straight</alphatype>
            <pixelaspectratio>square</pixelaspectratio>
            <anamorphic>FALSE</anamorphic>
            <file id="file-4">
              <name>arrow_173240_180226.png</name>
              <pathurl>file:///C:/Users/Nemifist/YandexDisk/PAMPAM/%D0%91%D0%BB%D0%B8%D1%86/arrow_173240_180226.png</pathurl>
              <rate>
                <timebase>50</timebase>
                <ntsc>FALSE</ntsc>
              </rate>
              <duration>250</duration>
              <timecode>
                <rate>
                  <timebase>50</timebase>
                  <ntsc>FALSE</ntsc>
                </rate>
                <string>00:00:00:00</string>
                <frame>0</frame>
                <displayformat>NDF</displayformat>
              </timecode>
              <media>
                <video>
                  <samplecharacteristics>
                    <rate>
                      <timebase>50</timebase>
                      <ntsc>FALSE</ntsc>
                    </rate>
                    <width>1920</width>
                    <height>960</height>
                    <anamorphic>FALSE</anamorphic>
                    <pixelaspectratio>square</pixelaspectratio>
                    <fielddominance>none</fielddominance>
                  </samplecharacteristics>
                </video>
              </media>
            </file>
            <filter>
              <effect>
                <name>Basic Motion</name>
                <effectid>basic</effectid>
                <effectcategory>motion</effectcategory>
                <effecttype>motion</effecttype>
                <mediatype>video</mediatype>
                <pproBypass>false</pproBypass>
                <parameter authoringApp="PremierePro">
                  <parameterid>scale</parameterid>
                  <name>Scale</name>
                  <valuemin>0</valuemin>
                  <valuemax>1000</valuemax>
                  <value>90</value>
                </parameter>
                <parameter authoringApp="PremierePro">
                  <parameterid>rotation</parameterid>
                  <name>Rotation</name>
                  <valuemin>-8640</valuemin>
                  <valuemax>8640</valuemax>
                  <value>0</value>
                </parameter>
                <parameter authoringApp="PremierePro">
                  <parameterid>center</parameterid>
                  <name>Center</name>
                  <value>
                    <horiz>0</horiz>
                    <vert>0</vert>
                  </value>
                </parameter>
                <parameter authoringApp="PremierePro">
                  <parameterid>centerOffset</parameterid>
                  <name>Anchor Point</name>
                  <value>
                    <horiz>0</horiz>
                    <vert>0</vert>
                  </value>
                </parameter>
                <parameter authoringApp="PremierePro">
                  <parameterid>antiflicker</parameterid>
                  <name>Anti-flicker Filter</name>
                  <valuemin>0.0</valuemin>
                  <valuemax>1.0</valuemax>
                  <value>0</value>
                </parameter>
              </effect>
            </filter>
            <link>
              <linkclipref>vclipitem-4</linkclipref>
              <mediatype>video</mediatype>
              <trackindex>1</trackindex>
              <clipindex>4</clipindex>
            </link>
          </clipitem>
          <clipitem id="vclipitem-5">
            <masterclipid>masterclip-5</masterclipid>
            <name>arrow_172822_180226.png</name>
            <enabled>TRUE</enabled>
            <duration>300</duration>
            <rate>
              <timebase>50</timebase>
              <ntsc>FALSE</ntsc>
            </rate>
            <start>2100</start>
            <end>2400</end>
            <in>0</in>
            <out>300</out>
            <alphatype>straight</alphatype>
            <pixelaspectratio>square</pixelaspectratio>
            <anamorphic>FALSE</anamorphic>
            <file id="file-5">
              <name>arrow_172822_180226.png</name>
              <pathurl>file:///C:/Users/Nemifist/YandexDisk/PAMPAM/%D0%91%D0%BB%D0%B8%D1%86/arrow_172822_180226.png</pathurl>
              <rate>
                <timebase>50</timebase>
                <ntsc>FALSE</ntsc>
              </rate>
              <duration>300</duration>
              <timecode>
                <rate>
                  <timebase>50</timebase>
                  <ntsc>FALSE</ntsc>
                </rate>
                <string>00:00:00:00</string>
                <frame>0</frame>
                <displayformat>NDF</displayformat>
              </timecode>
              <media>
                <video>
                  <samplecharacteristics>
                    <rate>
                      <timebase>50</timebase>
                      <ntsc>FALSE</ntsc>
                    </rate>
                    <width>1920</width>
                    <height>1920</height>
                    <anamorphic>FALSE</anamorphic>
                    <pixelaspectratio>square</pixelaspectratio>
                    <fielddominance>none</fielddominance>
                  </samplecharacteristics>
                </video>
              </media>
            </file>
            <filter>
              <effect>
                <name>Basic Motion</name>
                <effectid>basic</effectid>
                <effectcategory>motion</effectcategory>
                <effecttype>motion</effecttype>
                <mediatype>video</mediatype>
                <pproBypass>false</pproBypass>
                <parameter authoringApp="PremierePro">
                  <parameterid>scale</parameterid>
                  <name>Scale</name>
                  <valuemin>0</valuemin>
                  <valuemax>1000</valuemax>
                  <value>50</value>
                </parameter>
                <parameter authoringApp="PremierePro">
                  <parameterid>rotation</parameterid>
                  <name>Rotation</name>
                  <valuemin>-8640</valuemin>
                  <valuemax>8640</valuemax>
                  <value>0</value>
                </parameter>
                <parameter authoringApp="PremierePro">
                  <parameterid>center</parameterid>
                  <name>Center</name>
                  <value>
                    <horiz>-0.25</horiz>
                    <vert>0</vert>
                  </value>
                </parameter>
                <parameter authoringApp="PremierePro">
                  <parameterid>centerOffset</parameterid>
                  <name>Anchor Point</name>
                  <value>
                    <horiz>0</horiz>
                    <vert>0</vert>
                  </value>
                </parameter>
                <parameter authoringApp="PremierePro">
                  <parameterid>antiflicker</parameterid>
                  <name>Anti-flicker Filter</name>
                  <valuemin>0.0</valuemin>
                  <valuemax>1.0</valuemax>
                  <value>0</value>
                </parameter>
              </effect>
            </filter>
            <link>
              <linkclipref>vclipitem-5</linkclipref>
              <mediatype>video</mediatype>
              <trackindex>1</trackindex>
              <clipindex>5</clipindex>
            </link>
          </clipitem>
          <clipitem id="vclipitem-6">
            <masterclipid>masterclip-6</masterclipid>
            <name>arrow_173136_180226.png</name>
            <enabled>TRUE</enabled>
            <duration>250</duration>
            <rate>
              <timebase>50</timebase>
              <ntsc>FALSE</ntsc>
            </rate>
            <start>2400</start>
            <end>2650</end>
            <in>0</in>
            <out>250</out>
            <alphatype>straight</alphatype>
            <pixelaspectratio>square</pixelaspectratio>
            <anamorphic>FALSE</anamorphic>
            <file id="file-6">
              <name>arrow_173136_180226.png</name>
              <pathurl>file:///C:/Users/Nemifist/YandexDisk/PAMPAM/%D0%91%D0%BB%D0%B8%D1%86/arrow_173136_180226.png</pathurl>
              <rate>
                <timebase>50</timebase>
                <ntsc>FALSE</ntsc>
              </rate>
              <duration>250</duration>
              <timecode>
                <rate>
                  <timebase>50</timebase>
                  <ntsc>FALSE</ntsc>
                </rate>
                <string>00:00:00:00</string>
                <frame>0</frame>
                <displayformat>NDF</displayformat>
              </timecode>
              <media>
                <video>
                  <samplecharacteristics>
                    <rate>
                      <timebase>50</timebase>
                      <ntsc>FALSE</ntsc>
                    </rate>
                    <width>1920</width>
                    <height>960</height>
                    <anamorphic>FALSE</anamorphic>
                    <pixelaspectratio>square</pixelaspectratio>
                    <fielddominance>none</fielddominance>
                  </samplecharacteristics>
                </video>
              </media>
            </file>
            <filter>
              <effect>
                <name>Basic Motion</name>
                <effectid>basic</effectid>
                <effectcategory>motion</effectcategory>
                <effecttype>motion</effecttype>
                <mediatype>video</mediatype>
                <pproBypass>false</pproBypass>
                <parameter authoringApp="PremierePro">
                  <parameterid>scale</parameterid>
                  <name>Scale</name>
                  <valuemin>0</valuemin>
                  <valuemax>1000</valuemax>
                  <value>90</value>
                </parameter>
                <parameter authoringApp="PremierePro">
                  <parameterid>rotation</parameterid>
                  <name>Rotation</name>
                  <valuemin>-8640</valuemin>
                  <valuemax>8640</valuemax>
                  <value>0</value>
                </parameter>
                <parameter authoringApp="PremierePro">
                  <parameterid>center</parameterid>
                  <name>Center</name>
                  <value>
                    <horiz>0</horiz>
                    <vert>0</vert>
                  </value>
                </parameter>
                <parameter authoringApp="PremierePro">
                  <parameterid>centerOffset</parameterid>
                  <name>Anchor Point</name>
                  <value>
                    <horiz>0</horiz>
                    <vert>0</vert>
                  </value>
                </parameter>
                <parameter authoringApp="PremierePro">
                  <parameterid>antiflicker</parameterid>
                  <name>Anti-flicker Filter</name>
                  <valuemin>0.0</valuemin>
                  <valuemax>1.0</valuemax>
                  <value>0</value>
                </parameter>
              </effect>
            </filter>
            <link>
              <linkclipref>vclipitem-6</linkclipref>
              <mediatype>video</mediatype>
              <trackindex>1</trackindex>
              <clipindex>6</clipindex>
            </link>
          </clipitem>
          <clipitem id="vclipitem-7">
            <masterclipid>masterclip-7</masterclipid>
            <name>Russian Delegation Led by Vladimir Medinsky Leaves Geneva Hotel for Day 2 of Trilateral Talks ｜ APT-w2oFp4yAtTI.f136.mp4</name>
            <enabled>TRUE</enabled>
            <duration>150</duration>
            <rate>
              <timebase>50</timebase>
              <ntsc>FALSE</ntsc>
            </rate>
            <start>2650</start>
            <end>2800</end>
            <in>0</in>
            <out>150</out>
            <alphatype>none</alphatype>
            <pixelaspectratio>square</pixelaspectratio>
            <anamorphic>FALSE</anamorphic>
            <file id="file-7">
              <name>Russian Delegation Led by Vladimir Medinsky Leaves Geneva Hotel for Day 2 of Trilateral Talks ｜ APT-w2oFp4yAtTI.f136.mp4</name>
              <pathurl>file:///C:/Users/Nemifist/YandexDisk/PAMPAM/%D0%9F%D0%B5%D1%80%D0%B5%D0%B3%D0%BE%D0%B2%D0%BE%D1%80%D1%8B/Russian%20Delegation%20Led%20by%20Vladimir%20Medinsky%20Leaves%20Geneva%20Hotel%20for%20Day%202%20of%20Trilateral%20Talks%20%EF%BD%9C%20APT-w2oFp4yAtTI.f136.mp4</pathurl>
              <rate>
                <timebase>50</timebase>
                <ntsc>FALSE</ntsc>
              </rate>
              <duration>150</duration>
              <timecode>
                <rate>
                  <timebase>50</timebase>
                  <ntsc>FALSE</ntsc>
                </rate>
                <string>00:00:00:00</string>
                <frame>0</frame>
                <displayformat>NDF</displayformat>
              </timecode>
              <media>
                <video>
                  <samplecharacteristics>
                    <rate>
                      <timebase>50</timebase>
                      <ntsc>FALSE</ntsc>
                    </rate>
                    <width>1280</width>
                    <height>720</height>
                    <anamorphic>FALSE</anamorphic>
                    <pixelaspectratio>square</pixelaspectratio>
                    <fielddominance>none</fielddominance>
                  </samplecharacteristics>
                </video>
              </media>
            </file>
            <filter>
              <effect>
                <name>Basic Motion</name>
                <effectid>basic</effectid>
                <effectcategory>motion</effectcategory>
                <effecttype>motion</effecttype>
                <mediatype>video</mediatype>
                <pproBypass>false</pproBypass>
                <parameter authoringApp="PremierePro">
                  <parameterid>scale</parameterid>
                  <name>Scale</name>
                  <valuemin>0</valuemin>
                  <valuemax>1000</valuemax>
                  <value>150</value>
                </parameter>
                <parameter authoringApp="PremierePro">
                  <parameterid>rotation</parameterid>
                  <name>Rotation</name>
                  <valuemin>-8640</valuemin>
                  <valuemax>8640</valuemax>
                  <value>0</value>
                </parameter>
                <parameter authoringApp="PremierePro">
                  <parameterid>center</parameterid>
                  <name>Center</name>
                  <value>
                    <horiz>0</horiz>
                    <vert>0</vert>
                  </value>
                </parameter>
                <parameter authoringApp="PremierePro">
                  <parameterid>centerOffset</parameterid>
                  <name>Anchor Point</name>
                  <value>
                    <horiz>0</horiz>
                    <vert>0</vert>
                  </value>
                </parameter>
                <parameter authoringApp="PremierePro">
                  <parameterid>antiflicker</parameterid>
                  <name>Anti-flicker Filter</name>
                  <valuemin>0.0</valuemin>
                  <valuemax>1.0</valuemax>
                  <value>0</value>
                </parameter>
              </effect>
            </filter>
            <link>
              <linkclipref>vclipitem-7</linkclipref>
              <mediatype>video</mediatype>
              <trackindex>1</trackindex>
              <clipindex>7</clipindex>
            </link>
          </clipitem>
          <clipitem id="vclipitem-8">
            <masterclipid>masterclip-8</masterclipid>
            <name>Delegates_Leave_After_US__Russia_and_Ukraine_Meet_for_Third_Round.mp4</name>
            <enabled>TRUE</enabled>
            <duration>250</duration>
            <rate>
              <timebase>50</timebase>
              <ntsc>FALSE</ntsc>
            </rate>
            <start>2800</start>
            <end>3050</end>
            <in>0</in>
            <out>250</out>
            <alphatype>none</alphatype>
            <pixelaspectratio>square</pixelaspectratio>
            <anamorphic>FALSE</anamorphic>
            <file id="file-8">
              <name>Delegates_Leave_After_US__Russia_and_Ukraine_Meet_for_Third_Round.mp4</name>
              <pathurl>file:///C:/Users/Nemifist/YandexDisk/PAMPAM/%D0%9F%D0%B5%D1%80%D0%B5%D0%B3%D0%BE%D0%B2%D0%BE%D1%80%D1%8B/Delegates_Leave_After_US__Russia_and_Ukraine_Meet_for_Third_Round.mp4</pathurl>
              <rate>
                <timebase>50</timebase>
                <ntsc>FALSE</ntsc>
              </rate>
              <duration>250</duration>
              <timecode>
                <rate>
                  <timebase>50</timebase>
                  <ntsc>FALSE</ntsc>
                </rate>
                <string>00:00:00:00</string>
                <frame>0</frame>
                <displayformat>NDF</displayformat>
              </timecode>
              <media>
                <video>
                  <samplecharacteristics>
                    <rate>
                      <timebase>50</timebase>
                      <ntsc>FALSE</ntsc>
                    </rate>
                    <width>1920</width>
                    <height>1080</height>
                    <anamorphic>FALSE</anamorphic>
                    <pixelaspectratio>square</pixelaspectratio>
                    <fielddominance>none</fielddominance>
                  </samplecharacteristics>
                </video>
                <audio>
                  <samplecharacteristics>
                    <depth>16</depth>
                    <samplerate>48000</samplerate>
                  </samplecharacteristics>
                  <channelcount>2</channelcount>
                </audio>
              </media>
            </file>
            <filter>
              <effect>
                <name>Basic Motion</name>
                <effectid>basic</effectid>
                <effectcategory>motion</effectcategory>
                <effecttype>motion</effecttype>
                <mediatype>video</mediatype>
                <pproBypass>false</pproBypass>
                <parameter authoringApp="PremierePro">
                  <parameterid>scale</parameterid>
                  <name>Scale</name>
                  <valuemin>0</valuemin>
                  <valuemax>1000</valuemax>
                  <value>100</value>
                </parameter>
                <parameter authoringApp="PremierePro">
                  <parameterid>rotation</parameterid>
                  <name>Rotation</name>
                  <valuemin>-8640</valuemin>
                  <valuemax>8640</valuemax>
                  <value>0</value>
                </parameter>
                <parameter authoringApp="PremierePro">
                  <parameterid>center</parameterid>
                  <name>Center</name>
                  <value>
                    <horiz>0</horiz>
                    <vert>0</vert>
                  </value>
                </parameter>
                <parameter authoringApp="PremierePro">
                  <parameterid>centerOffset</parameterid>
                  <name>Anchor Point</name>
                  <value>
                    <horiz>0</horiz>
                    <vert>0</vert>
                  </value>
                </parameter>
                <parameter authoringApp="PremierePro">
                  <parameterid>antiflicker</parameterid>
                  <name>Anti-flicker Filter</name>
                  <valuemin>0.0</valuemin>
                  <valuemax>1.0</valuemax>
                  <value>0</value>
                </parameter>
              </effect>
            </filter>
            <link>
              <linkclipref>vclipitem-8</linkclipref>
              <mediatype>video</mediatype>
              <trackindex>1</trackindex>
              <clipindex>8</clipindex>
            </link>
            <link>
              <linkclipref>aclipitem-1</linkclipref>
              <mediatype>audio</mediatype>
              <trackindex>1</trackindex>
              <clipindex>1</clipindex>
              <groupindex>1</groupindex>
            </link>
          </clipitem>
          <clipitem id="vclipitem-9">
            <masterclipid>masterclip-9</masterclipid>
            <name>arrow_023521_190226.png</name>
            <enabled>TRUE</enabled>
            <duration>250</duration>
            <rate>
              <timebase>50</timebase>
              <ntsc>FALSE</ntsc>
            </rate>
            <start>3050</start>
            <end>3300</end>
            <in>0</in>
            <out>250</out>
            <alphatype>straight</alphatype>
            <pixelaspectratio>square</pixelaspectratio>
            <anamorphic>FALSE</anamorphic>
            <file id="file-9">
              <name>arrow_023521_190226.png</name>
              <pathurl>file:///C:/Users/Nemifist/YandexDisk/PAMPAM/%D0%9F%D0%B5%D1%80%D0%B5%D0%B3%D0%BE%D0%B2%D0%BE%D1%80%D1%8B/arrow_023521_190226.png</pathurl>
              <rate>
                <timebase>50</timebase>
                <ntsc>FALSE</ntsc>
              </rate>
              <duration>250</duration>
              <timecode>
                <rate>
                  <timebase>50</timebase>
                  <ntsc>FALSE</ntsc>
                </rate>
                <string>00:00:00:00</string>
                <frame>0</frame>
                <displayformat>NDF</displayformat>
              </timecode>
              <media>
                <video>
                  <samplecharacteristics>
                    <rate>
                      <timebase>50</timebase>
                      <ntsc>FALSE</ntsc>
                    </rate>
                    <width>1920</width>
                    <height>1920</height>
                    <anamorphic>FALSE</anamorphic>
                    <pixelaspectratio>square</pixelaspectratio>
                    <fielddominance>none</fielddominance>
                  </samplecharacteristics>
                </video>
              </media>
            </file>
            <filter>
              <effect>
                <name>Basic Motion</name>
                <effectid>basic</effectid>
                <effectcategory>motion</effectcategory>
                <effecttype>motion</effecttype>
                <mediatype>video</mediatype>
                <pproBypass>false</pproBypass>
                <parameter authoringApp="PremierePro">
                  <parameterid>scale</parameterid>
                  <name>Scale</name>
                  <valuemin>0</valuemin>
                  <valuemax>1000</valuemax>
                  <value>50</value>
                </parameter>
                <parameter authoringApp="PremierePro">
                  <parameterid>rotation</parameterid>
                  <name>Rotation</name>
                  <valuemin>-8640</valuemin>
                  <valuemax>8640</valuemax>
                  <value>0</value>
                </parameter>
                <parameter authoringApp="PremierePro">
                  <parameterid>center</parameterid>
                  <name>Center</name>
                  <value>
                    <horiz>-0.25</horiz>
                    <vert>0</vert>
                  </value>
                </parameter>
                <parameter authoringApp="PremierePro">
                  <parameterid>centerOffset</parameterid>
                  <name>Anchor Point</name>
                  <value>
                    <horiz>0</horiz>
                    <vert>0</vert>
                  </value>
                </parameter>
                <parameter authoringApp="PremierePro">
                  <parameterid>antiflicker</parameterid>
                  <name>Anti-flicker Filter</name>
                  <valuemin>0.0</valuemin>
                  <valuemax>1.0</valuemax>
                  <value>0</value>
                </parameter>
              </effect>
            </filter>
            <link>
              <linkclipref>vclipitem-9</linkclipref>
              <mediatype>video</mediatype>
              <trackindex>1</trackindex>
              <clipindex>9</clipindex>
            </link>
          </clipitem>
          <clipitem id="vclipitem-10">
            <masterclipid>masterclip-10</masterclipid>
            <name>11337708866155.mp4</name>
            <enabled>TRUE</enabled>
            <duration>250</duration>
            <rate>
              <timebase>50</timebase>
              <ntsc>FALSE</ntsc>
            </rate>
            <start>5000</start>
            <end>5250</end>
            <in>0</in>
            <out>250</out>
            <alphatype>none</alphatype>
            <pixelaspectratio>square</pixelaspectratio>
            <anamorphic>FALSE</anamorphic>
            <file id="file-10">
              <name>11337708866155.mp4</name>
              <pathurl>file:///C:/Users/Nemifist/YandexDisk/PAMPAM/%D0%9F%D0%B5%D1%80%D0%B5%D0%B3%D0%BE%D0%B2%D0%BE%D1%80%D1%8B/11337708866155.mp4</pathurl>
              <rate>
                <timebase>50</timebase>
                <ntsc>FALSE</ntsc>
              </rate>
              <duration>250</duration>
              <timecode>
                <rate>
                  <timebase>50</timebase>
                  <ntsc>FALSE</ntsc>
                </rate>
                <string>00:00:00:00</string>
                <frame>0</frame>
                <displayformat>NDF</displayformat>
              </timecode>
              <media>
                <video>
                  <samplecharacteristics>
                    <rate>
                      <timebase>50</timebase>
                      <ntsc>FALSE</ntsc>
                    </rate>
                    <width>1280</width>
                    <height>720</height>
                    <anamorphic>FALSE</anamorphic>
                    <pixelaspectratio>square</pixelaspectratio>
                    <fielddominance>none</fielddominance>
                  </samplecharacteristics>
                </video>
                <audio>
                  <samplecharacteristics>
                    <depth>16</depth>
                    <samplerate>48000</samplerate>
                  </samplecharacteristics>
                  <channelcount>2</channelcount>
                </audio>
              </media>
            </file>
            <filter>
              <effect>
                <name>Basic Motion</name>
                <effectid>basic</effectid>
                <effectcategory>motion</effectcategory>
                <effecttype>motion</effecttype>
                <mediatype>video</mediatype>
                <pproBypass>false</pproBypass>
                <parameter authoringApp="PremierePro">
                  <parameterid>scale</parameterid>
                  <name>Scale</name>
                  <valuemin>0</valuemin>
                  <valuemax>1000</valuemax>
                  <value>150</value>
                </parameter>
                <parameter authoringApp="PremierePro">
                  <parameterid>rotation</parameterid>
                  <name>Rotation</name>
                  <valuemin>-8640</valuemin>
                  <valuemax>8640</valuemax>
                  <value>0</value>
                </parameter>
                <parameter authoringApp="PremierePro">
                  <parameterid>center</parameterid>
                  <name>Center</name>
                  <value>
                    <horiz>0</horiz>
                    <vert>0</vert>
                  </value>
                </parameter>
                <parameter authoringApp="PremierePro">
                  <parameterid>centerOffset</parameterid>
                  <name>Anchor Point</name>
                  <value>
                    <horiz>0</horiz>
                    <vert>0</vert>
                  </value>
                </parameter>
                <parameter authoringApp="PremierePro">
                  <parameterid>antiflicker</parameterid>
                  <name>Anti-flicker Filter</name>
                  <valuemin>0.0</valuemin>
                  <valuemax>1.0</valuemax>
                  <value>0</value>
                </parameter>
              </effect>
            </filter>
            <link>
              <linkclipref>vclipitem-10</linkclipref>
              <mediatype>video</mediatype>
              <trackindex>1</trackindex>
              <clipindex>10</clipindex>
            </link>
            <link>
              <linkclipref>aclipitem-2</linkclipref>
              <mediatype>audio</mediatype>
              <trackindex>1</trackindex>
              <clipindex>2</clipindex>
              <groupindex>1</groupindex>
            </link>
          </clipitem>
          <clipitem id="vclipitem-11">
            <masterclipid>masterclip-11</masterclipid>
            <name>BREAKING NEWS： Ukraine’s Top Negotiator Briefs Media After US-Russia Talks in Geneva ｜ AC1G-9JqQMZ2vmwY.f137.mp4</name>
            <enabled>TRUE</enabled>
            <duration>350</duration>
            <rate>
              <timebase>50</timebase>
              <ntsc>FALSE</ntsc>
            </rate>
            <start>5250</start>
            <end>5600</end>
            <in>0</in>
            <out>350</out>
            <alphatype>none</alphatype>
            <pixelaspectratio>square</pixelaspectratio>
            <anamorphic>FALSE</anamorphic>
            <file id="file-11">
              <name>BREAKING NEWS： Ukraine’s Top Negotiator Briefs Media After US-Russia Talks in Geneva ｜ AC1G-9JqQMZ2vmwY.f137.mp4</name>
              <pathurl>file:///C:/Users/Nemifist/YandexDisk/PAMPAM/%D0%9F%D0%B5%D1%80%D0%B5%D0%B3%D0%BE%D0%B2%D0%BE%D1%80%D1%8B/BREAKING%20NEWS%EF%BC%9A%20Ukraine%E2%80%99s%20Top%20Negotiator%20Briefs%20Media%20After%20US-Russia%20Talks%20in%20Geneva%20%EF%BD%9C%20AC1G-9JqQMZ2vmwY.f137.mp4</pathurl>
              <rate>
                <timebase>50</timebase>
                <ntsc>FALSE</ntsc>
              </rate>
              <duration>350</duration>
              <timecode>
                <rate>
                  <timebase>50</timebase>
                  <ntsc>FALSE</ntsc>
                </rate>
                <string>00:00:00:00</string>
                <frame>0</frame>
                <displayformat>NDF</displayformat>
              </timecode>
              <media>
                <video>
                  <samplecharacteristics>
                    <rate>
                      <timebase>50</timebase>
                      <ntsc>FALSE</ntsc>
                    </rate>
                    <width>1920</width>
                    <height>1080</height>
                    <anamorphic>FALSE</anamorphic>
                    <pixelaspectratio>square</pixelaspectratio>
                    <fielddominance>none</fielddominance>
                  </samplecharacteristics>
                </video>
              </media>
            </file>
            <filter>
              <effect>
                <name>Basic Motion</name>
                <effectid>basic</effectid>
                <effectcategory>motion</effectcategory>
                <effecttype>motion</effecttype>
                <mediatype>video</mediatype>
                <pproBypass>false</pproBypass>
                <parameter authoringApp="PremierePro">
                  <parameterid>scale</parameterid>
                  <name>Scale</name>
                  <valuemin>0</valuemin>
                  <valuemax>1000</valuemax>
                  <value>100</value>
                </parameter>
                <parameter authoringApp="PremierePro">
                  <parameterid>rotation</parameterid>
                  <name>Rotation</name>
                  <valuemin>-8640</valuemin>
                  <valuemax>8640</valuemax>
                  <value>0</value>
                </parameter>
                <parameter authoringApp="PremierePro">
                  <parameterid>center</parameterid>
                  <name>Center</name>
                  <value>
                    <horiz>0</horiz>
                    <vert>0</vert>
                  </value>
                </parameter>
                <parameter authoringApp="PremierePro">
                  <parameterid>centerOffset</parameterid>
                  <name>Anchor Point</name>
                  <value>
                    <horiz>0</horiz>
                    <vert>0</vert>
                  </value>
                </parameter>
                <parameter authoringApp="PremierePro">
                  <parameterid>antiflicker</parameterid>
                  <name>Anti-flicker Filter</name>
                  <valuemin>0.0</valuemin>
                  <valuemax>1.0</valuemax>
                  <value>0</value>
                </parameter>
              </effect>
            </filter>
            <link>
              <linkclipref>vclipitem-11</linkclipref>
              <mediatype>video</mediatype>
              <trackindex>1</trackindex>
              <clipindex>11</clipindex>
            </link>
          </clipitem>
          <clipitem id="vclipitem-12">
            <masterclipid>masterclip-12</masterclipid>
            <name>arrow_024853_190226.png</name>
            <enabled>TRUE</enabled>
            <duration>250</duration>
            <rate>
              <timebase>50</timebase>
              <ntsc>FALSE</ntsc>
            </rate>
            <start>6550</start>
            <end>6800</end>
            <in>0</in>
            <out>250</out>
            <alphatype>straight</alphatype>
            <pixelaspectratio>square</pixelaspectratio>
            <anamorphic>FALSE</anamorphic>
            <file id="file-12">
              <name>arrow_024853_190226.png</name>
              <pathurl>file:///C:/Users/Nemifist/YandexDisk/PAMPAM/%D0%9F%D0%B5%D1%80%D0%B5%D0%B3%D0%BE%D0%B2%D0%BE%D1%80%D1%8B/arrow_024853_190226.png</pathurl>
              <rate>
                <timebase>50</timebase>
                <ntsc>FALSE</ntsc>
              </rate>
              <duration>250</duration>
              <timecode>
                <rate>
                  <timebase>50</timebase>
                  <ntsc>FALSE</ntsc>
                </rate>
                <string>00:00:00:00</string>
                <frame>0</frame>
                <displayformat>NDF</displayformat>
              </timecode>
              <media>
                <video>
                  <samplecharacteristics>
                    <rate>
                      <timebase>50</timebase>
                      <ntsc>FALSE</ntsc>
                    </rate>
                    <width>1920</width>
                    <height>960</height>
                    <anamorphic>FALSE</anamorphic>
                    <pixelaspectratio>square</pixelaspectratio>
                    <fielddominance>none</fielddominance>
                  </samplecharacteristics>
                </video>
              </media>
            </file>
            <filter>
              <effect>
                <name>Basic Motion</name>
                <effectid>basic</effectid>
                <effectcategory>motion</effectcategory>
                <effecttype>motion</effecttype>
                <mediatype>video</mediatype>
                <pproBypass>false</pproBypass>
                <parameter authoringApp="PremierePro">
                  <parameterid>scale</parameterid>
                  <name>Scale</name>
                  <valuemin>0</valuemin>
                  <valuemax>1000</valuemax>
                  <value>90</value>
                </parameter>
                <parameter authoringApp="PremierePro">
                  <parameterid>rotation</parameterid>
                  <name>Rotation</name>
                  <valuemin>-8640</valuemin>
                  <valuemax>8640</valuemax>
                  <value>0</value>
                </parameter>
                <parameter authoringApp="PremierePro">
                  <parameterid>center</parameterid>
                  <name>Center</name>
                  <value>
                    <horiz>0</horiz>
                    <vert>0</vert>
                  </value>
                </parameter>
                <parameter authoringApp="PremierePro">
                  <parameterid>centerOffset</parameterid>
                  <name>Anchor Point</name>
                  <value>
                    <horiz>0</horiz>
                    <vert>0</vert>
                  </value>
                </parameter>
                <parameter authoringApp="PremierePro">
                  <parameterid>antiflicker</parameterid>
                  <name>Anti-flicker Filter</name>
                  <valuemin>0.0</valuemin>
                  <valuemax>1.0</valuemax>
                  <value>0</value>
                </parameter>
              </effect>
            </filter>
            <link>
              <linkclipref>vclipitem-12</linkclipref>
              <mediatype>video</mediatype>
              <trackindex>1</trackindex>
              <clipindex>12</clipindex>
            </link>
          </clipitem>
          <clipitem id="vclipitem-13">
            <masterclipid>masterclip-13</masterclipid>
            <name>arrow_025436_190226.png</name>
            <enabled>TRUE</enabled>
            <duration>250</duration>
            <rate>
              <timebase>50</timebase>
              <ntsc>FALSE</ntsc>
            </rate>
            <start>7800</start>
            <end>8050</end>
            <in>0</in>
            <out>250</out>
            <alphatype>straight</alphatype>
            <pixelaspectratio>square</pixelaspectratio>
            <anamorphic>FALSE</anamorphic>
            <file id="file-13">
              <name>arrow_025436_190226.png</name>
              <pathurl>file:///C:/Users/Nemifist/YandexDisk/PAMPAM/%D0%9F%D0%B5%D1%80%D0%B5%D0%B3%D0%BE%D0%B2%D0%BE%D1%80%D1%8B/arrow_025436_190226.png</pathurl>
              <rate>
                <timebase>50</timebase>
                <ntsc>FALSE</ntsc>
              </rate>
              <duration>250</duration>
              <timecode>
                <rate>
                  <timebase>50</timebase>
                  <ntsc>FALSE</ntsc>
                </rate>
                <string>00:00:00:00</string>
                <frame>0</frame>
                <displayformat>NDF</displayformat>
              </timecode>
              <media>
                <video>
                  <samplecharacteristics>
                    <rate>
                      <timebase>50</timebase>
                      <ntsc>FALSE</ntsc>
                    </rate>
                    <width>1920</width>
                    <height>960</height>
                    <anamorphic>FALSE</anamorphic>
                    <pixelaspectratio>square</pixelaspectratio>
                    <fielddominance>none</fielddominance>
                  </samplecharacteristics>
                </video>
              </media>
            </file>
            <filter>
              <effect>
                <name>Basic Motion</name>
                <effectid>basic</effectid>
                <effectcategory>motion</effectcategory>
                <effecttype>motion</effecttype>
                <mediatype>video</mediatype>
                <pproBypass>false</pproBypass>
                <parameter authoringApp="PremierePro">
                  <parameterid>scale</parameterid>
                  <name>Scale</name>
                  <valuemin>0</valuemin>
                  <valuemax>1000</valuemax>
                  <value>90</value>
                </parameter>
                <parameter authoringApp="PremierePro">
                  <parameterid>rotation</parameterid>
                  <name>Rotation</name>
                  <valuemin>-8640</valuemin>
                  <valuemax>8640</valuemax>
                  <value>0</value>
                </parameter>
                <parameter authoringApp="PremierePro">
                  <parameterid>center</parameterid>
                  <name>Center</name>
                  <value>
                    <horiz>0</horiz>
                    <vert>0</vert>
                  </value>
                </parameter>
                <parameter authoringApp="PremierePro">
                  <parameterid>centerOffset</parameterid>
                  <name>Anchor Point</name>
                  <value>
                    <horiz>0</horiz>
                    <vert>0</vert>
                  </value>
                </parameter>
                <parameter authoringApp="PremierePro">
                  <parameterid>antiflicker</parameterid>
                  <name>Anti-flicker Filter</name>
                  <valuemin>0.0</valuemin>
                  <valuemax>1.0</valuemax>
                  <value>0</value>
                </parameter>
              </effect>
            </filter>
            <link>
              <linkclipref>vclipitem-13</linkclipref>
              <mediatype>video</mediatype>
              <trackindex>1</trackindex>
              <clipindex>13</clipindex>
            </link>
          </clipitem>
          <clipitem id="vclipitem-14">
            <masterclipid>masterclip-14</masterclipid>
            <name>1455 день війни. Звернення Володимира Зеленського до українців-AoOKMRNH-hg.f137.mp4</name>
            <enabled>TRUE</enabled>
            <duration>450</duration>
            <rate>
              <timebase>50</timebase>
              <ntsc>FALSE</ntsc>
            </rate>
            <start>8350</start>
            <end>8800</end>
            <in>0</in>
            <out>450</out>
            <alphatype>none</alphatype>
            <pixelaspectratio>square</pixelaspectratio>
            <anamorphic>FALSE</anamorphic>
            <file id="file-14">
              <name>1455 день війни. Звернення Володимира Зеленського до українців-AoOKMRNH-hg.f137.mp4</name>
              <pathurl>file:///C:/Users/Nemifist/YandexDisk/PAMPAM/%D0%9F%D0%B5%D1%80%D0%B5%D0%B3%D0%BE%D0%B2%D0%BE%D1%80%D1%8B/1455%20%D0%B4%D0%B5%D0%BD%D1%8C%20%D0%B2%D1%96%D0%B9%D0%BD%D0%B8.%20%D0%97%D0%B2%D0%B5%D1%80%D0%BD%D0%B5%D0%BD%D0%BD%D1%8F%20%D0%92%D0%BE%D0%BB%D0%BE%D0%B4%D0%B8%D0%BC%D0%B8%D1%80%D0%B0%20%D0%97%D0%B5%D0%BB%D0%B5%D0%BD%D1%81%D1%8C%D0%BA%D0%BE%D0%B3%D0%BE%20%D0%B4%D0%BE%20%D1%83%D0%BA%D1%80%D0%B0%D1%97%D0%BD%D1%86%D1%96%D0%B2-AoOKMRNH-hg.f137.mp4</pathurl>
              <rate>
                <timebase>50</timebase>
                <ntsc>FALSE</ntsc>
              </rate>
              <duration>450</duration>
              <timecode>
                <rate>
                  <timebase>50</timebase>
                  <ntsc>FALSE</ntsc>
                </rate>
                <string>00:00:00:00</string>
                <frame>0</frame>
                <displayformat>NDF</displayformat>
              </timecode>
              <media>
                <video>
                  <samplecharacteristics>
                    <rate>
                      <timebase>50</timebase>
                      <ntsc>FALSE</ntsc>
                    </rate>
                    <width>1920</width>
                    <height>1080</height>
                    <anamorphic>FALSE</anamorphic>
                    <pixelaspectratio>square</pixelaspectratio>
                    <fielddominance>none</fielddominance>
                  </samplecharacteristics>
                </video>
              </media>
            </file>
            <filter>
              <effect>
                <name>Basic Motion</name>
                <effectid>basic</effectid>
                <effectcategory>motion</effectcategory>
                <effecttype>motion</effecttype>
                <mediatype>video</mediatype>
                <pproBypass>false</pproBypass>
                <parameter authoringApp="PremierePro">
                  <parameterid>scale</parameterid>
                  <name>Scale</name>
                  <valuemin>0</valuemin>
                  <valuemax>1000</valuemax>
                  <value>100</value>
                </parameter>
                <parameter authoringApp="PremierePro">
                  <parameterid>rotation</parameterid>
                  <name>Rotation</name>
                  <valuemin>-8640</valuemin>
                  <valuemax>8640</valuemax>
                  <value>0</value>
                </parameter>
                <parameter authoringApp="PremierePro">
                  <parameterid>center</parameterid>
                  <name>Center</name>
                  <value>
                    <horiz>0</horiz>
                    <vert>0</vert>
                  </value>
                </parameter>
                <parameter authoringApp="PremierePro">
                  <parameterid>centerOffset</parameterid>
                  <name>Anchor Point</name>
                  <value>
                    <horiz>0</horiz>
                    <vert>0</vert>
                  </value>
                </parameter>
                <parameter authoringApp="PremierePro">
                  <parameterid>antiflicker</parameterid>
                  <name>Anti-flicker Filter</name>
                  <valuemin>0.0</valuemin>
                  <valuemax>1.0</valuemax>
                  <value>0</value>
                </parameter>
              </effect>
            </filter>
            <link>
              <linkclipref>vclipitem-14</linkclipref>
              <mediatype>video</mediatype>
              <trackindex>1</trackindex>
              <clipindex>14</clipindex>
            </link>
          </clipitem>
          <clipitem id="vclipitem-15">
            <masterclipid>masterclip-15</masterclipid>
            <name>arrow_134850_190226.png</name>
            <enabled>TRUE</enabled>
            <duration>350</duration>
            <rate>
              <timebase>50</timebase>
              <ntsc>FALSE</ntsc>
            </rate>
            <start>9250</start>
            <end>9600</end>
            <in>0</in>
            <out>350</out>
            <alphatype>straight</alphatype>
            <pixelaspectratio>square</pixelaspectratio>
            <anamorphic>FALSE</anamorphic>
            <file id="file-15">
              <name>arrow_134850_190226.png</name>
              <pathurl>file:///C:/Users/Nemifist/YandexDisk/PAMPAM/%D0%9F%D0%B5%D1%80%D0%B5%D0%B3%D0%BE%D0%B2%D0%BE%D1%80%D1%8B/arrow_134850_190226.png</pathurl>
              <rate>
                <timebase>50</timebase>
                <ntsc>FALSE</ntsc>
              </rate>
              <duration>350</duration>
              <timecode>
                <rate>
                  <timebase>50</timebase>
                  <ntsc>FALSE</ntsc>
                </rate>
                <string>00:00:00:00</string>
                <frame>0</frame>
                <displayformat>NDF</displayformat>
              </timecode>
              <media>
                <video>
                  <samplecharacteristics>
                    <rate>
                      <timebase>50</timebase>
                      <ntsc>FALSE</ntsc>
                    </rate>
                    <width>960</width>
                    <height>960</height>
                    <anamorphic>FALSE</anamorphic>
                    <pixelaspectratio>square</pixelaspectratio>
                    <fielddominance>none</fielddominance>
                  </samplecharacteristics>
                </video>
              </media>
            </file>
            <filter>
              <effect>
                <name>Basic Motion</name>
                <effectid>basic</effectid>
                <effectcategory>motion</effectcategory>
                <effecttype>motion</effecttype>
                <mediatype>video</mediatype>
                <pproBypass>false</pproBypass>
                <parameter authoringApp="PremierePro">
                  <parameterid>scale</parameterid>
                  <name>Scale</name>
                  <valuemin>0</valuemin>
                  <valuemax>1000</valuemax>
                  <value>100</value>
                </parameter>
                <parameter authoringApp="PremierePro">
                  <parameterid>rotation</parameterid>
                  <name>Rotation</name>
                  <valuemin>-8640</valuemin>
                  <valuemax>8640</valuemax>
                  <value>0</value>
                </parameter>
                <parameter authoringApp="PremierePro">
                  <parameterid>center</parameterid>
                  <name>Center</name>
                  <value>
                    <horiz>-0.25</horiz>
                    <vert>0</vert>
                  </value>
                </parameter>
                <parameter authoringApp="PremierePro">
                  <parameterid>centerOffset</parameterid>
                  <name>Anchor Point</name>
                  <value>
                    <horiz>0</horiz>
                    <vert>0</vert>
                  </value>
                </parameter>
                <parameter authoringApp="PremierePro">
                  <parameterid>antiflicker</parameterid>
                  <name>Anti-flicker Filter</name>
                  <valuemin>0.0</valuemin>
                  <valuemax>1.0</valuemax>
                  <value>0</value>
                </parameter>
              </effect>
            </filter>
            <link>
              <linkclipref>vclipitem-15</linkclipref>
              <mediatype>video</mediatype>
              <trackindex>1</trackindex>
              <clipindex>15</clipindex>
            </link>
          </clipitem>
          <clipitem id="vclipitem-16">
            <masterclipid>masterclip-16</masterclipid>
            <name>arrow_100013_190226.png</name>
            <enabled>TRUE</enabled>
            <duration>650</duration>
            <rate>
              <timebase>50</timebase>
              <ntsc>FALSE</ntsc>
            </rate>
            <start>10450</start>
            <end>11100</end>
            <in>0</in>
            <out>650</out>
            <alphatype>straight</alphatype>
            <pixelaspectratio>square</pixelaspectratio>
            <anamorphic>FALSE</anamorphic>
            <file id="file-16">
              <name>arrow_100013_190226.png</name>
              <pathurl>file:///C:/Users/Nemifist/YandexDisk/PAMPAM/%D0%9F%D0%B5%D1%80%D0%B5%D0%B3%D0%BE%D0%B2%D0%BE%D1%80%D1%8B/arrow_100013_190226.png</pathurl>
              <rate>
                <timebase>50</timebase>
                <ntsc>FALSE</ntsc>
              </rate>
              <duration>650</duration>
              <timecode>
                <rate>
                  <timebase>50</timebase>
                  <ntsc>FALSE</ntsc>
                </rate>
                <string>00:00:00:00</string>
                <frame>0</frame>
                <displayformat>NDF</displayformat>
              </timecode>
              <media>
                <video>
                  <samplecharacteristics>
                    <rate>
                      <timebase>50</timebase>
                      <ntsc>FALSE</ntsc>
                    </rate>
                    <width>1920</width>
                    <height>960</height>
                    <anamorphic>FALSE</anamorphic>
                    <pixelaspectratio>square</pixelaspectratio>
                    <fielddominance>none</fielddominance>
                  </samplecharacteristics>
                </video>
              </media>
            </file>
            <filter>
              <effect>
                <name>Basic Motion</name>
                <effectid>basic</effectid>
                <effectcategory>motion</effectcategory>
                <effecttype>motion</effecttype>
                <mediatype>video</mediatype>
                <pproBypass>false</pproBypass>
                <parameter authoringApp="PremierePro">
                  <parameterid>scale</parameterid>
                  <name>Scale</name>
                  <valuemin>0</valuemin>
                  <valuemax>1000</valuemax>
                  <value>90</value>
                </parameter>
                <parameter authoringApp="PremierePro">
                  <parameterid>rotation</parameterid>
                  <name>Rotation</name>
                  <valuemin>-8640</valuemin>
                  <valuemax>8640</valuemax>
                  <value>0</value>
                </parameter>
                <parameter authoringApp="PremierePro">
                  <parameterid>center</parameterid>
                  <name>Center</name>
                  <value>
                    <horiz>0</horiz>
                    <vert>0</vert>
                  </value>
                </parameter>
                <parameter authoringApp="PremierePro">
                  <parameterid>centerOffset</parameterid>
                  <name>Anchor Point</name>
                  <value>
                    <horiz>0</horiz>
                    <vert>0</vert>
                  </value>
                </parameter>
                <parameter authoringApp="PremierePro">
                  <parameterid>antiflicker</parameterid>
                  <name>Anti-flicker Filter</name>
                  <valuemin>0.0</valuemin>
                  <valuemax>1.0</valuemax>
                  <value>0</value>
                </parameter>
              </effect>
            </filter>
            <link>
              <linkclipref>vclipitem-16</linkclipref>
              <mediatype>video</mediatype>
              <trackindex>1</trackindex>
              <clipindex>16</clipindex>
            </link>
          </clipitem>
          <clipitem id="vclipitem-17">
            <masterclipid>masterclip-18</masterclipid>
            <name>arrow_141017_190226.png</name>
            <enabled>TRUE</enabled>
            <duration>250</duration>
            <rate>
              <timebase>50</timebase>
              <ntsc>FALSE</ntsc>
            </rate>
            <start>16800</start>
            <end>17050</end>
            <in>0</in>
            <out>250</out>
            <alphatype>straight</alphatype>
            <pixelaspectratio>square</pixelaspectratio>
            <anamorphic>FALSE</anamorphic>
            <file id="file-18">
              <name>arrow_141017_190226.png</name>
              <pathurl>file:///C:/Users/Nemifist/YandexDisk/PAMPAM/%D0%9E%D0%B1%D0%B0%D0%BC%D0%B0%20%D0%B8%D0%BD%D0%BE%D0%BF%D0%BB%D0%B0%D0%BD%D0%B5%D1%82%D1%8F%D0%BD%D0%B5/arrow_141017_190226.png</pathurl>
              <rate>
                <timebase>50</timebase>
                <ntsc>FALSE</ntsc>
              </rate>
              <duration>250</duration>
              <timecode>
                <rate>
                  <timebase>50</timebase>
                  <ntsc>FALSE</ntsc>
                </rate>
                <string>00:00:00:00</string>
                <frame>0</frame>
                <displayformat>NDF</displayformat>
              </timecode>
              <media>
                <video>
                  <samplecharacteristics>
                    <rate>
                      <timebase>50</timebase>
                      <ntsc>FALSE</ntsc>
                    </rate>
                    <width>1024</width>
                    <height>1024</height>
                    <anamorphic>FALSE</anamorphic>
                    <pixelaspectratio>square</pixelaspectratio>
                    <fielddominance>none</fielddominance>
                  </samplecharacteristics>
                </video>
              </media>
            </file>
            <filter>
              <effect>
                <name>Basic Motion</name>
                <effectid>basic</effectid>
                <effectcategory>motion</effectcategory>
                <effecttype>motion</effecttype>
                <mediatype>video</mediatype>
                <pproBypass>false</pproBypass>
                <parameter authoringApp="PremierePro">
                  <parameterid>scale</parameterid>
                  <name>Scale</name>
                  <valuemin>0</valuemin>
                  <valuemax>1000</valuemax>
                  <value>93.8</value>
                </parameter>
                <parameter authoringApp="PremierePro">
                  <parameterid>rotation</parameterid>
                  <name>Rotation</name>
                  <valuemin>-8640</valuemin>
                  <valuemax>8640</valuemax>
                  <value>0</value>
                </parameter>
                <parameter authoringApp="PremierePro">
                  <parameterid>center</parameterid>
                  <name>Center</name>
                  <value>
                    <horiz>-0.25</horiz>
                    <vert>0</vert>
                  </value>
                </parameter>
                <parameter authoringApp="PremierePro">
                  <parameterid>centerOffset</parameterid>
                  <name>Anchor Point</name>
                  <value>
                    <horiz>0</horiz>
                    <vert>0</vert>
                  </value>
                </parameter>
                <parameter authoringApp="PremierePro">
                  <parameterid>antiflicker</parameterid>
                  <name>Anti-flicker Filter</name>
                  <valuemin>0.0</valuemin>
                  <valuemax>1.0</valuemax>
                  <value>0</value>
                </parameter>
              </effect>
            </filter>
            <link>
              <linkclipref>vclipitem-17</linkclipref>
              <mediatype>video</mediatype>
              <trackindex>1</trackindex>
              <clipindex>17</clipindex>
            </link>
          </clipitem>
          <clipitem id="vclipitem-18">
            <masterclipid>masterclip-19</masterclipid>
            <name>Obama issues LATE-NIGHT UPDATE on ALIENS after clip goes viral-U0438rjwS7c.f137.mp4</name>
            <enabled>TRUE</enabled>
            <duration>300</duration>
            <rate>
              <timebase>50</timebase>
              <ntsc>FALSE</ntsc>
            </rate>
            <start>18300</start>
            <end>18600</end>
            <in>0</in>
            <out>300</out>
            <alphatype>none</alphatype>
            <pixelaspectratio>square</pixelaspectratio>
            <anamorphic>FALSE</anamorphic>
            <file id="file-19">
              <name>Obama issues LATE-NIGHT UPDATE on ALIENS after clip goes viral-U0438rjwS7c.f137.mp4</name>
              <pathurl>file:///C:/Users/Nemifist/YandexDisk/PAMPAM/%D0%9E%D0%B1%D0%B0%D0%BC%D0%B0%20%D0%B8%D0%BD%D0%BE%D0%BF%D0%BB%D0%B0%D0%BD%D0%B5%D1%82%D1%8F%D0%BD%D0%B5/Obama%20issues%20LATE-NIGHT%20UPDATE%20on%20ALIENS%20after%20clip%20goes%20viral-U0438rjwS7c.f137.mp4</pathurl>
              <rate>
                <timebase>50</timebase>
                <ntsc>FALSE</ntsc>
              </rate>
              <duration>300</duration>
              <timecode>
                <rate>
                  <timebase>50</timebase>
                  <ntsc>FALSE</ntsc>
                </rate>
                <string>00:00:00:00</string>
                <frame>0</frame>
                <displayformat>NDF</displayformat>
              </timecode>
              <media>
                <video>
                  <samplecharacteristics>
                    <rate>
                      <timebase>50</timebase>
                      <ntsc>FALSE</ntsc>
                    </rate>
                    <width>1920</width>
                    <height>1080</height>
                    <anamorphic>FALSE</anamorphic>
                    <pixelaspectratio>square</pixelaspectratio>
                    <fielddominance>none</fielddominance>
                  </samplecharacteristics>
                </video>
              </media>
            </file>
            <filter>
              <effect>
                <name>Basic Motion</name>
                <effectid>basic</effectid>
                <effectcategory>motion</effectcategory>
                <effecttype>motion</effecttype>
                <mediatype>video</mediatype>
                <pproBypass>false</pproBypass>
                <parameter authoringApp="PremierePro">
                  <parameterid>scale</parameterid>
                  <name>Scale</name>
                  <valuemin>0</valuemin>
                  <valuemax>1000</valuemax>
                  <value>100</value>
                </parameter>
                <parameter authoringApp="PremierePro">
                  <parameterid>rotation</parameterid>
                  <name>Rotation</name>
                  <valuemin>-8640</valuemin>
                  <valuemax>8640</valuemax>
                  <value>0</value>
                </parameter>
                <parameter authoringApp="PremierePro">
                  <parameterid>center</parameterid>
                  <name>Center</name>
                  <value>
                    <horiz>0</horiz>
                    <vert>0</vert>
                  </value>
                </parameter>
                <parameter authoringApp="PremierePro">
                  <parameterid>centerOffset</parameterid>
                  <name>Anchor Point</name>
                  <value>
                    <horiz>0</horiz>
                    <vert>0</vert>
                  </value>
                </parameter>
                <parameter authoringApp="PremierePro">
                  <parameterid>antiflicker</parameterid>
                  <name>Anti-flicker Filter</name>
                  <valuemin>0.0</valuemin>
                  <valuemax>1.0</valuemax>
                  <value>0</value>
                </parameter>
              </effect>
            </filter>
            <link>
              <linkclipref>vclipitem-18</linkclipref>
              <mediatype>video</mediatype>
              <trackindex>1</trackindex>
              <clipindex>18</clipindex>
            </link>
          </clipitem>
          <clipitem id="vclipitem-19">
            <masterclipid>masterclip-20</masterclipid>
            <name>arrow_101618_190226.png</name>
            <enabled>TRUE</enabled>
            <duration>700</duration>
            <rate>
              <timebase>50</timebase>
              <ntsc>FALSE</ntsc>
            </rate>
            <start>22250</start>
            <end>22950</end>
            <in>0</in>
            <out>700</out>
            <alphatype>straight</alphatype>
            <pixelaspectratio>square</pixelaspectratio>
            <anamorphic>FALSE</anamorphic>
            <file id="file-20">
              <name>arrow_101618_190226.png</name>
              <pathurl>file:///C:/Users/Nemifist/YandexDisk/PAMPAM/%D0%9E%D0%B1%D0%B0%D0%BC%D0%B0%20%D0%B8%D0%BD%D0%BE%D0%BF%D0%BB%D0%B0%D0%BD%D0%B5%D1%82%D1%8F%D0%BD%D0%B5/arrow_101618_190226.png</pathurl>
              <rate>
                <timebase>50</timebase>
                <ntsc>FALSE</ntsc>
              </rate>
              <duration>700</duration>
              <timecode>
                <rate>
                  <timebase>50</timebase>
                  <ntsc>FALSE</ntsc>
                </rate>
                <string>00:00:00:00</string>
                <frame>0</frame>
                <displayformat>NDF</displayformat>
              </timecode>
              <media>
                <video>
                  <samplecharacteristics>
                    <rate>
                      <timebase>50</timebase>
                      <ntsc>FALSE</ntsc>
                    </rate>
                    <width>3840</width>
                    <height>1461</height>
                    <anamorphic>FALSE</anamorphic>
                    <pixelaspectratio>square</pixelaspectratio>
                    <fielddominance>none</fielddominance>
                  </samplecharacteristics>
                </video>
              </media>
            </file>
            <filter>
              <effect>
                <name>Basic Motion</name>
                <effectid>basic</effectid>
                <effectcategory>motion</effectcategory>
                <effecttype>motion</effecttype>
                <mediatype>video</mediatype>
                <pproBypass>false</pproBypass>
                <parameter authoringApp="PremierePro">
                  <parameterid>scale</parameterid>
                  <name>Scale</name>
                  <valuemin>0</valuemin>
                  <valuemax>1000</valuemax>
                  <value>45</value>
                </parameter>
                <parameter authoringApp="PremierePro">
                  <parameterid>rotation</parameterid>
                  <name>Rotation</name>
                  <valuemin>-8640</valuemin>
                  <valuemax>8640</valuemax>
                  <value>0</value>
                </parameter>
                <parameter authoringApp="PremierePro">
                  <parameterid>center</parameterid>
                  <name>Center</name>
                  <value>
                    <horiz>0</horiz>
                    <vert>0</vert>
                  </value>
                </parameter>
                <parameter authoringApp="PremierePro">
                  <parameterid>centerOffset</parameterid>
                  <name>Anchor Point</name>
                  <value>
                    <horiz>0</horiz>
                    <vert>0</vert>
                  </value>
                </parameter>
                <parameter authoringApp="PremierePro">
                  <parameterid>antiflicker</parameterid>
                  <name>Anti-flicker Filter</name>
                  <valuemin>0.0</valuemin>
                  <valuemax>1.0</valuemax>
                  <value>0</value>
                </parameter>
              </effect>
            </filter>
            <link>
              <linkclipref>vclipitem-19</linkclipref>
              <mediatype>video</mediatype>
              <trackindex>1</trackindex>
              <clipindex>19</clipindex>
            </link>
          </clipitem>
          <clipitem id="vclipitem-20">
            <masterclipid>masterclip-21</masterclipid>
            <name>arrow_034334_180226.png</name>
            <enabled>TRUE</enabled>
            <duration>300</duration>
            <rate>
              <timebase>50</timebase>
              <ntsc>FALSE</ntsc>
            </rate>
            <start>24450</start>
            <end>24750</end>
            <in>0</in>
            <out>300</out>
            <alphatype>straight</alphatype>
            <pixelaspectratio>square</pixelaspectratio>
            <anamorphic>FALSE</anamorphic>
            <file id="file-21">
              <name>arrow_034334_180226.png</name>
              <pathurl>file:///C:/Users/Nemifist/YandexDisk/PAMPAM/%D0%94%D0%BE%D1%80%D0%BE%D0%B6%D0%BD%D1%8B%D0%B5%20%D0%B7%D0%BD%D0%B0%D0%BA%D0%B8%20%D0%B2%20%D0%9B%D0%B0%D1%82%D0%B2%D0%B8%D0%B8/arrow_034334_180226.png</pathurl>
              <rate>
                <timebase>50</timebase>
                <ntsc>FALSE</ntsc>
              </rate>
              <duration>300</duration>
              <timecode>
                <rate>
                  <timebase>50</timebase>
                  <ntsc>FALSE</ntsc>
                </rate>
                <string>00:00:00:00</string>
                <frame>0</frame>
                <displayformat>NDF</displayformat>
              </timecode>
              <media>
                <video>
                  <samplecharacteristics>
                    <rate>
                      <timebase>50</timebase>
                      <ntsc>FALSE</ntsc>
                    </rate>
                    <width>3840</width>
                    <height>1587</height>
                    <anamorphic>FALSE</anamorphic>
                    <pixelaspectratio>square</pixelaspectratio>
                    <fielddominance>none</fielddominance>
                  </samplecharacteristics>
                </video>
              </media>
            </file>
            <filter>
              <effect>
                <name>Basic Motion</name>
                <effectid>basic</effectid>
                <effectcategory>motion</effectcategory>
                <effecttype>motion</effecttype>
                <mediatype>video</mediatype>
                <pproBypass>false</pproBypass>
                <parameter authoringApp="PremierePro">
                  <parameterid>scale</parameterid>
                  <name>Scale</name>
                  <valuemin>0</valuemin>
                  <valuemax>1000</valuemax>
                  <value>45</value>
                </parameter>
                <parameter authoringApp="PremierePro">
                  <parameterid>rotation</parameterid>
                  <name>Rotation</name>
                  <valuemin>-8640</valuemin>
                  <valuemax>8640</valuemax>
                  <value>0</value>
                </parameter>
                <parameter authoringApp="PremierePro">
                  <parameterid>center</parameterid>
                  <name>Center</name>
                  <value>
                    <horiz>0</horiz>
                    <vert>0</vert>
                  </value>
                </parameter>
                <parameter authoringApp="PremierePro">
                  <parameterid>centerOffset</parameterid>
                  <name>Anchor Point</name>
                  <value>
                    <horiz>0</horiz>
                    <vert>0</vert>
                  </value>
                </parameter>
                <parameter authoringApp="PremierePro">
                  <parameterid>antiflicker</parameterid>
                  <name>Anti-flicker Filter</name>
                  <valuemin>0.0</valuemin>
                  <valuemax>1.0</valuemax>
                  <value>0</value>
                </parameter>
              </effect>
            </filter>
            <link>
              <linkclipref>vclipitem-20</linkclipref>
              <mediatype>video</mediatype>
              <trackindex>1</trackindex>
              <clipindex>20</clipindex>
            </link>
          </clipitem>
          <clipitem id="vclipitem-21">
            <masterclipid>masterclip-22</masterclipid>
            <name>arrow_035440_180226.png</name>
            <enabled>TRUE</enabled>
            <duration>300</duration>
            <rate>
              <timebase>50</timebase>
              <ntsc>FALSE</ntsc>
            </rate>
            <start>24750</start>
            <end>25050</end>
            <in>0</in>
            <out>300</out>
            <alphatype>straight</alphatype>
            <pixelaspectratio>square</pixelaspectratio>
            <anamorphic>FALSE</anamorphic>
            <file id="file-22">
              <name>arrow_035440_180226.png</name>
              <pathurl>file:///C:/Users/Nemifist/YandexDisk/PAMPAM/%D0%94%D0%BE%D1%80%D0%BE%D0%B6%D0%BD%D1%8B%D0%B5%20%D0%B7%D0%BD%D0%B0%D0%BA%D0%B8%20%D0%B2%20%D0%9B%D0%B0%D1%82%D0%B2%D0%B8%D0%B8/arrow_035440_180226.png</pathurl>
              <rate>
                <timebase>50</timebase>
                <ntsc>FALSE</ntsc>
              </rate>
              <duration>300</duration>
              <timecode>
                <rate>
                  <timebase>50</timebase>
                  <ntsc>FALSE</ntsc>
                </rate>
                <string>00:00:00:00</string>
                <frame>0</frame>
                <displayformat>NDF</displayformat>
              </timecode>
              <media>
                <video>
                  <samplecharacteristics>
                    <rate>
                      <timebase>50</timebase>
                      <ntsc>FALSE</ntsc>
                    </rate>
                    <width>1920</width>
                    <height>1920</height>
                    <anamorphic>FALSE</anamorphic>
                    <pixelaspectratio>square</pixelaspectratio>
                    <fielddominance>none</fielddominance>
                  </samplecharacteristics>
                </video>
              </media>
            </file>
            <filter>
              <effect>
                <name>Basic Motion</name>
                <effectid>basic</effectid>
                <effectcategory>motion</effectcategory>
                <effecttype>motion</effecttype>
                <mediatype>video</mediatype>
                <pproBypass>false</pproBypass>
                <parameter authoringApp="PremierePro">
                  <parameterid>scale</parameterid>
                  <name>Scale</name>
                  <valuemin>0</valuemin>
                  <valuemax>1000</valuemax>
                  <value>50</value>
                </parameter>
                <parameter authoringApp="PremierePro">
                  <parameterid>rotation</parameterid>
                  <name>Rotation</name>
                  <valuemin>-8640</valuemin>
                  <valuemax>8640</valuemax>
                  <value>0</value>
                </parameter>
                <parameter authoringApp="PremierePro">
                  <parameterid>center</parameterid>
                  <name>Center</name>
                  <value>
                    <horiz>-0.25</horiz>
                    <vert>0</vert>
                  </value>
                </parameter>
                <parameter authoringApp="PremierePro">
                  <parameterid>centerOffset</parameterid>
                  <name>Anchor Point</name>
                  <value>
                    <horiz>0</horiz>
                    <vert>0</vert>
                  </value>
                </parameter>
                <parameter authoringApp="PremierePro">
                  <parameterid>antiflicker</parameterid>
                  <name>Anti-flicker Filter</name>
                  <valuemin>0.0</valuemin>
                  <valuemax>1.0</valuemax>
                  <value>0</value>
                </parameter>
              </effect>
            </filter>
            <link>
              <linkclipref>vclipitem-21</linkclipref>
              <mediatype>video</mediatype>
              <trackindex>1</trackindex>
              <clipindex>21</clipindex>
            </link>
          </clipitem>
          <clipitem id="vclipitem-22">
            <masterclipid>masterclip-23</masterclipid>
            <name>arrow_035458_180226.png</name>
            <enabled>TRUE</enabled>
            <duration>250</duration>
            <rate>
              <timebase>50</timebase>
              <ntsc>FALSE</ntsc>
            </rate>
            <start>25050</start>
            <end>25300</end>
            <in>0</in>
            <out>250</out>
            <alphatype>straight</alphatype>
            <pixelaspectratio>square</pixelaspectratio>
            <anamorphic>FALSE</anamorphic>
            <file id="file-23">
              <name>arrow_035458_180226.png</name>
              <pathurl>file:///C:/Users/Nemifist/YandexDisk/PAMPAM/%D0%94%D0%BE%D1%80%D0%BE%D0%B6%D0%BD%D1%8B%D0%B5%20%D0%B7%D0%BD%D0%B0%D0%BA%D0%B8%20%D0%B2%20%D0%9B%D0%B0%D1%82%D0%B2%D0%B8%D0%B8/arrow_035458_180226.png</pathurl>
              <rate>
                <timebase>50</timebase>
                <ntsc>FALSE</ntsc>
              </rate>
              <duration>250</duration>
              <timecode>
                <rate>
                  <timebase>50</timebase>
                  <ntsc>FALSE</ntsc>
                </rate>
                <string>00:00:00:00</string>
                <frame>0</frame>
                <displayformat>NDF</displayformat>
              </timecode>
              <media>
                <video>
                  <samplecharacteristics>
                    <rate>
                      <timebase>50</timebase>
                      <ntsc>FALSE</ntsc>
                    </rate>
                    <width>1920</width>
                    <height>1920</height>
                    <anamorphic>FALSE</anamorphic>
                    <pixelaspectratio>square</pixelaspectratio>
                    <fielddominance>none</fielddominance>
                  </samplecharacteristics>
                </video>
              </media>
            </file>
            <filter>
              <effect>
                <name>Basic Motion</name>
                <effectid>basic</effectid>
                <effectcategory>motion</effectcategory>
                <effecttype>motion</effecttype>
                <mediatype>video</mediatype>
                <pproBypass>false</pproBypass>
                <parameter authoringApp="PremierePro">
                  <parameterid>scale</parameterid>
                  <name>Scale</name>
                  <valuemin>0</valuemin>
                  <valuemax>1000</valuemax>
                  <value>50</value>
                </parameter>
                <parameter authoringApp="PremierePro">
                  <parameterid>rotation</parameterid>
                  <name>Rotation</name>
                  <valuemin>-8640</valuemin>
                  <valuemax>8640</valuemax>
                  <value>0</value>
                </parameter>
                <parameter authoringApp="PremierePro">
                  <parameterid>center</parameterid>
                  <name>Center</name>
                  <value>
                    <horiz>-0.25</horiz>
                    <vert>0</vert>
                  </value>
                </parameter>
                <parameter authoringApp="PremierePro">
                  <parameterid>centerOffset</parameterid>
                  <name>Anchor Point</name>
                  <value>
                    <horiz>0</horiz>
                    <vert>0</vert>
                  </value>
                </parameter>
                <parameter authoringApp="PremierePro">
                  <parameterid>antiflicker</parameterid>
                  <name>Anti-flicker Filter</name>
                  <valuemin>0.0</valuemin>
                  <valuemax>1.0</valuemax>
                  <value>0</value>
                </parameter>
              </effect>
            </filter>
            <link>
              <linkclipref>vclipitem-22</linkclipref>
              <mediatype>video</mediatype>
              <trackindex>1</trackindex>
              <clipindex>22</clipindex>
            </link>
          </clipitem>
          <clipitem id="vclipitem-23">
            <masterclipid>masterclip-24</masterclipid>
            <name>arrow_035451_180226.png</name>
            <enabled>TRUE</enabled>
            <duration>250</duration>
            <rate>
              <timebase>50</timebase>
              <ntsc>FALSE</ntsc>
            </rate>
            <start>25300</start>
            <end>25550</end>
            <in>0</in>
            <out>250</out>
            <alphatype>straight</alphatype>
            <pixelaspectratio>square</pixelaspectratio>
            <anamorphic>FALSE</anamorphic>
            <file id="file-24">
              <name>arrow_035451_180226.png</name>
              <pathurl>file:///C:/Users/Nemifist/YandexDisk/PAMPAM/%D0%94%D0%BE%D1%80%D0%BE%D0%B6%D0%BD%D1%8B%D0%B5%20%D0%B7%D0%BD%D0%B0%D0%BA%D0%B8%20%D0%B2%20%D0%9B%D0%B0%D1%82%D0%B2%D0%B8%D0%B8/arrow_035451_180226.png</pathurl>
              <rate>
                <timebase>50</timebase>
                <ntsc>FALSE</ntsc>
              </rate>
              <duration>250</duration>
              <timecode>
                <rate>
                  <timebase>50</timebase>
                  <ntsc>FALSE</ntsc>
                </rate>
                <string>00:00:00:00</string>
                <frame>0</frame>
                <displayformat>NDF</displayformat>
              </timecode>
              <media>
                <video>
                  <samplecharacteristics>
                    <rate>
                      <timebase>50</timebase>
                      <ntsc>FALSE</ntsc>
                    </rate>
                    <width>1920</width>
                    <height>1920</height>
                    <anamorphic>FALSE</anamorphic>
                    <pixelaspectratio>square</pixelaspectratio>
                    <fielddominance>none</fielddominance>
                  </samplecharacteristics>
                </video>
              </media>
            </file>
            <filter>
              <effect>
                <name>Basic Motion</name>
                <effectid>basic</effectid>
                <effectcategory>motion</effectcategory>
                <effecttype>motion</effecttype>
                <mediatype>video</mediatype>
                <pproBypass>false</pproBypass>
                <parameter authoringApp="PremierePro">
                  <parameterid>scale</parameterid>
                  <name>Scale</name>
                  <valuemin>0</valuemin>
                  <valuemax>1000</valuemax>
                  <value>50</value>
                </parameter>
                <parameter authoringApp="PremierePro">
                  <parameterid>rotation</parameterid>
                  <name>Rotation</name>
                  <valuemin>-8640</valuemin>
                  <valuemax>8640</valuemax>
                  <value>0</value>
                </parameter>
                <parameter authoringApp="PremierePro">
                  <parameterid>center</parameterid>
                  <name>Center</name>
                  <value>
                    <horiz>-0.25</horiz>
                    <vert>0</vert>
                  </value>
                </parameter>
                <parameter authoringApp="PremierePro">
                  <parameterid>centerOffset</parameterid>
                  <name>Anchor Point</name>
                  <value>
                    <horiz>0</horiz>
                    <vert>0</vert>
                  </value>
                </parameter>
                <parameter authoringApp="PremierePro">
                  <parameterid>antiflicker</parameterid>
                  <name>Anti-flicker Filter</name>
                  <valuemin>0.0</valuemin>
                  <valuemax>1.0</valuemax>
                  <value>0</value>
                </parameter>
              </effect>
            </filter>
            <link>
              <linkclipref>vclipitem-23</linkclipref>
              <mediatype>video</mediatype>
              <trackindex>1</trackindex>
              <clipindex>23</clipindex>
            </link>
          </clipitem>
          <clipitem id="vclipitem-24">
            <masterclipid>masterclip-25</masterclipid>
            <name>arrow_154519_190226.png</name>
            <enabled>TRUE</enabled>
            <duration>600</duration>
            <rate>
              <timebase>50</timebase>
              <ntsc>FALSE</ntsc>
            </rate>
            <start>26100</start>
            <end>26700</end>
            <in>0</in>
            <out>600</out>
            <alphatype>straight</alphatype>
            <pixelaspectratio>square</pixelaspectratio>
            <anamorphic>FALSE</anamorphic>
            <file id="file-25">
              <name>arrow_154519_190226.png</name>
              <pathurl>file:///C:/Users/Nemifist/YandexDisk/PAMPAM/%D0%94%D0%BE%D1%80%D0%BE%D0%B6%D0%BD%D1%8B%D0%B5%20%D0%B7%D0%BD%D0%B0%D0%BA%D0%B8%20%D0%B2%20%D0%9B%D0%B0%D1%82%D0%B2%D0%B8%D0%B8/arrow_154519_190226.png</pathurl>
              <rate>
                <timebase>50</timebase>
                <ntsc>FALSE</ntsc>
              </rate>
              <duration>600</duration>
              <timecode>
                <rate>
                  <timebase>50</timebase>
                  <ntsc>FALSE</ntsc>
                </rate>
                <string>00:00:00:00</string>
                <frame>0</frame>
                <displayformat>NDF</displayformat>
              </timecode>
              <media>
                <video>
                  <samplecharacteristics>
                    <rate>
                      <timebase>50</timebase>
                      <ntsc>FALSE</ntsc>
                    </rate>
                    <width>3840</width>
                    <height>3840</height>
                    <anamorphic>FALSE</anamorphic>
                    <pixelaspectratio>square</pixelaspectratio>
                    <fielddominance>none</fielddominance>
                  </samplecharacteristics>
                </video>
              </media>
            </file>
            <filter>
              <effect>
                <name>Basic Motion</name>
                <effectid>basic</effectid>
                <effectcategory>motion</effectcategory>
                <effecttype>motion</effecttype>
                <mediatype>video</mediatype>
                <pproBypass>false</pproBypass>
                <parameter authoringApp="PremierePro">
                  <parameterid>scale</parameterid>
                  <name>Scale</name>
                  <valuemin>0</valuemin>
                  <valuemax>1000</valuemax>
                  <value>25</value>
                </parameter>
                <parameter authoringApp="PremierePro">
                  <parameterid>rotation</parameterid>
                  <name>Rotation</name>
                  <valuemin>-8640</valuemin>
                  <valuemax>8640</valuemax>
                  <value>0</value>
                </parameter>
                <parameter authoringApp="PremierePro">
                  <parameterid>center</parameterid>
                  <name>Center</name>
                  <value>
                    <horiz>-0.25</horiz>
                    <vert>0</vert>
                  </value>
                </parameter>
                <parameter authoringApp="PremierePro">
                  <parameterid>centerOffset</parameterid>
                  <name>Anchor Point</name>
                  <value>
                    <horiz>0</horiz>
                    <vert>0</vert>
                  </value>
                </parameter>
                <parameter authoringApp="PremierePro">
                  <parameterid>antiflicker</parameterid>
                  <name>Anti-flicker Filter</name>
                  <valuemin>0.0</valuemin>
                  <valuemax>1.0</valuemax>
                  <value>0</value>
                </parameter>
              </effect>
            </filter>
            <link>
              <linkclipref>vclipitem-24</linkclipref>
              <mediatype>video</mediatype>
              <trackindex>1</trackindex>
              <clipindex>24</clipindex>
            </link>
          </clipitem>
          <clipitem id="vclipitem-25">
            <masterclipid>masterclip-26</masterclipid>
            <name>arrow_040141_180226.png</name>
            <enabled>TRUE</enabled>
            <duration>250</duration>
            <rate>
              <timebase>50</timebase>
              <ntsc>FALSE</ntsc>
            </rate>
            <start>28050</start>
            <end>28300</end>
            <in>0</in>
            <out>250</out>
            <alphatype>straight</alphatype>
            <pixelaspectratio>square</pixelaspectratio>
            <anamorphic>FALSE</anamorphic>
            <file id="file-26">
              <name>arrow_040141_180226.png</name>
              <pathurl>file:///C:/Users/Nemifist/YandexDisk/PAMPAM/%D0%94%D0%BE%D1%80%D0%BE%D0%B6%D0%BD%D1%8B%D0%B5%20%D0%B7%D0%BD%D0%B0%D0%BA%D0%B8%20%D0%B2%20%D0%9B%D0%B0%D1%82%D0%B2%D0%B8%D0%B8/arrow_040141_180226.png</pathurl>
              <rate>
                <timebase>50</timebase>
                <ntsc>FALSE</ntsc>
              </rate>
              <duration>250</duration>
              <timecode>
                <rate>
                  <timebase>50</timebase>
                  <ntsc>FALSE</ntsc>
                </rate>
                <string>00:00:00:00</string>
                <frame>0</frame>
                <displayformat>NDF</displayformat>
              </timecode>
              <media>
                <video>
                  <samplecharacteristics>
                    <rate>
                      <timebase>50</timebase>
                      <ntsc>FALSE</ntsc>
                    </rate>
                    <width>3840</width>
                    <height>1492</height>
                    <anamorphic>FALSE</anamorphic>
                    <pixelaspectratio>square</pixelaspectratio>
                    <fielddominance>none</fielddominance>
                  </samplecharacteristics>
                </video>
              </media>
            </file>
            <filter>
              <effect>
                <name>Basic Motion</name>
                <effectid>basic</effectid>
                <effectcategory>motion</effectcategory>
                <effecttype>motion</effecttype>
                <mediatype>video</mediatype>
                <pproBypass>false</pproBypass>
                <parameter authoringApp="PremierePro">
                  <parameterid>scale</parameterid>
                  <name>Scale</name>
                  <valuemin>0</valuemin>
                  <valuemax>1000</valuemax>
                  <value>45</value>
                </parameter>
                <parameter authoringApp="PremierePro">
                  <parameterid>rotation</parameterid>
                  <name>Rotation</name>
                  <valuemin>-8640</valuemin>
                  <valuemax>8640</valuemax>
                  <value>0</value>
                </parameter>
                <parameter authoringApp="PremierePro">
                  <parameterid>center</parameterid>
                  <name>Center</name>
                  <value>
                    <horiz>0</horiz>
                    <vert>0</vert>
                  </value>
                </parameter>
                <parameter authoringApp="PremierePro">
                  <parameterid>centerOffset</parameterid>
                  <name>Anchor Point</name>
                  <value>
                    <horiz>0</horiz>
                    <vert>0</vert>
                  </value>
                </parameter>
                <parameter authoringApp="PremierePro">
                  <parameterid>antiflicker</parameterid>
                  <name>Anti-flicker Filter</name>
                  <valuemin>0.0</valuemin>
                  <valuemax>1.0</valuemax>
                  <value>0</value>
                </parameter>
              </effect>
            </filter>
            <link>
              <linkclipref>vclipitem-25</linkclipref>
              <mediatype>video</mediatype>
              <trackindex>1</trackindex>
              <clipindex>25</clipindex>
            </link>
          </clipitem>
          <clipitem id="vclipitem-26">
            <masterclipid>masterclip-27</masterclipid>
            <name>arrow_041203_180226.png</name>
            <enabled>TRUE</enabled>
            <duration>400</duration>
            <rate>
              <timebase>50</timebase>
              <ntsc>FALSE</ntsc>
            </rate>
            <start>29250</start>
            <end>29650</end>
            <in>0</in>
            <out>400</out>
            <alphatype>straight</alphatype>
            <pixelaspectratio>square</pixelaspectratio>
            <anamorphic>FALSE</anamorphic>
            <file id="file-27">
              <name>arrow_041203_180226.png</name>
              <pathurl>file:///C:/Users/Nemifist/YandexDisk/PAMPAM/%D0%94%D0%BE%D1%80%D0%BE%D0%B6%D0%BD%D1%8B%D0%B5%20%D0%B7%D0%BD%D0%B0%D0%BA%D0%B8%20%D0%B2%20%D0%9B%D0%B0%D1%82%D0%B2%D0%B8%D0%B8/arrow_041203_180226.png</pathurl>
              <rate>
                <timebase>50</timebase>
                <ntsc>FALSE</ntsc>
              </rate>
              <duration>400</duration>
              <timecode>
                <rate>
                  <timebase>50</timebase>
                  <ntsc>FALSE</ntsc>
                </rate>
                <string>00:00:00:00</string>
                <frame>0</frame>
                <displayformat>NDF</displayformat>
              </timecode>
              <media>
                <video>
                  <samplecharacteristics>
                    <rate>
                      <timebase>50</timebase>
                      <ntsc>FALSE</ntsc>
                    </rate>
                    <width>3840</width>
                    <height>1920</height>
                    <anamorphic>FALSE</anamorphic>
                    <pixelaspectratio>square</pixelaspectratio>
                    <fielddominance>none</fielddominance>
                  </samplecharacteristics>
                </video>
              </media>
            </file>
            <filter>
              <effect>
                <name>Basic Motion</name>
                <effectid>basic</effectid>
                <effectcategory>motion</effectcategory>
                <effecttype>motion</effecttype>
                <mediatype>video</mediatype>
                <pproBypass>false</pproBypass>
                <parameter authoringApp="PremierePro">
                  <parameterid>scale</parameterid>
                  <name>Scale</name>
                  <valuemin>0</valuemin>
                  <valuemax>1000</valuemax>
                  <value>45</value>
                </parameter>
                <parameter authoringApp="PremierePro">
                  <parameterid>rotation</parameterid>
                  <name>Rotation</name>
                  <valuemin>-8640</valuemin>
                  <valuemax>8640</valuemax>
                  <value>0</value>
                </parameter>
                <parameter authoringApp="PremierePro">
                  <parameterid>center</parameterid>
                  <name>Center</name>
                  <value>
                    <horiz>0</horiz>
                    <vert>0</vert>
                  </value>
                </parameter>
                <parameter authoringApp="PremierePro">
                  <parameterid>centerOffset</parameterid>
                  <name>Anchor Point</name>
                  <value>
                    <horiz>0</horiz>
                    <vert>0</vert>
                  </value>
                </parameter>
                <parameter authoringApp="PremierePro">
                  <parameterid>antiflicker</parameterid>
                  <name>Anti-flicker Filter</name>
                  <valuemin>0.0</valuemin>
                  <valuemax>1.0</valuemax>
                  <value>0</value>
                </parameter>
              </effect>
            </filter>
            <link>
              <linkclipref>vclipitem-26</linkclipref>
              <mediatype>video</mediatype>
              <trackindex>1</trackindex>
              <clipindex>26</clipindex>
            </link>
          </clipitem>
          <clipitem id="vclipitem-27">
            <masterclipid>masterclip-28</masterclipid>
            <name>arrow_160303_180226.png</name>
            <enabled>TRUE</enabled>
            <duration>250</duration>
            <rate>
              <timebase>50</timebase>
              <ntsc>FALSE</ntsc>
            </rate>
            <start>29900</start>
            <end>30150</end>
            <in>0</in>
            <out>250</out>
            <alphatype>straight</alphatype>
            <pixelaspectratio>square</pixelaspectratio>
            <anamorphic>FALSE</anamorphic>
            <file id="file-28">
              <name>arrow_160303_180226.png</name>
              <pathurl>file:///C:/Users/Nemifist/YandexDisk/PAMPAM/%D0%94%D0%BE%D1%80%D0%BE%D0%B6%D0%BD%D1%8B%D0%B5%20%D0%B7%D0%BD%D0%B0%D0%BA%D0%B8%20%D0%B2%20%D0%9B%D0%B0%D1%82%D0%B2%D0%B8%D0%B8/arrow_160303_180226.png</pathurl>
              <rate>
                <timebase>50</timebase>
                <ntsc>FALSE</ntsc>
              </rate>
              <duration>250</duration>
              <timecode>
                <rate>
                  <timebase>50</timebase>
                  <ntsc>FALSE</ntsc>
                </rate>
                <string>00:00:00:00</string>
                <frame>0</frame>
                <displayformat>NDF</displayformat>
              </timecode>
              <media>
                <video>
                  <samplecharacteristics>
                    <rate>
                      <timebase>50</timebase>
                      <ntsc>FALSE</ntsc>
                    </rate>
                    <width>1920</width>
                    <height>1920</height>
                    <anamorphic>FALSE</anamorphic>
                    <pixelaspectratio>square</pixelaspectratio>
                    <fielddominance>none</fielddominance>
                  </samplecharacteristics>
                </video>
              </media>
            </file>
            <filter>
              <effect>
                <name>Basic Motion</name>
                <effectid>basic</effectid>
                <effectcategory>motion</effectcategory>
                <effecttype>motion</effecttype>
                <mediatype>video</mediatype>
                <pproBypass>false</pproBypass>
                <parameter authoringApp="PremierePro">
                  <parameterid>scale</parameterid>
                  <name>Scale</name>
                  <valuemin>0</valuemin>
                  <valuemax>1000</valuemax>
                  <value>50</value>
                </parameter>
                <parameter authoringApp="PremierePro">
                  <parameterid>rotation</parameterid>
                  <name>Rotation</name>
                  <valuemin>-8640</valuemin>
                  <valuemax>8640</valuemax>
                  <value>0</value>
                </parameter>
                <parameter authoringApp="PremierePro">
                  <parameterid>center</parameterid>
                  <name>Center</name>
                  <value>
                    <horiz>-0.25</horiz>
                    <vert>0</vert>
                  </value>
                </parameter>
                <parameter authoringApp="PremierePro">
                  <parameterid>centerOffset</parameterid>
                  <name>Anchor Point</name>
                  <value>
                    <horiz>0</horiz>
                    <vert>0</vert>
                  </value>
                </parameter>
                <parameter authoringApp="PremierePro">
                  <parameterid>antiflicker</parameterid>
                  <name>Anti-flicker Filter</name>
                  <valuemin>0.0</valuemin>
                  <valuemax>1.0</valuemax>
                  <value>0</value>
                </parameter>
              </effect>
            </filter>
            <link>
              <linkclipref>vclipitem-27</linkclipref>
              <mediatype>video</mediatype>
              <trackindex>1</trackindex>
              <clipindex>27</clipindex>
            </link>
          </clipitem>
          <clipitem id="vclipitem-28">
            <masterclipid>masterclip-29</masterclipid>
            <name>arrow_161127_180226.png</name>
            <enabled>TRUE</enabled>
            <duration>250</duration>
            <rate>
              <timebase>50</timebase>
              <ntsc>FALSE</ntsc>
            </rate>
            <start>30150</start>
            <end>30400</end>
            <in>0</in>
            <out>250</out>
            <alphatype>straight</alphatype>
            <pixelaspectratio>square</pixelaspectratio>
            <anamorphic>FALSE</anamorphic>
            <file id="file-29">
              <name>arrow_161127_180226.png</name>
              <pathurl>file:///C:/Users/Nemifist/YandexDisk/PAMPAM/%D0%94%D0%BE%D1%80%D0%BE%D0%B6%D0%BD%D1%8B%D0%B5%20%D0%B7%D0%BD%D0%B0%D0%BA%D0%B8%20%D0%B2%20%D0%9B%D0%B0%D1%82%D0%B2%D0%B8%D0%B8/arrow_161127_180226.png</pathurl>
              <rate>
                <timebase>50</timebase>
                <ntsc>FALSE</ntsc>
              </rate>
              <duration>250</duration>
              <timecode>
                <rate>
                  <timebase>50</timebase>
                  <ntsc>FALSE</ntsc>
                </rate>
                <string>00:00:00:00</string>
                <frame>0</frame>
                <displayformat>NDF</displayformat>
              </timecode>
              <media>
                <video>
                  <samplecharacteristics>
                    <rate>
                      <timebase>50</timebase>
                      <ntsc>FALSE</ntsc>
                    </rate>
                    <width>1920</width>
                    <height>1920</height>
                    <anamorphic>FALSE</anamorphic>
                    <pixelaspectratio>square</pixelaspectratio>
                    <fielddominance>none</fielddominance>
                  </samplecharacteristics>
                </video>
              </media>
            </file>
            <filter>
              <effect>
                <name>Basic Motion</name>
                <effectid>basic</effectid>
                <effectcategory>motion</effectcategory>
                <effecttype>motion</effecttype>
                <mediatype>video</mediatype>
                <pproBypass>false</pproBypass>
                <parameter authoringApp="PremierePro">
                  <parameterid>scale</parameterid>
                  <name>Scale</name>
                  <valuemin>0</valuemin>
                  <valuemax>1000</valuemax>
                  <value>50</value>
                </parameter>
                <parameter authoringApp="PremierePro">
                  <parameterid>rotation</parameterid>
                  <name>Rotation</name>
                  <valuemin>-8640</valuemin>
                  <valuemax>8640</valuemax>
                  <value>0</value>
                </parameter>
                <parameter authoringApp="PremierePro">
                  <parameterid>center</parameterid>
                  <name>Center</name>
                  <value>
                    <horiz>-0.25</horiz>
                    <vert>0</vert>
                  </value>
                </parameter>
                <parameter authoringApp="PremierePro">
                  <parameterid>centerOffset</parameterid>
                  <name>Anchor Point</name>
                  <value>
                    <horiz>0</horiz>
                    <vert>0</vert>
                  </value>
                </parameter>
                <parameter authoringApp="PremierePro">
                  <parameterid>antiflicker</parameterid>
                  <name>Anti-flicker Filter</name>
                  <valuemin>0.0</valuemin>
                  <valuemax>1.0</valuemax>
                  <value>0</value>
                </parameter>
              </effect>
            </filter>
            <link>
              <linkclipref>vclipitem-28</linkclipref>
              <mediatype>video</mediatype>
              <trackindex>1</trackindex>
              <clipindex>28</clipindex>
            </link>
          </clipitem>
          <clipitem id="vclipitem-29">
            <masterclipid>masterclip-30</masterclipid>
            <name>arrow_161553_180226.png</name>
            <enabled>TRUE</enabled>
            <duration>250</duration>
            <rate>
              <timebase>50</timebase>
              <ntsc>FALSE</ntsc>
            </rate>
            <start>30400</start>
            <end>30650</end>
            <in>0</in>
            <out>250</out>
            <alphatype>straight</alphatype>
            <pixelaspectratio>square</pixelaspectratio>
            <anamorphic>FALSE</anamorphic>
            <file id="file-30">
              <name>arrow_161553_180226.png</name>
              <pathurl>file:///C:/Users/Nemifist/YandexDisk/PAMPAM/%D0%94%D0%BE%D1%80%D0%BE%D0%B6%D0%BD%D1%8B%D0%B5%20%D0%B7%D0%BD%D0%B0%D0%BA%D0%B8%20%D0%B2%20%D0%9B%D0%B0%D1%82%D0%B2%D0%B8%D0%B8/arrow_161553_180226.png</pathurl>
              <rate>
                <timebase>50</timebase>
                <ntsc>FALSE</ntsc>
              </rate>
              <duration>250</duration>
              <timecode>
                <rate>
                  <timebase>50</timebase>
                  <ntsc>FALSE</ntsc>
                </rate>
                <string>00:00:00:00</string>
                <frame>0</frame>
                <displayformat>NDF</displayformat>
              </timecode>
              <media>
                <video>
                  <samplecharacteristics>
                    <rate>
                      <timebase>50</timebase>
                      <ntsc>FALSE</ntsc>
                    </rate>
                    <width>1920</width>
                    <height>1920</height>
                    <anamorphic>FALSE</anamorphic>
                    <pixelaspectratio>square</pixelaspectratio>
                    <fielddominance>none</fielddominance>
                  </samplecharacteristics>
                </video>
              </media>
            </file>
            <filter>
              <effect>
                <name>Basic Motion</name>
                <effectid>basic</effectid>
                <effectcategory>motion</effectcategory>
                <effecttype>motion</effecttype>
                <mediatype>video</mediatype>
                <pproBypass>false</pproBypass>
                <parameter authoringApp="PremierePro">
                  <parameterid>scale</parameterid>
                  <name>Scale</name>
                  <valuemin>0</valuemin>
                  <valuemax>1000</valuemax>
                  <value>50</value>
                </parameter>
                <parameter authoringApp="PremierePro">
                  <parameterid>rotation</parameterid>
                  <name>Rotation</name>
                  <valuemin>-8640</valuemin>
                  <valuemax>8640</valuemax>
                  <value>0</value>
                </parameter>
                <parameter authoringApp="PremierePro">
                  <parameterid>center</parameterid>
                  <name>Center</name>
                  <value>
                    <horiz>-0.25</horiz>
                    <vert>0</vert>
                  </value>
                </parameter>
                <parameter authoringApp="PremierePro">
                  <parameterid>centerOffset</parameterid>
                  <name>Anchor Point</name>
                  <value>
                    <horiz>0</horiz>
                    <vert>0</vert>
                  </value>
                </parameter>
                <parameter authoringApp="PremierePro">
                  <parameterid>antiflicker</parameterid>
                  <name>Anti-flicker Filter</name>
                  <valuemin>0.0</valuemin>
                  <valuemax>1.0</valuemax>
                  <value>0</value>
                </parameter>
              </effect>
            </filter>
            <link>
              <linkclipref>vclipitem-29</linkclipref>
              <mediatype>video</mediatype>
              <trackindex>1</trackindex>
              <clipindex>29</clipindex>
            </link>
          </clipitem>
          <clipitem id="vclipitem-30">
            <masterclipid>masterclip-31</masterclipid>
            <name>arrow_163422_180226.png</name>
            <enabled>TRUE</enabled>
            <duration>250</duration>
            <rate>
              <timebase>50</timebase>
              <ntsc>FALSE</ntsc>
            </rate>
            <start>31250</start>
            <end>31500</end>
            <in>0</in>
            <out>250</out>
            <alphatype>straight</alphatype>
            <pixelaspectratio>square</pixelaspectratio>
            <anamorphic>FALSE</anamorphic>
            <file id="file-31">
              <name>arrow_163422_180226.png</name>
              <pathurl>file:///C:/Users/Nemifist/YandexDisk/PAMPAM/%D0%94%D0%BE%D1%80%D0%BE%D0%B6%D0%BD%D1%8B%D0%B5%20%D0%B7%D0%BD%D0%B0%D0%BA%D0%B8%20%D0%B2%20%D0%9B%D0%B0%D1%82%D0%B2%D0%B8%D0%B8/arrow_163422_180226.png</pathurl>
              <rate>
                <timebase>50</timebase>
                <ntsc>FALSE</ntsc>
              </rate>
              <duration>250</duration>
              <timecode>
                <rate>
                  <timebase>50</timebase>
                  <ntsc>FALSE</ntsc>
                </rate>
                <string>00:00:00:00</string>
                <frame>0</frame>
                <displayformat>NDF</displayformat>
              </timecode>
              <media>
                <video>
                  <samplecharacteristics>
                    <rate>
                      <timebase>50</timebase>
                      <ntsc>FALSE</ntsc>
                    </rate>
                    <width>1920</width>
                    <height>960</height>
                    <anamorphic>FALSE</anamorphic>
                    <pixelaspectratio>square</pixelaspectratio>
                    <fielddominance>none</fielddominance>
                  </samplecharacteristics>
                </video>
              </media>
            </file>
            <filter>
              <effect>
                <name>Basic Motion</name>
                <effectid>basic</effectid>
                <effectcategory>motion</effectcategory>
                <effecttype>motion</effecttype>
                <mediatype>video</mediatype>
                <pproBypass>false</pproBypass>
                <parameter authoringApp="PremierePro">
                  <parameterid>scale</parameterid>
                  <name>Scale</name>
                  <valuemin>0</valuemin>
                  <valuemax>1000</valuemax>
                  <value>90</value>
                </parameter>
                <parameter authoringApp="PremierePro">
                  <parameterid>rotation</parameterid>
                  <name>Rotation</name>
                  <valuemin>-8640</valuemin>
                  <valuemax>8640</valuemax>
                  <value>0</value>
                </parameter>
                <parameter authoringApp="PremierePro">
                  <parameterid>center</parameterid>
                  <name>Center</name>
                  <value>
                    <horiz>0</horiz>
                    <vert>0</vert>
                  </value>
                </parameter>
                <parameter authoringApp="PremierePro">
                  <parameterid>centerOffset</parameterid>
                  <name>Anchor Point</name>
                  <value>
                    <horiz>0</horiz>
                    <vert>0</vert>
                  </value>
                </parameter>
                <parameter authoringApp="PremierePro">
                  <parameterid>antiflicker</parameterid>
                  <name>Anti-flicker Filter</name>
                  <valuemin>0.0</valuemin>
                  <valuemax>1.0</valuemax>
                  <value>0</value>
                </parameter>
              </effect>
            </filter>
            <link>
              <linkclipref>vclipitem-30</linkclipref>
              <mediatype>video</mediatype>
              <trackindex>1</trackindex>
              <clipindex>30</clipindex>
            </link>
          </clipitem>
          <clipitem id="vclipitem-31">
            <masterclipid>masterclip-32</masterclipid>
            <name>Заголовок НДС.png</name>
            <enabled>TRUE</enabled>
            <duration>500</duration>
            <rate>
              <timebase>50</timebase>
              <ntsc>FALSE</ntsc>
            </rate>
            <start>34150</start>
            <end>34650</end>
            <in>0</in>
            <out>500</out>
            <alphatype>straight</alphatype>
            <pixelaspectratio>square</pixelaspectratio>
            <anamorphic>FALSE</anamorphic>
            <file id="file-32">
              <name>Заголовок НДС.png</name>
              <pathurl>file:///C:/Users/Nemifist/YandexDisk/PAMPAM/%D0%9D%D0%94%D0%A1%20%D0%BC%D0%B0%D1%80%D0%BA%D0%B5%D1%82%D0%BF%D0%BB%D0%B5%D0%B9%D1%81/%D0%97%D0%B0%D0%B3%D0%BE%D0%BB%D0%BE%D0%B2%D0%BE%D0%BA%20%D0%9D%D0%94%D0%A1.png</pathurl>
              <rate>
                <timebase>50</timebase>
                <ntsc>FALSE</ntsc>
              </rate>
              <duration>500</duration>
              <timecode>
                <rate>
                  <timebase>50</timebase>
                  <ntsc>FALSE</ntsc>
                </rate>
                <string>00:00:00:00</string>
                <frame>0</frame>
                <displayformat>NDF</displayformat>
              </timecode>
              <media>
                <video>
                  <samplecharacteristics>
                    <rate>
                      <timebase>50</timebase>
                      <ntsc>FALSE</ntsc>
                    </rate>
                    <width>1920</width>
                    <height>960</height>
                    <anamorphic>FALSE</anamorphic>
                    <pixelaspectratio>square</pixelaspectratio>
                    <fielddominance>none</fielddominance>
                  </samplecharacteristics>
                </video>
              </media>
            </file>
            <filter>
              <effect>
                <name>Basic Motion</name>
                <effectid>basic</effectid>
                <effectcategory>motion</effectcategory>
                <effecttype>motion</effecttype>
                <mediatype>video</mediatype>
                <pproBypass>false</pproBypass>
                <parameter authoringApp="PremierePro">
                  <parameterid>scale</parameterid>
                  <name>Scale</name>
                  <valuemin>0</valuemin>
                  <valuemax>1000</valuemax>
                  <value>90</value>
                </parameter>
                <parameter authoringApp="PremierePro">
                  <parameterid>rotation</parameterid>
                  <name>Rotation</name>
                  <valuemin>-8640</valuemin>
                  <valuemax>8640</valuemax>
                  <value>0</value>
                </parameter>
                <parameter authoringApp="PremierePro">
                  <parameterid>center</parameterid>
                  <name>Center</name>
                  <value>
                    <horiz>0</horiz>
                    <vert>0</vert>
                  </value>
                </parameter>
                <parameter authoringApp="PremierePro">
                  <parameterid>centerOffset</parameterid>
                  <name>Anchor Point</name>
                  <value>
                    <horiz>0</horiz>
                    <vert>0</vert>
                  </value>
                </parameter>
                <parameter authoringApp="PremierePro">
                  <parameterid>antiflicker</parameterid>
                  <name>Anti-flicker Filter</name>
                  <valuemin>0.0</valuemin>
                  <valuemax>1.0</valuemax>
                  <value>0</value>
                </parameter>
              </effect>
            </filter>
            <link>
              <linkclipref>vclipitem-31</linkclipref>
              <mediatype>video</mediatype>
              <trackindex>1</trackindex>
              <clipindex>31</clipindex>
            </link>
          </clipitem>
          <clipitem id="vclipitem-32">
            <masterclipid>masterclip-33</masterclipid>
            <name>arrow_102205_190226.png</name>
            <enabled>TRUE</enabled>
            <duration>500</duration>
            <rate>
              <timebase>50</timebase>
              <ntsc>FALSE</ntsc>
            </rate>
            <start>34850</start>
            <end>35350</end>
            <in>0</in>
            <out>500</out>
            <alphatype>straight</alphatype>
            <pixelaspectratio>square</pixelaspectratio>
            <anamorphic>FALSE</anamorphic>
            <file id="file-33">
              <name>arrow_102205_190226.png</name>
              <pathurl>file:///C:/Users/Nemifist/YandexDisk/PAMPAM/%D0%9D%D0%94%D0%A1%20%D0%BC%D0%B0%D1%80%D0%BA%D0%B5%D1%82%D0%BF%D0%BB%D0%B5%D0%B9%D1%81/arrow_102205_190226.png</pathurl>
              <rate>
                <timebase>50</timebase>
                <ntsc>FALSE</ntsc>
              </rate>
              <duration>500</duration>
              <timecode>
                <rate>
                  <timebase>50</timebase>
                  <ntsc>FALSE</ntsc>
                </rate>
                <string>00:00:00:00</string>
                <frame>0</frame>
                <displayformat>NDF</displayformat>
              </timecode>
              <media>
                <video>
                  <samplecharacteristics>
                    <rate>
                      <timebase>50</timebase>
                      <ntsc>FALSE</ntsc>
                    </rate>
                    <width>1080</width>
                    <height>1080</height>
                    <anamorphic>FALSE</anamorphic>
                    <pixelaspectratio>square</pixelaspectratio>
                    <fielddominance>none</fielddominance>
                  </samplecharacteristics>
                </video>
              </media>
            </file>
            <filter>
              <effect>
                <name>Basic Motion</name>
                <effectid>basic</effectid>
                <effectcategory>motion</effectcategory>
                <effecttype>motion</effecttype>
                <mediatype>video</mediatype>
                <pproBypass>false</pproBypass>
                <parameter authoringApp="PremierePro">
                  <parameterid>scale</parameterid>
                  <name>Scale</name>
                  <valuemin>0</valuemin>
                  <valuemax>1000</valuemax>
                  <value>88.9</value>
                </parameter>
                <parameter authoringApp="PremierePro">
                  <parameterid>rotation</parameterid>
                  <name>Rotation</name>
                  <valuemin>-8640</valuemin>
                  <valuemax>8640</valuemax>
                  <value>0</value>
                </parameter>
                <parameter authoringApp="PremierePro">
                  <parameterid>center</parameterid>
                  <name>Center</name>
                  <value>
                    <horiz>-0.25</horiz>
                    <vert>0</vert>
                  </value>
                </parameter>
                <parameter authoringApp="PremierePro">
                  <parameterid>centerOffset</parameterid>
                  <name>Anchor Point</name>
                  <value>
                    <horiz>0</horiz>
                    <vert>0</vert>
                  </value>
                </parameter>
                <parameter authoringApp="PremierePro">
                  <parameterid>antiflicker</parameterid>
                  <name>Anti-flicker Filter</name>
                  <valuemin>0.0</valuemin>
                  <valuemax>1.0</valuemax>
                  <value>0</value>
                </parameter>
              </effect>
            </filter>
            <link>
              <linkclipref>vclipitem-32</linkclipref>
              <mediatype>video</mediatype>
              <trackindex>1</trackindex>
              <clipindex>32</clipindex>
            </link>
          </clipitem>
          <clipitem id="vclipitem-33">
            <masterclipid>masterclip-34</masterclipid>
            <name>arrow_102754_190226.png</name>
            <enabled>TRUE</enabled>
            <duration>250</duration>
            <rate>
              <timebase>50</timebase>
              <ntsc>FALSE</ntsc>
            </rate>
            <start>35550</start>
            <end>35800</end>
            <in>0</in>
            <out>250</out>
            <alphatype>straight</alphatype>
            <pixelaspectratio>square</pixelaspectratio>
            <anamorphic>FALSE</anamorphic>
            <file id="file-34">
              <name>arrow_102754_190226.png</name>
              <pathurl>file:///C:/Users/Nemifist/YandexDisk/PAMPAM/%D0%9D%D0%94%D0%A1%20%D0%BC%D0%B0%D1%80%D0%BA%D0%B5%D1%82%D0%BF%D0%BB%D0%B5%D0%B9%D1%81/arrow_102754_190226.png</pathurl>
              <rate>
                <timebase>50</timebase>
                <ntsc>FALSE</ntsc>
              </rate>
              <duration>250</duration>
              <timecode>
                <rate>
                  <timebase>50</timebase>
                  <ntsc>FALSE</ntsc>
                </rate>
                <string>00:00:00:00</string>
                <frame>0</frame>
                <displayformat>NDF</displayformat>
              </timecode>
              <media>
                <video>
                  <samplecharacteristics>
                    <rate>
                      <timebase>50</timebase>
                      <ntsc>FALSE</ntsc>
                    </rate>
                    <width>3840</width>
                    <height>1315</height>
                    <anamorphic>FALSE</anamorphic>
                    <pixelaspectratio>square</pixelaspectratio>
                    <fielddominance>none</fielddominance>
                  </samplecharacteristics>
                </video>
              </media>
            </file>
            <filter>
              <effect>
                <name>Basic Motion</name>
                <effectid>basic</effectid>
                <effectcategory>motion</effectcategory>
                <effecttype>motion</effecttype>
                <mediatype>video</mediatype>
                <pproBypass>false</pproBypass>
                <parameter authoringApp="PremierePro">
                  <parameterid>scale</parameterid>
                  <name>Scale</name>
                  <valuemin>0</valuemin>
                  <valuemax>1000</valuemax>
                  <value>45</value>
                </parameter>
                <parameter authoringApp="PremierePro">
                  <parameterid>rotation</parameterid>
                  <name>Rotation</name>
                  <valuemin>-8640</valuemin>
                  <valuemax>8640</valuemax>
                  <value>0</value>
                </parameter>
                <parameter authoringApp="PremierePro">
                  <parameterid>center</parameterid>
                  <name>Center</name>
                  <value>
                    <horiz>0</horiz>
                    <vert>0</vert>
                  </value>
                </parameter>
                <parameter authoringApp="PremierePro">
                  <parameterid>centerOffset</parameterid>
                  <name>Anchor Point</name>
                  <value>
                    <horiz>0</horiz>
                    <vert>0</vert>
                  </value>
                </parameter>
                <parameter authoringApp="PremierePro">
                  <parameterid>antiflicker</parameterid>
                  <name>Anti-flicker Filter</name>
                  <valuemin>0.0</valuemin>
                  <valuemax>1.0</valuemax>
                  <value>0</value>
                </parameter>
              </effect>
            </filter>
            <link>
              <linkclipref>vclipitem-33</linkclipref>
              <mediatype>video</mediatype>
              <trackindex>1</trackindex>
              <clipindex>33</clipindex>
            </link>
          </clipitem>
          <clipitem id="vclipitem-34">
            <masterclipid>masterclip-35</masterclipid>
            <name>arrow_012121_190226.png</name>
            <enabled>TRUE</enabled>
            <duration>400</duration>
            <rate>
              <timebase>50</timebase>
              <ntsc>FALSE</ntsc>
            </rate>
            <start>36800</start>
            <end>37200</end>
            <in>0</in>
            <out>400</out>
            <alphatype>straight</alphatype>
            <pixelaspectratio>square</pixelaspectratio>
            <anamorphic>FALSE</anamorphic>
            <file id="file-35">
              <name>arrow_012121_190226.png</name>
              <pathurl>file:///C:/Users/Nemifist/YandexDisk/PAMPAM/%D0%A4%D0%A1%D0%91%20%D0%BE%D1%82%D0%BA%D0%BB%D1%8E%D1%87%D0%B5%D0%BD%D0%B8%D0%B5%20%D1%81%D0%B2%D1%8F%D0%B7%D0%B8/arrow_012121_190226.png</pathurl>
              <rate>
                <timebase>50</timebase>
                <ntsc>FALSE</ntsc>
              </rate>
              <duration>400</duration>
              <timecode>
                <rate>
                  <timebase>50</timebase>
                  <ntsc>FALSE</ntsc>
                </rate>
                <string>00:00:00:00</string>
                <frame>0</frame>
                <displayformat>NDF</displayformat>
              </timecode>
              <media>
                <video>
                  <samplecharacteristics>
                    <rate>
                      <timebase>50</timebase>
                      <ntsc>FALSE</ntsc>
                    </rate>
                    <width>1922</width>
                    <height>964</height>
                    <anamorphic>FALSE</anamorphic>
                    <pixelaspectratio>square</pixelaspectratio>
                    <fielddominance>none</fielddominance>
                  </samplecharacteristics>
                </video>
              </media>
            </file>
            <filter>
              <effect>
                <name>Basic Motion</name>
                <effectid>basic</effectid>
                <effectcategory>motion</effectcategory>
                <effecttype>motion</effecttype>
                <mediatype>video</mediatype>
                <pproBypass>false</pproBypass>
                <parameter authoringApp="PremierePro">
                  <parameterid>scale</parameterid>
                  <name>Scale</name>
                  <valuemin>0</valuemin>
                  <valuemax>1000</valuemax>
                  <value>100</value>
                </parameter>
                <parameter authoringApp="PremierePro">
                  <parameterid>rotation</parameterid>
                  <name>Rotation</name>
                  <valuemin>-8640</valuemin>
                  <valuemax>8640</valuemax>
                  <value>0</value>
                </parameter>
                <parameter authoringApp="PremierePro">
                  <parameterid>center</parameterid>
                  <name>Center</name>
                  <value>
                    <horiz>0</horiz>
                    <vert>0</vert>
                  </value>
                </parameter>
                <parameter authoringApp="PremierePro">
                  <parameterid>centerOffset</parameterid>
                  <name>Anchor Point</name>
                  <value>
                    <horiz>0</horiz>
                    <vert>0</vert>
                  </value>
                </parameter>
                <parameter authoringApp="PremierePro">
                  <parameterid>antiflicker</parameterid>
                  <name>Anti-flicker Filter</name>
                  <valuemin>0.0</valuemin>
                  <valuemax>1.0</valuemax>
                  <value>0</value>
                </parameter>
              </effect>
            </filter>
            <link>
              <linkclipref>vclipitem-34</linkclipref>
              <mediatype>video</mediatype>
              <trackindex>1</trackindex>
              <clipindex>34</clipindex>
            </link>
          </clipitem>
          <clipitem id="vclipitem-35">
            <masterclipid>masterclip-36</masterclipid>
            <name>arrow_013608_190226.png</name>
            <enabled>TRUE</enabled>
            <duration>500</duration>
            <rate>
              <timebase>50</timebase>
              <ntsc>FALSE</ntsc>
            </rate>
            <start>37200</start>
            <end>37700</end>
            <in>0</in>
            <out>500</out>
            <alphatype>straight</alphatype>
            <pixelaspectratio>square</pixelaspectratio>
            <anamorphic>FALSE</anamorphic>
            <file id="file-36">
              <name>arrow_013608_190226.png</name>
              <pathurl>file:///C:/Users/Nemifist/YandexDisk/PAMPAM/%D0%A4%D0%A1%D0%91%20%D0%BE%D1%82%D0%BA%D0%BB%D1%8E%D1%87%D0%B5%D0%BD%D0%B8%D0%B5%20%D1%81%D0%B2%D1%8F%D0%B7%D0%B8/arrow_013608_190226.png</pathurl>
              <rate>
                <timebase>50</timebase>
                <ntsc>FALSE</ntsc>
              </rate>
              <duration>500</duration>
              <timecode>
                <rate>
                  <timebase>50</timebase>
                  <ntsc>FALSE</ntsc>
                </rate>
                <string>00:00:00:00</string>
                <frame>0</frame>
                <displayformat>NDF</displayformat>
              </timecode>
              <media>
                <video>
                  <samplecharacteristics>
                    <rate>
                      <timebase>50</timebase>
                      <ntsc>FALSE</ntsc>
                    </rate>
                    <width>1920</width>
                    <height>1920</height>
                    <anamorphic>FALSE</anamorphic>
                    <pixelaspectratio>square</pixelaspectratio>
                    <fielddominance>none</fielddominance>
                  </samplecharacteristics>
                </video>
              </media>
            </file>
            <filter>
              <effect>
                <name>Basic Motion</name>
                <effectid>basic</effectid>
                <effectcategory>motion</effectcategory>
                <effecttype>motion</effecttype>
                <mediatype>video</mediatype>
                <pproBypass>false</pproBypass>
                <parameter authoringApp="PremierePro">
                  <parameterid>scale</parameterid>
                  <name>Scale</name>
                  <valuemin>0</valuemin>
                  <valuemax>1000</valuemax>
                  <value>50</value>
                </parameter>
                <parameter authoringApp="PremierePro">
                  <parameterid>rotation</parameterid>
                  <name>Rotation</name>
                  <valuemin>-8640</valuemin>
                  <valuemax>8640</valuemax>
                  <value>0</value>
                </parameter>
                <parameter authoringApp="PremierePro">
                  <parameterid>center</parameterid>
                  <name>Center</name>
                  <value>
                    <horiz>-0.25</horiz>
                    <vert>0</vert>
                  </value>
                </parameter>
                <parameter authoringApp="PremierePro">
                  <parameterid>centerOffset</parameterid>
                  <name>Anchor Point</name>
                  <value>
                    <horiz>0</horiz>
                    <vert>0</vert>
                  </value>
                </parameter>
                <parameter authoringApp="PremierePro">
                  <parameterid>antiflicker</parameterid>
                  <name>Anti-flicker Filter</name>
                  <valuemin>0.0</valuemin>
                  <valuemax>1.0</valuemax>
                  <value>0</value>
                </parameter>
              </effect>
            </filter>
            <link>
              <linkclipref>vclipitem-35</linkclipref>
              <mediatype>video</mediatype>
              <trackindex>1</trackindex>
              <clipindex>35</clipindex>
            </link>
          </clipitem>
          <clipitem id="vclipitem-36">
            <masterclipid>masterclip-37</masterclipid>
            <name>arrow_015039_190226.png</name>
            <enabled>TRUE</enabled>
            <duration>400</duration>
            <rate>
              <timebase>50</timebase>
              <ntsc>FALSE</ntsc>
            </rate>
            <start>38700</start>
            <end>39100</end>
            <in>0</in>
            <out>400</out>
            <alphatype>straight</alphatype>
            <pixelaspectratio>square</pixelaspectratio>
            <anamorphic>FALSE</anamorphic>
            <file id="file-37">
              <name>arrow_015039_190226.png</name>
              <pathurl>file:///C:/Users/Nemifist/YandexDisk/PAMPAM/%D0%A4%D0%A1%D0%91%20%D0%BE%D1%82%D0%BA%D0%BB%D1%8E%D1%87%D0%B5%D0%BD%D0%B8%D0%B5%20%D1%81%D0%B2%D1%8F%D0%B7%D0%B8/arrow_015039_190226.png</pathurl>
              <rate>
                <timebase>50</timebase>
                <ntsc>FALSE</ntsc>
              </rate>
              <duration>400</duration>
              <timecode>
                <rate>
                  <timebase>50</timebase>
                  <ntsc>FALSE</ntsc>
                </rate>
                <string>00:00:00:00</string>
                <frame>0</frame>
                <displayformat>NDF</displayformat>
              </timecode>
              <media>
                <video>
                  <samplecharacteristics>
                    <rate>
                      <timebase>50</timebase>
                      <ntsc>FALSE</ntsc>
                    </rate>
                    <width>3840</width>
                    <height>1597</height>
                    <anamorphic>FALSE</anamorphic>
                    <pixelaspectratio>square</pixelaspectratio>
                    <fielddominance>none</fielddominance>
                  </samplecharacteristics>
                </video>
              </media>
            </file>
            <filter>
              <effect>
                <name>Basic Motion</name>
                <effectid>basic</effectid>
                <effectcategory>motion</effectcategory>
                <effecttype>motion</effecttype>
                <mediatype>video</mediatype>
                <pproBypass>false</pproBypass>
                <parameter authoringApp="PremierePro">
                  <parameterid>scale</parameterid>
                  <name>Scale</name>
                  <valuemin>0</valuemin>
                  <valuemax>1000</valuemax>
                  <value>45</value>
                </parameter>
                <parameter authoringApp="PremierePro">
                  <parameterid>rotation</parameterid>
                  <name>Rotation</name>
                  <valuemin>-8640</valuemin>
                  <valuemax>8640</valuemax>
                  <value>0</value>
                </parameter>
                <parameter authoringApp="PremierePro">
                  <parameterid>center</parameterid>
                  <name>Center</name>
                  <value>
                    <horiz>0</horiz>
                    <vert>0</vert>
                  </value>
                </parameter>
                <parameter authoringApp="PremierePro">
                  <parameterid>centerOffset</parameterid>
                  <name>Anchor Point</name>
                  <value>
                    <horiz>0</horiz>
                    <vert>0</vert>
                  </value>
                </parameter>
                <parameter authoringApp="PremierePro">
                  <parameterid>antiflicker</parameterid>
                  <name>Anti-flicker Filter</name>
                  <valuemin>0.0</valuemin>
                  <valuemax>1.0</valuemax>
                  <value>0</value>
                </parameter>
              </effect>
            </filter>
            <link>
              <linkclipref>vclipitem-36</linkclipref>
              <mediatype>video</mediatype>
              <trackindex>1</trackindex>
              <clipindex>36</clipindex>
            </link>
          </clipitem>
          <clipitem id="vclipitem-37">
            <masterclipid>masterclip-38</masterclipid>
            <name>arrow_015659_190226.png</name>
            <enabled>TRUE</enabled>
            <duration>700</duration>
            <rate>
              <timebase>50</timebase>
              <ntsc>FALSE</ntsc>
            </rate>
            <start>39650</start>
            <end>40350</end>
            <in>0</in>
            <out>700</out>
            <alphatype>straight</alphatype>
            <pixelaspectratio>square</pixelaspectratio>
            <anamorphic>FALSE</anamorphic>
            <file id="file-38">
              <name>arrow_015659_190226.png</name>
              <pathurl>file:///C:/Users/Nemifist/YandexDisk/PAMPAM/%D0%A4%D0%A1%D0%91%20%D0%BE%D1%82%D0%BA%D0%BB%D1%8E%D1%87%D0%B5%D0%BD%D0%B8%D0%B5%20%D1%81%D0%B2%D1%8F%D0%B7%D0%B8/arrow_015659_190226.png</pathurl>
              <rate>
                <timebase>50</timebase>
                <ntsc>FALSE</ntsc>
              </rate>
              <duration>700</duration>
              <timecode>
                <rate>
                  <timebase>50</timebase>
                  <ntsc>FALSE</ntsc>
                </rate>
                <string>00:00:00:00</string>
                <frame>0</frame>
                <displayformat>NDF</displayformat>
              </timecode>
              <media>
                <video>
                  <samplecharacteristics>
                    <rate>
                      <timebase>50</timebase>
                      <ntsc>FALSE</ntsc>
                    </rate>
                    <width>1920</width>
                    <height>1920</height>
                    <anamorphic>FALSE</anamorphic>
                    <pixelaspectratio>square</pixelaspectratio>
                    <fielddominance>none</fielddominance>
                  </samplecharacteristics>
                </video>
              </media>
            </file>
            <filter>
              <effect>
                <name>Basic Motion</name>
                <effectid>basic</effectid>
                <effectcategory>motion</effectcategory>
                <effecttype>motion</effecttype>
                <mediatype>video</mediatype>
                <pproBypass>false</pproBypass>
                <parameter authoringApp="PremierePro">
                  <parameterid>scale</parameterid>
                  <name>Scale</name>
                  <valuemin>0</valuemin>
                  <valuemax>1000</valuemax>
                  <value>50</value>
                </parameter>
                <parameter authoringApp="PremierePro">
                  <parameterid>rotation</parameterid>
                  <name>Rotation</name>
                  <valuemin>-8640</valuemin>
                  <valuemax>8640</valuemax>
                  <value>0</value>
                </parameter>
                <parameter authoringApp="PremierePro">
                  <parameterid>center</parameterid>
                  <name>Center</name>
                  <value>
                    <horiz>-0.25</horiz>
                    <vert>0</vert>
                  </value>
                </parameter>
                <parameter authoringApp="PremierePro">
                  <parameterid>centerOffset</parameterid>
                  <name>Anchor Point</name>
                  <value>
                    <horiz>0</horiz>
                    <vert>0</vert>
                  </value>
                </parameter>
                <parameter authoringApp="PremierePro">
                  <parameterid>antiflicker</parameterid>
                  <name>Anti-flicker Filter</name>
                  <valuemin>0.0</valuemin>
                  <valuemax>1.0</valuemax>
                  <value>0</value>
                </parameter>
              </effect>
            </filter>
            <link>
              <linkclipref>vclipitem-37</linkclipref>
              <mediatype>video</mediatype>
              <trackindex>1</trackindex>
              <clipindex>37</clipindex>
            </link>
          </clipitem>
          <clipitem id="vclipitem-38">
            <masterclipid>masterclip-39</masterclipid>
            <name>arrow_002943_190226.png</name>
            <enabled>TRUE</enabled>
            <duration>700</duration>
            <rate>
              <timebase>50</timebase>
              <ntsc>FALSE</ntsc>
            </rate>
            <start>48100</start>
            <end>48800</end>
            <in>0</in>
            <out>700</out>
            <alphatype>straight</alphatype>
            <pixelaspectratio>square</pixelaspectratio>
            <anamorphic>FALSE</anamorphic>
            <file id="file-39">
              <name>arrow_002943_190226.png</name>
              <pathurl>file:///C:/Users/Nemifist/YandexDisk/PAMPAM/MetaLLM/arrow_002943_190226.png</pathurl>
              <rate>
                <timebase>50</timebase>
                <ntsc>FALSE</ntsc>
              </rate>
              <duration>700</duration>
              <timecode>
                <rate>
                  <timebase>50</timebase>
                  <ntsc>FALSE</ntsc>
                </rate>
                <string>00:00:00:00</string>
                <frame>0</frame>
                <displayformat>NDF</displayformat>
              </timecode>
              <media>
                <video>
                  <samplecharacteristics>
                    <rate>
                      <timebase>50</timebase>
                      <ntsc>FALSE</ntsc>
                    </rate>
                    <width>2358</width>
                    <height>2358</height>
                    <anamorphic>FALSE</anamorphic>
                    <pixelaspectratio>square</pixelaspectratio>
                    <fielddominance>none</fielddominance>
                  </samplecharacteristics>
                </video>
              </media>
            </file>
            <filter>
              <effect>
                <name>Basic Motion</name>
                <effectid>basic</effectid>
                <effectcategory>motion</effectcategory>
                <effecttype>motion</effecttype>
                <mediatype>video</mediatype>
                <pproBypass>false</pproBypass>
                <parameter authoringApp="PremierePro">
                  <parameterid>scale</parameterid>
                  <name>Scale</name>
                  <valuemin>0</valuemin>
                  <valuemax>1000</valuemax>
                  <value>40.7</value>
                </parameter>
                <parameter authoringApp="PremierePro">
                  <parameterid>rotation</parameterid>
                  <name>Rotation</name>
                  <valuemin>-8640</valuemin>
                  <valuemax>8640</valuemax>
                  <value>0</value>
                </parameter>
                <parameter authoringApp="PremierePro">
                  <parameterid>center</parameterid>
                  <name>Center</name>
                  <value>
                    <horiz>-0.25</horiz>
                    <vert>0</vert>
                  </value>
                </parameter>
                <parameter authoringApp="PremierePro">
                  <parameterid>centerOffset</parameterid>
                  <name>Anchor Point</name>
                  <value>
                    <horiz>0</horiz>
                    <vert>0</vert>
                  </value>
                </parameter>
                <parameter authoringApp="PremierePro">
                  <parameterid>antiflicker</parameterid>
                  <name>Anti-flicker Filter</name>
                  <valuemin>0.0</valuemin>
                  <valuemax>1.0</valuemax>
                  <value>0</value>
                </parameter>
              </effect>
            </filter>
            <link>
              <linkclipref>vclipitem-38</linkclipref>
              <mediatype>video</mediatype>
              <trackindex>1</trackindex>
              <clipindex>38</clipindex>
            </link>
          </clipitem>
          <clipitem id="vclipitem-39">
            <masterclipid>masterclip-40</masterclipid>
            <name>arrow_003006_190226.png</name>
            <enabled>TRUE</enabled>
            <duration>550</duration>
            <rate>
              <timebase>50</timebase>
              <ntsc>FALSE</ntsc>
            </rate>
            <start>48800</start>
            <end>49350</end>
            <in>0</in>
            <out>550</out>
            <alphatype>straight</alphatype>
            <pixelaspectratio>square</pixelaspectratio>
            <anamorphic>FALSE</anamorphic>
            <file id="file-40">
              <name>arrow_003006_190226.png</name>
              <pathurl>file:///C:/Users/Nemifist/YandexDisk/PAMPAM/MetaLLM/arrow_003006_190226.png</pathurl>
              <rate>
                <timebase>50</timebase>
                <ntsc>FALSE</ntsc>
              </rate>
              <duration>550</duration>
              <timecode>
                <rate>
                  <timebase>50</timebase>
                  <ntsc>FALSE</ntsc>
                </rate>
                <string>00:00:00:00</string>
                <frame>0</frame>
                <displayformat>NDF</displayformat>
              </timecode>
              <media>
                <video>
                  <samplecharacteristics>
                    <rate>
                      <timebase>50</timebase>
                      <ntsc>FALSE</ntsc>
                    </rate>
                    <width>2358</width>
                    <height>2358</height>
                    <anamorphic>FALSE</anamorphic>
                    <pixelaspectratio>square</pixelaspectratio>
                    <fielddominance>none</fielddominance>
                  </samplecharacteristics>
                </video>
              </media>
            </file>
            <filter>
              <effect>
                <name>Basic Motion</name>
                <effectid>basic</effectid>
                <effectcategory>motion</effectcategory>
                <effecttype>motion</effecttype>
                <mediatype>video</mediatype>
                <pproBypass>false</pproBypass>
                <parameter authoringApp="PremierePro">
                  <parameterid>scale</parameterid>
                  <name>Scale</name>
                  <valuemin>0</valuemin>
                  <valuemax>1000</valuemax>
                  <value>40.7</value>
                </parameter>
                <parameter authoringApp="PremierePro">
                  <parameterid>rotation</parameterid>
                  <name>Rotation</name>
                  <valuemin>-8640</valuemin>
                  <valuemax>8640</valuemax>
                  <value>0</value>
                </parameter>
                <parameter authoringApp="PremierePro">
                  <parameterid>center</parameterid>
                  <name>Center</name>
                  <value>
                    <horiz>-0.25</horiz>
                    <vert>0</vert>
                  </value>
                </parameter>
                <parameter authoringApp="PremierePro">
                  <parameterid>centerOffset</parameterid>
                  <name>Anchor Point</name>
                  <value>
                    <horiz>0</horiz>
                    <vert>0</vert>
                  </value>
                </parameter>
                <parameter authoringApp="PremierePro">
                  <parameterid>antiflicker</parameterid>
                  <name>Anti-flicker Filter</name>
                  <valuemin>0.0</valuemin>
                  <valuemax>1.0</valuemax>
                  <value>0</value>
                </parameter>
              </effect>
            </filter>
            <link>
              <linkclipref>vclipitem-39</linkclipref>
              <mediatype>video</mediatype>
              <trackindex>1</trackindex>
              <clipindex>39</clipindex>
            </link>
          </clipitem>
          <clipitem id="vclipitem-40">
            <masterclipid>masterclip-41</masterclipid>
            <name>arrow_003814_190226.png</name>
            <enabled>TRUE</enabled>
            <duration>250</duration>
            <rate>
              <timebase>50</timebase>
              <ntsc>FALSE</ntsc>
            </rate>
            <start>51800</start>
            <end>52050</end>
            <in>0</in>
            <out>250</out>
            <alphatype>straight</alphatype>
            <pixelaspectratio>square</pixelaspectratio>
            <anamorphic>FALSE</anamorphic>
            <file id="file-41">
              <name>arrow_003814_190226.png</name>
              <pathurl>file:///C:/Users/Nemifist/YandexDisk/PAMPAM/MetaLLM/arrow_003814_190226.png</pathurl>
              <rate>
                <timebase>50</timebase>
                <ntsc>FALSE</ntsc>
              </rate>
              <duration>250</duration>
              <timecode>
                <rate>
                  <timebase>50</timebase>
                  <ntsc>FALSE</ntsc>
                </rate>
                <string>00:00:00:00</string>
                <frame>0</frame>
                <displayformat>NDF</displayformat>
              </timecode>
              <media>
                <video>
                  <samplecharacteristics>
                    <rate>
                      <timebase>50</timebase>
                      <ntsc>FALSE</ntsc>
                    </rate>
                    <width>8192</width>
                    <height>2320</height>
                    <anamorphic>FALSE</anamorphic>
                    <pixelaspectratio>square</pixelaspectratio>
                    <fielddominance>none</fielddominance>
                  </samplecharacteristics>
                </video>
              </media>
            </file>
            <filter>
              <effect>
                <name>Basic Motion</name>
                <effectid>basic</effectid>
                <effectcategory>motion</effectcategory>
                <effecttype>motion</effecttype>
                <mediatype>video</mediatype>
                <pproBypass>false</pproBypass>
                <parameter authoringApp="PremierePro">
                  <parameterid>scale</parameterid>
                  <name>Scale</name>
                  <valuemin>0</valuemin>
                  <valuemax>1000</valuemax>
                  <value>100</value>
                </parameter>
                <parameter authoringApp="PremierePro">
                  <parameterid>rotation</parameterid>
                  <name>Rotation</name>
                  <valuemin>-8640</valuemin>
                  <valuemax>8640</valuemax>
                  <value>0</value>
                </parameter>
                <parameter authoringApp="PremierePro">
                  <parameterid>center</parameterid>
                  <name>Center</name>
                  <value>
                    <horiz>0</horiz>
                    <vert>0</vert>
                  </value>
                </parameter>
                <parameter authoringApp="PremierePro">
                  <parameterid>centerOffset</parameterid>
                  <name>Anchor Point</name>
                  <value>
                    <horiz>0</horiz>
                    <vert>0</vert>
                  </value>
                </parameter>
                <parameter authoringApp="PremierePro">
                  <parameterid>antiflicker</parameterid>
                  <name>Anti-flicker Filter</name>
                  <valuemin>0.0</valuemin>
                  <valuemax>1.0</valuemax>
                  <value>0</value>
                </parameter>
              </effect>
            </filter>
            <link>
              <linkclipref>vclipitem-40</linkclipref>
              <mediatype>video</mediatype>
              <trackindex>1</trackindex>
              <clipindex>40</clipindex>
            </link>
          </clipitem>
          <clipitem id="vclipitem-41">
            <masterclipid>masterclip-42</masterclipid>
            <name>arrow_220416_180226.png</name>
            <enabled>TRUE</enabled>
            <duration>250</duration>
            <rate>
              <timebase>50</timebase>
              <ntsc>FALSE</ntsc>
            </rate>
            <start>52400</start>
            <end>52650</end>
            <in>0</in>
            <out>250</out>
            <alphatype>straight</alphatype>
            <pixelaspectratio>square</pixelaspectratio>
            <anamorphic>FALSE</anamorphic>
            <file id="file-42">
              <name>arrow_220416_180226.png</name>
              <pathurl>file:///C:/Users/Nemifist/YandexDisk/PAMPAM/%D0%A2%D0%B0%D0%BC%D0%A2%D0%B0%D0%BC/arrow_220416_180226.png</pathurl>
              <rate>
                <timebase>50</timebase>
                <ntsc>FALSE</ntsc>
              </rate>
              <duration>250</duration>
              <timecode>
                <rate>
                  <timebase>50</timebase>
                  <ntsc>FALSE</ntsc>
                </rate>
                <string>00:00:00:00</string>
                <frame>0</frame>
                <displayformat>NDF</displayformat>
              </timecode>
              <media>
                <video>
                  <samplecharacteristics>
                    <rate>
                      <timebase>50</timebase>
                      <ntsc>FALSE</ntsc>
                    </rate>
                    <width>1920</width>
                    <height>960</height>
                    <anamorphic>FALSE</anamorphic>
                    <pixelaspectratio>square</pixelaspectratio>
                    <fielddominance>none</fielddominance>
                  </samplecharacteristics>
                </video>
              </media>
            </file>
            <filter>
              <effect>
                <name>Basic Motion</name>
                <effectid>basic</effectid>
                <effectcategory>motion</effectcategory>
                <effecttype>motion</effecttype>
                <mediatype>video</mediatype>
                <pproBypass>false</pproBypass>
                <parameter authoringApp="PremierePro">
                  <parameterid>scale</parameterid>
                  <name>Scale</name>
                  <valuemin>0</valuemin>
                  <valuemax>1000</valuemax>
                  <value>90</value>
                </parameter>
                <parameter authoringApp="PremierePro">
                  <parameterid>rotation</parameterid>
                  <name>Rotation</name>
                  <valuemin>-8640</valuemin>
                  <valuemax>8640</valuemax>
                  <value>0</value>
                </parameter>
                <parameter authoringApp="PremierePro">
                  <parameterid>center</parameterid>
                  <name>Center</name>
                  <value>
                    <horiz>0</horiz>
                    <vert>0</vert>
                  </value>
                </parameter>
                <parameter authoringApp="PremierePro">
                  <parameterid>centerOffset</parameterid>
                  <name>Anchor Point</name>
                  <value>
                    <horiz>0</horiz>
                    <vert>0</vert>
                  </value>
                </parameter>
                <parameter authoringApp="PremierePro">
                  <parameterid>antiflicker</parameterid>
                  <name>Anti-flicker Filter</name>
                  <valuemin>0.0</valuemin>
                  <valuemax>1.0</valuemax>
                  <value>0</value>
                </parameter>
              </effect>
            </filter>
            <link>
              <linkclipref>vclipitem-41</linkclipref>
              <mediatype>video</mediatype>
              <trackindex>1</trackindex>
              <clipindex>41</clipindex>
            </link>
          </clipitem>
          <clipitem id="vclipitem-42">
            <masterclipid>masterclip-43</masterclipid>
            <name>arrow_222942_180226.png</name>
            <enabled>TRUE</enabled>
            <duration>250</duration>
            <rate>
              <timebase>50</timebase>
              <ntsc>FALSE</ntsc>
            </rate>
            <start>52650</start>
            <end>52900</end>
            <in>0</in>
            <out>250</out>
            <alphatype>straight</alphatype>
            <pixelaspectratio>square</pixelaspectratio>
            <anamorphic>FALSE</anamorphic>
            <file id="file-43">
              <name>arrow_222942_180226.png</name>
              <pathurl>file:///C:/Users/Nemifist/YandexDisk/PAMPAM/%D0%A2%D0%B0%D0%BC%D0%A2%D0%B0%D0%BC/arrow_222942_180226.png</pathurl>
              <rate>
                <timebase>50</timebase>
                <ntsc>FALSE</ntsc>
              </rate>
              <duration>250</duration>
              <timecode>
                <rate>
                  <timebase>50</timebase>
                  <ntsc>FALSE</ntsc>
                </rate>
                <string>00:00:00:00</string>
                <frame>0</frame>
                <displayformat>NDF</displayformat>
              </timecode>
              <media>
                <video>
                  <samplecharacteristics>
                    <rate>
                      <timebase>50</timebase>
                      <ntsc>FALSE</ntsc>
                    </rate>
                    <width>1920</width>
                    <height>960</height>
                    <anamorphic>FALSE</anamorphic>
                    <pixelaspectratio>square</pixelaspectratio>
                    <fielddominance>none</fielddominance>
                  </samplecharacteristics>
                </video>
              </media>
            </file>
            <filter>
              <effect>
                <name>Basic Motion</name>
                <effectid>basic</effectid>
                <effectcategory>motion</effectcategory>
                <effecttype>motion</effecttype>
                <mediatype>video</mediatype>
                <pproBypass>false</pproBypass>
                <parameter authoringApp="PremierePro">
                  <parameterid>scale</parameterid>
                  <name>Scale</name>
                  <valuemin>0</valuemin>
                  <valuemax>1000</valuemax>
                  <value>90</value>
                </parameter>
                <parameter authoringApp="PremierePro">
                  <parameterid>rotation</parameterid>
                  <name>Rotation</name>
                  <valuemin>-8640</valuemin>
                  <valuemax>8640</valuemax>
                  <value>0</value>
                </parameter>
                <parameter authoringApp="PremierePro">
                  <parameterid>center</parameterid>
                  <name>Center</name>
                  <value>
                    <horiz>0</horiz>
                    <vert>0</vert>
                  </value>
                </parameter>
                <parameter authoringApp="PremierePro">
                  <parameterid>centerOffset</parameterid>
                  <name>Anchor Point</name>
                  <value>
                    <horiz>0</horiz>
                    <vert>0</vert>
                  </value>
                </parameter>
                <parameter authoringApp="PremierePro">
                  <parameterid>antiflicker</parameterid>
                  <name>Anti-flicker Filter</name>
                  <valuemin>0.0</valuemin>
                  <valuemax>1.0</valuemax>
                  <value>0</value>
                </parameter>
              </effect>
            </filter>
            <link>
              <linkclipref>vclipitem-42</linkclipref>
              <mediatype>video</mediatype>
              <trackindex>1</trackindex>
              <clipindex>42</clipindex>
            </link>
          </clipitem>
          <clipitem id="vclipitem-43">
            <masterclipid>masterclip-44</masterclipid>
            <name>arrow_181039_190226.png</name>
            <enabled>TRUE</enabled>
            <duration>700</duration>
            <rate>
              <timebase>50</timebase>
              <ntsc>FALSE</ntsc>
            </rate>
            <start>53900</start>
            <end>54600</end>
            <in>0</in>
            <out>700</out>
            <alphatype>straight</alphatype>
            <pixelaspectratio>square</pixelaspectratio>
            <anamorphic>FALSE</anamorphic>
            <file id="file-44">
              <name>arrow_181039_190226.png</name>
              <pathurl>file:///C:/Users/Nemifist/YandexDisk/PAMPAM/%D0%A2%D0%B0%D0%BC%D0%A2%D0%B0%D0%BC/arrow_181039_190226.png</pathurl>
              <rate>
                <timebase>50</timebase>
                <ntsc>FALSE</ntsc>
              </rate>
              <duration>700</duration>
              <timecode>
                <rate>
                  <timebase>50</timebase>
                  <ntsc>FALSE</ntsc>
                </rate>
                <string>00:00:00:00</string>
                <frame>0</frame>
                <displayformat>NDF</displayformat>
              </timecode>
              <media>
                <video>
                  <samplecharacteristics>
                    <rate>
                      <timebase>50</timebase>
                      <ntsc>FALSE</ntsc>
                    </rate>
                    <width>1080</width>
                    <height>1080</height>
                    <anamorphic>FALSE</anamorphic>
                    <pixelaspectratio>square</pixelaspectratio>
                    <fielddominance>none</fielddominance>
                  </samplecharacteristics>
                </video>
              </media>
            </file>
            <filter>
              <effect>
                <name>Basic Motion</name>
                <effectid>basic</effectid>
                <effectcategory>motion</effectcategory>
                <effecttype>motion</effecttype>
                <mediatype>video</mediatype>
                <pproBypass>false</pproBypass>
                <parameter authoringApp="PremierePro">
                  <parameterid>scale</parameterid>
                  <name>Scale</name>
                  <valuemin>0</valuemin>
                  <valuemax>1000</valuemax>
                  <value>88.9</value>
                </parameter>
                <parameter authoringApp="PremierePro">
                  <parameterid>rotation</parameterid>
                  <name>Rotation</name>
                  <valuemin>-8640</valuemin>
                  <valuemax>8640</valuemax>
                  <value>0</value>
                </parameter>
                <parameter authoringApp="PremierePro">
                  <parameterid>center</parameterid>
                  <name>Center</name>
                  <value>
                    <horiz>-0.25</horiz>
                    <vert>0</vert>
                  </value>
                </parameter>
                <parameter authoringApp="PremierePro">
                  <parameterid>centerOffset</parameterid>
                  <name>Anchor Point</name>
                  <value>
                    <horiz>0</horiz>
                    <vert>0</vert>
                  </value>
                </parameter>
                <parameter authoringApp="PremierePro">
                  <parameterid>antiflicker</parameterid>
                  <name>Anti-flicker Filter</name>
                  <valuemin>0.0</valuemin>
                  <valuemax>1.0</valuemax>
                  <value>0</value>
                </parameter>
              </effect>
            </filter>
            <link>
              <linkclipref>vclipitem-43</linkclipref>
              <mediatype>video</mediatype>
              <trackindex>1</trackindex>
              <clipindex>43</clipindex>
            </link>
          </clipitem>
          <clipitem id="vclipitem-44">
            <masterclipid>masterclip-45</masterclipid>
            <name>arrow_225156_180226.png</name>
            <enabled>TRUE</enabled>
            <duration>700</duration>
            <rate>
              <timebase>50</timebase>
              <ntsc>FALSE</ntsc>
            </rate>
            <start>54600</start>
            <end>55300</end>
            <in>0</in>
            <out>700</out>
            <alphatype>straight</alphatype>
            <pixelaspectratio>square</pixelaspectratio>
            <anamorphic>FALSE</anamorphic>
            <file id="file-45">
              <name>arrow_225156_180226.png</name>
              <pathurl>file:///C:/Users/Nemifist/YandexDisk/PAMPAM/%D0%A2%D0%B0%D0%BC%D0%A2%D0%B0%D0%BC/arrow_225156_180226.png</pathurl>
              <rate>
                <timebase>50</timebase>
                <ntsc>FALSE</ntsc>
              </rate>
              <duration>700</duration>
              <timecode>
                <rate>
                  <timebase>50</timebase>
                  <ntsc>FALSE</ntsc>
                </rate>
                <string>00:00:00:00</string>
                <frame>0</frame>
                <displayformat>NDF</displayformat>
              </timecode>
              <media>
                <video>
                  <samplecharacteristics>
                    <rate>
                      <timebase>50</timebase>
                      <ntsc>FALSE</ntsc>
                    </rate>
                    <width>1920</width>
                    <height>1920</height>
                    <anamorphic>FALSE</anamorphic>
                    <pixelaspectratio>square</pixelaspectratio>
                    <fielddominance>none</fielddominance>
                  </samplecharacteristics>
                </video>
              </media>
            </file>
            <filter>
              <effect>
                <name>Basic Motion</name>
                <effectid>basic</effectid>
                <effectcategory>motion</effectcategory>
                <effecttype>motion</effecttype>
                <mediatype>video</mediatype>
                <pproBypass>false</pproBypass>
                <parameter authoringApp="PremierePro">
                  <parameterid>scale</parameterid>
                  <name>Scale</name>
                  <valuemin>0</valuemin>
                  <valuemax>1000</valuemax>
                  <value>50</value>
                </parameter>
                <parameter authoringApp="PremierePro">
                  <parameterid>rotation</parameterid>
                  <name>Rotation</name>
                  <valuemin>-8640</valuemin>
                  <valuemax>8640</valuemax>
                  <value>0</value>
                </parameter>
                <parameter authoringApp="PremierePro">
                  <parameterid>center</parameterid>
                  <name>Center</name>
                  <value>
                    <horiz>-0.25</horiz>
                    <vert>0</vert>
                  </value>
                </parameter>
                <parameter authoringApp="PremierePro">
                  <parameterid>centerOffset</parameterid>
                  <name>Anchor Point</name>
                  <value>
                    <horiz>0</horiz>
                    <vert>0</vert>
                  </value>
                </parameter>
                <parameter authoringApp="PremierePro">
                  <parameterid>antiflicker</parameterid>
                  <name>Anti-flicker Filter</name>
                  <valuemin>0.0</valuemin>
                  <valuemax>1.0</valuemax>
                  <value>0</value>
                </parameter>
              </effect>
            </filter>
            <link>
              <linkclipref>vclipitem-44</linkclipref>
              <mediatype>video</mediatype>
              <trackindex>1</trackindex>
              <clipindex>44</clipindex>
            </link>
          </clipitem>
          <clipitem id="vclipitem-45">
            <masterclipid>masterclip-46</masterclipid>
            <name>arrow_225257_180226.png</name>
            <enabled>TRUE</enabled>
            <duration>500</duration>
            <rate>
              <timebase>50</timebase>
              <ntsc>FALSE</ntsc>
            </rate>
            <start>55600</start>
            <end>56100</end>
            <in>0</in>
            <out>500</out>
            <alphatype>straight</alphatype>
            <pixelaspectratio>square</pixelaspectratio>
            <anamorphic>FALSE</anamorphic>
            <file id="file-46">
              <name>arrow_225257_180226.png</name>
              <pathurl>file:///C:/Users/Nemifist/YandexDisk/PAMPAM/%D0%A2%D0%B0%D0%BC%D0%A2%D0%B0%D0%BC/arrow_225257_180226.png</pathurl>
              <rate>
                <timebase>50</timebase>
                <ntsc>FALSE</ntsc>
              </rate>
              <duration>500</duration>
              <timecode>
                <rate>
                  <timebase>50</timebase>
                  <ntsc>FALSE</ntsc>
                </rate>
                <string>00:00:00:00</string>
                <frame>0</frame>
                <displayformat>NDF</displayformat>
              </timecode>
              <media>
                <video>
                  <samplecharacteristics>
                    <rate>
                      <timebase>50</timebase>
                      <ntsc>FALSE</ntsc>
                    </rate>
                    <width>960</width>
                    <height>960</height>
                    <anamorphic>FALSE</anamorphic>
                    <pixelaspectratio>square</pixelaspectratio>
                    <fielddominance>none</fielddominance>
                  </samplecharacteristics>
                </video>
              </media>
            </file>
            <filter>
              <effect>
                <name>Basic Motion</name>
                <effectid>basic</effectid>
                <effectcategory>motion</effectcategory>
                <effecttype>motion</effecttype>
                <mediatype>video</mediatype>
                <pproBypass>false</pproBypass>
                <parameter authoringApp="PremierePro">
                  <parameterid>scale</parameterid>
                  <name>Scale</name>
                  <valuemin>0</valuemin>
                  <valuemax>1000</valuemax>
                  <value>100</value>
                </parameter>
                <parameter authoringApp="PremierePro">
                  <parameterid>rotation</parameterid>
                  <name>Rotation</name>
                  <valuemin>-8640</valuemin>
                  <valuemax>8640</valuemax>
                  <value>0</value>
                </parameter>
                <parameter authoringApp="PremierePro">
                  <parameterid>center</parameterid>
                  <name>Center</name>
                  <value>
                    <horiz>-0.25</horiz>
                    <vert>0</vert>
                  </value>
                </parameter>
                <parameter authoringApp="PremierePro">
                  <parameterid>centerOffset</parameterid>
                  <name>Anchor Point</name>
                  <value>
                    <horiz>0</horiz>
                    <vert>0</vert>
                  </value>
                </parameter>
                <parameter authoringApp="PremierePro">
                  <parameterid>antiflicker</parameterid>
                  <name>Anti-flicker Filter</name>
                  <valuemin>0.0</valuemin>
                  <valuemax>1.0</valuemax>
                  <value>0</value>
                </parameter>
              </effect>
            </filter>
            <link>
              <linkclipref>vclipitem-45</linkclipref>
              <mediatype>video</mediatype>
              <trackindex>1</trackindex>
              <clipindex>45</clipindex>
            </link>
          </clipitem>
          <clipitem id="vclipitem-46">
            <masterclipid>masterclip-47</masterclipid>
            <name>arrow_201126_180226.png</name>
            <enabled>TRUE</enabled>
            <duration>250</duration>
            <rate>
              <timebase>50</timebase>
              <ntsc>FALSE</ntsc>
            </rate>
            <start>56250</start>
            <end>56500</end>
            <in>0</in>
            <out>250</out>
            <alphatype>straight</alphatype>
            <pixelaspectratio>square</pixelaspectratio>
            <anamorphic>FALSE</anamorphic>
            <file id="file-47">
              <name>arrow_201126_180226.png</name>
              <pathurl>file:///C:/Users/Nemifist/YandexDisk/PAMPAM/%D0%A0%D0%BE%D0%B1%D0%BE%D1%82%D1%8B%20%D0%BA%D1%83%D0%BD%D0%B3-%D1%84%D1%83/arrow_201126_180226.png</pathurl>
              <rate>
                <timebase>50</timebase>
                <ntsc>FALSE</ntsc>
              </rate>
              <duration>250</duration>
              <timecode>
                <rate>
                  <timebase>50</timebase>
                  <ntsc>FALSE</ntsc>
                </rate>
                <string>00:00:00:00</string>
                <frame>0</frame>
                <displayformat>NDF</displayformat>
              </timecode>
              <media>
                <video>
                  <samplecharacteristics>
                    <rate>
                      <timebase>50</timebase>
                      <ntsc>FALSE</ntsc>
                    </rate>
                    <width>960</width>
                    <height>960</height>
                    <anamorphic>FALSE</anamorphic>
                    <pixelaspectratio>square</pixelaspectratio>
                    <fielddominance>none</fielddominance>
                  </samplecharacteristics>
                </video>
              </media>
            </file>
            <filter>
              <effect>
                <name>Basic Motion</name>
                <effectid>basic</effectid>
                <effectcategory>motion</effectcategory>
                <effecttype>motion</effecttype>
                <mediatype>video</mediatype>
                <pproBypass>false</pproBypass>
                <parameter authoringApp="PremierePro">
                  <parameterid>scale</parameterid>
                  <name>Scale</name>
                  <valuemin>0</valuemin>
                  <valuemax>1000</valuemax>
                  <value>100</value>
                </parameter>
                <parameter authoringApp="PremierePro">
                  <parameterid>rotation</parameterid>
                  <name>Rotation</name>
                  <valuemin>-8640</valuemin>
                  <valuemax>8640</valuemax>
                  <value>0</value>
                </parameter>
                <parameter authoringApp="PremierePro">
                  <parameterid>center</parameterid>
                  <name>Center</name>
                  <value>
                    <horiz>-0.25</horiz>
                    <vert>0</vert>
                  </value>
                </parameter>
                <parameter authoringApp="PremierePro">
                  <parameterid>centerOffset</parameterid>
                  <name>Anchor Point</name>
                  <value>
                    <horiz>0</horiz>
                    <vert>0</vert>
                  </value>
                </parameter>
                <parameter authoringApp="PremierePro">
                  <parameterid>antiflicker</parameterid>
                  <name>Anti-flicker Filter</name>
                  <valuemin>0.0</valuemin>
                  <valuemax>1.0</valuemax>
                  <value>0</value>
                </parameter>
              </effect>
            </filter>
            <link>
              <linkclipref>vclipitem-46</linkclipref>
              <mediatype>video</mediatype>
              <trackindex>1</trackindex>
              <clipindex>46</clipindex>
            </link>
          </clipitem>
          <clipitem id="vclipitem-47">
            <masterclipid>masterclip-48</masterclipid>
            <name>arrow_201415_180226.png</name>
            <enabled>TRUE</enabled>
            <duration>350</duration>
            <rate>
              <timebase>50</timebase>
              <ntsc>FALSE</ntsc>
            </rate>
            <start>56800</start>
            <end>57150</end>
            <in>0</in>
            <out>350</out>
            <alphatype>straight</alphatype>
            <pixelaspectratio>square</pixelaspectratio>
            <anamorphic>FALSE</anamorphic>
            <file id="file-48">
              <name>arrow_201415_180226.png</name>
              <pathurl>file:///C:/Users/Nemifist/YandexDisk/PAMPAM/%D0%A0%D0%BE%D0%B1%D0%BE%D1%82%D1%8B%20%D0%BA%D1%83%D0%BD%D0%B3-%D1%84%D1%83/arrow_201415_180226.png</pathurl>
              <rate>
                <timebase>50</timebase>
                <ntsc>FALSE</ntsc>
              </rate>
              <duration>350</duration>
              <timecode>
                <rate>
                  <timebase>50</timebase>
                  <ntsc>FALSE</ntsc>
                </rate>
                <string>00:00:00:00</string>
                <frame>0</frame>
                <displayformat>NDF</displayformat>
              </timecode>
              <media>
                <video>
                  <samplecharacteristics>
                    <rate>
                      <timebase>50</timebase>
                      <ntsc>FALSE</ntsc>
                    </rate>
                    <width>960</width>
                    <height>960</height>
                    <anamorphic>FALSE</anamorphic>
                    <pixelaspectratio>square</pixelaspectratio>
                    <fielddominance>none</fielddominance>
                  </samplecharacteristics>
                </video>
              </media>
            </file>
            <filter>
              <effect>
                <name>Basic Motion</name>
                <effectid>basic</effectid>
                <effectcategory>motion</effectcategory>
                <effecttype>motion</effecttype>
                <mediatype>video</mediatype>
                <pproBypass>false</pproBypass>
                <parameter authoringApp="PremierePro">
                  <parameterid>scale</parameterid>
                  <name>Scale</name>
                  <valuemin>0</valuemin>
                  <valuemax>1000</valuemax>
                  <value>100</value>
                </parameter>
                <parameter authoringApp="PremierePro">
                  <parameterid>rotation</parameterid>
                  <name>Rotation</name>
                  <valuemin>-8640</valuemin>
                  <valuemax>8640</valuemax>
                  <value>0</value>
                </parameter>
                <parameter authoringApp="PremierePro">
                  <parameterid>center</parameterid>
                  <name>Center</name>
                  <value>
                    <horiz>-0.25</horiz>
                    <vert>0</vert>
                  </value>
                </parameter>
                <parameter authoringApp="PremierePro">
                  <parameterid>centerOffset</parameterid>
                  <name>Anchor Point</name>
                  <value>
                    <horiz>0</horiz>
                    <vert>0</vert>
                  </value>
                </parameter>
                <parameter authoringApp="PremierePro">
                  <parameterid>antiflicker</parameterid>
                  <name>Anti-flicker Filter</name>
                  <valuemin>0.0</valuemin>
                  <valuemax>1.0</valuemax>
                  <value>0</value>
                </parameter>
              </effect>
            </filter>
            <link>
              <linkclipref>vclipitem-47</linkclipref>
              <mediatype>video</mediatype>
              <trackindex>1</trackindex>
              <clipindex>47</clipindex>
            </link>
          </clipitem>
          <clipitem id="vclipitem-48">
            <masterclipid>masterclip-49</masterclipid>
            <name>AGIBOT_Expedition_A3_Shocks_the_World_With_Insane_Flying_Kicks.mp4</name>
            <enabled>TRUE</enabled>
            <duration>450</duration>
            <rate>
              <timebase>50</timebase>
              <ntsc>FALSE</ntsc>
            </rate>
            <start>57150</start>
            <end>57600</end>
            <in>0</in>
            <out>450</out>
            <alphatype>none</alphatype>
            <pixelaspectratio>square</pixelaspectratio>
            <anamorphic>FALSE</anamorphic>
            <file id="file-49">
              <name>AGIBOT_Expedition_A3_Shocks_the_World_With_Insane_Flying_Kicks.mp4</name>
              <pathurl>file:///C:/Users/Nemifist/YandexDisk/PAMPAM/%D0%A0%D0%BE%D0%B1%D0%BE%D1%82%D1%8B%20%D0%BA%D1%83%D0%BD%D0%B3-%D1%84%D1%83/AGIBOT_Expedition_A3_Shocks_the_World_With_Insane_Flying_Kicks.mp4</pathurl>
              <rate>
                <timebase>50</timebase>
                <ntsc>FALSE</ntsc>
              </rate>
              <duration>450</duration>
              <timecode>
                <rate>
                  <timebase>50</timebase>
                  <ntsc>FALSE</ntsc>
                </rate>
                <string>00:00:00:00</string>
                <frame>0</frame>
                <displayformat>NDF</displayformat>
              </timecode>
              <media>
                <video>
                  <samplecharacteristics>
                    <rate>
                      <timebase>50</timebase>
                      <ntsc>FALSE</ntsc>
                    </rate>
                    <width>1920</width>
                    <height>1080</height>
                    <anamorphic>FALSE</anamorphic>
                    <pixelaspectratio>square</pixelaspectratio>
                    <fielddominance>none</fielddominance>
                  </samplecharacteristics>
                </video>
                <audio>
                  <samplecharacteristics>
                    <depth>16</depth>
                    <samplerate>48000</samplerate>
                  </samplecharacteristics>
                  <channelcount>2</channelcount>
                </audio>
              </media>
            </file>
            <filter>
              <effect>
                <name>Basic Motion</name>
                <effectid>basic</effectid>
                <effectcategory>motion</effectcategory>
                <effecttype>motion</effecttype>
                <mediatype>video</mediatype>
                <pproBypass>false</pproBypass>
                <parameter authoringApp="PremierePro">
                  <parameterid>scale</parameterid>
                  <name>Scale</name>
                  <valuemin>0</valuemin>
                  <valuemax>1000</valuemax>
                  <value>100</value>
                </parameter>
                <parameter authoringApp="PremierePro">
                  <parameterid>rotation</parameterid>
                  <name>Rotation</name>
                  <valuemin>-8640</valuemin>
                  <valuemax>8640</valuemax>
                  <value>0</value>
                </parameter>
                <parameter authoringApp="PremierePro">
                  <parameterid>center</parameterid>
                  <name>Center</name>
                  <value>
                    <horiz>0</horiz>
                    <vert>0</vert>
                  </value>
                </parameter>
                <parameter authoringApp="PremierePro">
                  <parameterid>centerOffset</parameterid>
                  <name>Anchor Point</name>
                  <value>
                    <horiz>0</horiz>
                    <vert>0</vert>
                  </value>
                </parameter>
                <parameter authoringApp="PremierePro">
                  <parameterid>antiflicker</parameterid>
                  <name>Anti-flicker Filter</name>
                  <valuemin>0.0</valuemin>
                  <valuemax>1.0</valuemax>
                  <value>0</value>
                </parameter>
              </effect>
            </filter>
            <link>
              <linkclipref>vclipitem-48</linkclipref>
              <mediatype>video</mediatype>
              <trackindex>1</trackindex>
              <clipindex>48</clipindex>
            </link>
            <link>
              <linkclipref>aclipitem-4</linkclipref>
              <mediatype>audio</mediatype>
              <trackindex>1</trackindex>
              <clipindex>4</clipindex>
              <groupindex>1</groupindex>
            </link>
          </clipitem>
          <clipitem id="vclipitem-49">
            <masterclipid>masterclip-50</masterclipid>
            <name>AGIBOT_Expedition_A3_Shocks_the_World_With_Insane_Flying_Kicks.mp4</name>
            <enabled>TRUE</enabled>
            <duration>250</duration>
            <rate>
              <timebase>50</timebase>
              <ntsc>FALSE</ntsc>
            </rate>
            <start>57600</start>
            <end>57850</end>
            <in>0</in>
            <out>250</out>
            <alphatype>none</alphatype>
            <pixelaspectratio>square</pixelaspectratio>
            <anamorphic>FALSE</anamorphic>
            <file id="file-50">
              <name>AGIBOT_Expedition_A3_Shocks_the_World_With_Insane_Flying_Kicks.mp4</name>
              <pathurl>file:///C:/Users/Nemifist/YandexDisk/PAMPAM/%D0%A0%D0%BE%D0%B1%D0%BE%D1%82%D1%8B%20%D0%BA%D1%83%D0%BD%D0%B3-%D1%84%D1%83/AGIBOT_Expedition_A3_Shocks_the_World_With_Insane_Flying_Kicks.mp4</pathurl>
              <rate>
                <timebase>50</timebase>
                <ntsc>FALSE</ntsc>
              </rate>
              <duration>250</duration>
              <timecode>
                <rate>
                  <timebase>50</timebase>
                  <ntsc>FALSE</ntsc>
                </rate>
                <string>00:00:00:00</string>
                <frame>0</frame>
                <displayformat>NDF</displayformat>
              </timecode>
              <media>
                <video>
                  <samplecharacteristics>
                    <rate>
                      <timebase>50</timebase>
                      <ntsc>FALSE</ntsc>
                    </rate>
                    <width>1920</width>
                    <height>1080</height>
                    <anamorphic>FALSE</anamorphic>
                    <pixelaspectratio>square</pixelaspectratio>
                    <fielddominance>none</fielddominance>
                  </samplecharacteristics>
                </video>
                <audio>
                  <samplecharacteristics>
                    <depth>16</depth>
                    <samplerate>48000</samplerate>
                  </samplecharacteristics>
                  <channelcount>2</channelcount>
                </audio>
              </media>
            </file>
            <filter>
              <effect>
                <name>Basic Motion</name>
                <effectid>basic</effectid>
                <effectcategory>motion</effectcategory>
                <effecttype>motion</effecttype>
                <mediatype>video</mediatype>
                <pproBypass>false</pproBypass>
                <parameter authoringApp="PremierePro">
                  <parameterid>scale</parameterid>
                  <name>Scale</name>
                  <valuemin>0</valuemin>
                  <valuemax>1000</valuemax>
                  <value>100</value>
                </parameter>
                <parameter authoringApp="PremierePro">
                  <parameterid>rotation</parameterid>
                  <name>Rotation</name>
                  <valuemin>-8640</valuemin>
                  <valuemax>8640</valuemax>
                  <value>0</value>
                </parameter>
                <parameter authoringApp="PremierePro">
                  <parameterid>center</parameterid>
                  <name>Center</name>
                  <value>
                    <horiz>0</horiz>
                    <vert>0</vert>
                  </value>
                </parameter>
                <parameter authoringApp="PremierePro">
                  <parameterid>centerOffset</parameterid>
                  <name>Anchor Point</name>
                  <value>
                    <horiz>0</horiz>
                    <vert>0</vert>
                  </value>
                </parameter>
                <parameter authoringApp="PremierePro">
                  <parameterid>antiflicker</parameterid>
                  <name>Anti-flicker Filter</name>
                  <valuemin>0.0</valuemin>
                  <valuemax>1.0</valuemax>
                  <value>0</value>
                </parameter>
              </effect>
            </filter>
            <link>
              <linkclipref>vclipitem-49</linkclipref>
              <mediatype>video</mediatype>
              <trackindex>1</trackindex>
              <clipindex>49</clipindex>
            </link>
            <link>
              <linkclipref>aclipitem-5</linkclipref>
              <mediatype>audio</mediatype>
              <trackindex>1</trackindex>
              <clipindex>5</clipindex>
              <groupindex>1</groupindex>
            </link>
          </clipitem>
          <clipitem id="vclipitem-50">
            <masterclipid>masterclip-51</masterclipid>
            <name>Martial arts robots dazzle at 2026 Spring Festival Gala.mp4</name>
            <enabled>TRUE</enabled>
            <duration>300</duration>
            <rate>
              <timebase>50</timebase>
              <ntsc>FALSE</ntsc>
            </rate>
            <start>60400</start>
            <end>60700</end>
            <in>0</in>
            <out>300</out>
            <alphatype>none</alphatype>
            <pixelaspectratio>square</pixelaspectratio>
            <anamorphic>FALSE</anamorphic>
            <file id="file-51">
              <name>Martial arts robots dazzle at 2026 Spring Festival Gala.mp4</name>
              <pathurl>file:///C:/Users/Nemifist/YandexDisk/PAMPAM/%D0%A0%D0%BE%D0%B1%D0%BE%D1%82%D1%8B%20%D0%BA%D1%83%D0%BD%D0%B3-%D1%84%D1%83/Martial%20arts%20robots%20dazzle%20at%202026%20Spring%20Festival%20Gala.mp4</pathurl>
              <rate>
                <timebase>50</timebase>
                <ntsc>FALSE</ntsc>
              </rate>
              <duration>300</duration>
              <timecode>
                <rate>
                  <timebase>50</timebase>
                  <ntsc>FALSE</ntsc>
                </rate>
                <string>00:00:00:00</string>
                <frame>0</frame>
                <displayformat>NDF</displayformat>
              </timecode>
              <media>
                <video>
                  <samplecharacteristics>
                    <rate>
                      <timebase>50</timebase>
                      <ntsc>FALSE</ntsc>
                    </rate>
                    <width>1280</width>
                    <height>720</height>
                    <anamorphic>FALSE</anamorphic>
                    <pixelaspectratio>square</pixelaspectratio>
                    <fielddominance>none</fielddominance>
                  </samplecharacteristics>
                </video>
                <audio>
                  <samplecharacteristics>
                    <depth>16</depth>
                    <samplerate>48000</samplerate>
                  </samplecharacteristics>
                  <channelcount>2</channelcount>
                </audio>
              </media>
            </file>
            <filter>
              <effect>
                <name>Basic Motion</name>
                <effectid>basic</effectid>
                <effectcategory>motion</effectcategory>
                <effecttype>motion</effecttype>
                <mediatype>video</mediatype>
                <pproBypass>false</pproBypass>
                <parameter authoringApp="PremierePro">
                  <parameterid>scale</parameterid>
                  <name>Scale</name>
                  <valuemin>0</valuemin>
                  <valuemax>1000</valuemax>
                  <value>150</value>
                </parameter>
                <parameter authoringApp="PremierePro">
                  <parameterid>rotation</parameterid>
                  <name>Rotation</name>
                  <valuemin>-8640</valuemin>
                  <valuemax>8640</valuemax>
                  <value>0</value>
                </parameter>
                <parameter authoringApp="PremierePro">
                  <parameterid>center</parameterid>
                  <name>Center</name>
                  <value>
                    <horiz>0</horiz>
                    <vert>0</vert>
                  </value>
                </parameter>
                <parameter authoringApp="PremierePro">
                  <parameterid>centerOffset</parameterid>
                  <name>Anchor Point</name>
                  <value>
                    <horiz>0</horiz>
                    <vert>0</vert>
                  </value>
                </parameter>
                <parameter authoringApp="PremierePro">
                  <parameterid>antiflicker</parameterid>
                  <name>Anti-flicker Filter</name>
                  <valuemin>0.0</valuemin>
                  <valuemax>1.0</valuemax>
                  <value>0</value>
                </parameter>
              </effect>
            </filter>
            <link>
              <linkclipref>vclipitem-50</linkclipref>
              <mediatype>video</mediatype>
              <trackindex>1</trackindex>
              <clipindex>50</clipindex>
            </link>
            <link>
              <linkclipref>aclipitem-6</linkclipref>
              <mediatype>audio</mediatype>
              <trackindex>1</trackindex>
              <clipindex>6</clipindex>
              <groupindex>1</groupindex>
            </link>
          </clipitem>
          <clipitem id="vclipitem-51">
            <masterclipid>masterclip-52</masterclipid>
            <name>Martial arts robots dazzle at 2026 Spring Festival Gala.mp4</name>
            <enabled>TRUE</enabled>
            <duration>150</duration>
            <rate>
              <timebase>50</timebase>
              <ntsc>FALSE</ntsc>
            </rate>
            <start>60900</start>
            <end>61050</end>
            <in>0</in>
            <out>150</out>
            <alphatype>none</alphatype>
            <pixelaspectratio>square</pixelaspectratio>
            <anamorphic>FALSE</anamorphic>
            <file id="file-52">
              <name>Martial arts robots dazzle at 2026 Spring Festival Gala.mp4</name>
              <pathurl>file:///C:/Users/Nemifist/YandexDisk/PAMPAM/%D0%A0%D0%BE%D0%B1%D0%BE%D1%82%D1%8B%20%D0%BA%D1%83%D0%BD%D0%B3-%D1%84%D1%83/Martial%20arts%20robots%20dazzle%20at%202026%20Spring%20Festival%20Gala.mp4</pathurl>
              <rate>
                <timebase>50</timebase>
                <ntsc>FALSE</ntsc>
              </rate>
              <duration>150</duration>
              <timecode>
                <rate>
                  <timebase>50</timebase>
                  <ntsc>FALSE</ntsc>
                </rate>
                <string>00:00:00:00</string>
                <frame>0</frame>
                <displayformat>NDF</displayformat>
              </timecode>
              <media>
                <video>
                  <samplecharacteristics>
                    <rate>
                      <timebase>50</timebase>
                      <ntsc>FALSE</ntsc>
                    </rate>
                    <width>1280</width>
                    <height>720</height>
                    <anamorphic>FALSE</anamorphic>
                    <pixelaspectratio>square</pixelaspectratio>
                    <fielddominance>none</fielddominance>
                  </samplecharacteristics>
                </video>
                <audio>
                  <samplecharacteristics>
                    <depth>16</depth>
                    <samplerate>48000</samplerate>
                  </samplecharacteristics>
                  <channelcount>2</channelcount>
                </audio>
              </media>
            </file>
            <filter>
              <effect>
                <name>Basic Motion</name>
                <effectid>basic</effectid>
                <effectcategory>motion</effectcategory>
                <effecttype>motion</effecttype>
                <mediatype>video</mediatype>
                <pproBypass>false</pproBypass>
                <parameter authoringApp="PremierePro">
                  <parameterid>scale</parameterid>
                  <name>Scale</name>
                  <valuemin>0</valuemin>
                  <valuemax>1000</valuemax>
                  <value>150</value>
                </parameter>
                <parameter authoringApp="PremierePro">
                  <parameterid>rotation</parameterid>
                  <name>Rotation</name>
                  <valuemin>-8640</valuemin>
                  <valuemax>8640</valuemax>
                  <value>0</value>
                </parameter>
                <parameter authoringApp="PremierePro">
                  <parameterid>center</parameterid>
                  <name>Center</name>
                  <value>
                    <horiz>0</horiz>
                    <vert>0</vert>
                  </value>
                </parameter>
                <parameter authoringApp="PremierePro">
                  <parameterid>centerOffset</parameterid>
                  <name>Anchor Point</name>
                  <value>
                    <horiz>0</horiz>
                    <vert>0</vert>
                  </value>
                </parameter>
                <parameter authoringApp="PremierePro">
                  <parameterid>antiflicker</parameterid>
                  <name>Anti-flicker Filter</name>
                  <valuemin>0.0</valuemin>
                  <valuemax>1.0</valuemax>
                  <value>0</value>
                </parameter>
              </effect>
            </filter>
            <link>
              <linkclipref>vclipitem-51</linkclipref>
              <mediatype>video</mediatype>
              <trackindex>1</trackindex>
              <clipindex>51</clipindex>
            </link>
            <link>
              <linkclipref>aclipitem-7</linkclipref>
              <mediatype>audio</mediatype>
              <trackindex>1</trackindex>
              <clipindex>7</clipindex>
              <groupindex>1</groupindex>
            </link>
          </clipitem>
          <clipitem id="vclipitem-52">
            <masterclipid>masterclip-53</masterclipid>
            <name>Live： CGTN Super Night – 2026 Spring Festival celebration [SZ2yaHcw8Vs].mp4</name>
            <enabled>TRUE</enabled>
            <duration>1150</duration>
            <rate>
              <timebase>50</timebase>
              <ntsc>FALSE</ntsc>
            </rate>
            <start>61050</start>
            <end>62200</end>
            <in>0</in>
            <out>1150</out>
            <alphatype>none</alphatype>
            <pixelaspectratio>square</pixelaspectratio>
            <anamorphic>FALSE</anamorphic>
            <file id="file-53">
              <name>Live： CGTN Super Night – 2026 Spring Festival celebration [SZ2yaHcw8Vs].mp4</name>
              <pathurl>file:///C:/Users/Nemifist/YandexDisk/PAMPAM/%D0%A0%D0%BE%D0%B1%D0%BE%D1%82%D1%8B%20%D0%BA%D1%83%D0%BD%D0%B3-%D1%84%D1%83/Live%EF%BC%9A%20CGTN%20Super%20Night%20%E2%80%93%202026%20Spring%20Festival%20celebration%20%5BSZ2yaHcw8Vs%5D.mp4</pathurl>
              <rate>
                <timebase>50</timebase>
                <ntsc>FALSE</ntsc>
              </rate>
              <duration>1150</duration>
              <timecode>
                <rate>
                  <timebase>50</timebase>
                  <ntsc>FALSE</ntsc>
                </rate>
                <string>00:00:00:00</string>
                <frame>0</frame>
                <displayformat>NDF</displayformat>
              </timecode>
              <media>
                <video>
                  <samplecharacteristics>
                    <rate>
                      <timebase>50</timebase>
                      <ntsc>FALSE</ntsc>
                    </rate>
                    <width>1920</width>
                    <height>1080</height>
                    <anamorphic>FALSE</anamorphic>
                    <pixelaspectratio>square</pixelaspectratio>
                    <fielddominance>none</fielddominance>
                  </samplecharacteristics>
                </video>
                <audio>
                  <samplecharacteristics>
                    <depth>16</depth>
                    <samplerate>48000</samplerate>
                  </samplecharacteristics>
                  <channelcount>2</channelcount>
                </audio>
              </media>
            </file>
            <filter>
              <effect>
                <name>Basic Motion</name>
                <effectid>basic</effectid>
                <effectcategory>motion</effectcategory>
                <effecttype>motion</effecttype>
                <mediatype>video</mediatype>
                <pproBypass>false</pproBypass>
                <parameter authoringApp="PremierePro">
                  <parameterid>scale</parameterid>
                  <name>Scale</name>
                  <valuemin>0</valuemin>
                  <valuemax>1000</valuemax>
                  <value>100</value>
                </parameter>
                <parameter authoringApp="PremierePro">
                  <parameterid>rotation</parameterid>
                  <name>Rotation</name>
                  <valuemin>-8640</valuemin>
                  <valuemax>8640</valuemax>
                  <value>0</value>
                </parameter>
                <parameter authoringApp="PremierePro">
                  <parameterid>center</parameterid>
                  <name>Center</name>
                  <value>
                    <horiz>0</horiz>
                    <vert>0</vert>
                  </value>
                </parameter>
                <parameter authoringApp="PremierePro">
                  <parameterid>centerOffset</parameterid>
                  <name>Anchor Point</name>
                  <value>
                    <horiz>0</horiz>
                    <vert>0</vert>
                  </value>
                </parameter>
                <parameter authoringApp="PremierePro">
                  <parameterid>antiflicker</parameterid>
                  <name>Anti-flicker Filter</name>
                  <valuemin>0.0</valuemin>
                  <valuemax>1.0</valuemax>
                  <value>0</value>
                </parameter>
              </effect>
            </filter>
            <link>
              <linkclipref>vclipitem-52</linkclipref>
              <mediatype>video</mediatype>
              <trackindex>1</trackindex>
              <clipindex>52</clipindex>
            </link>
            <link>
              <linkclipref>aclipitem-8</linkclipref>
              <mediatype>audio</mediatype>
              <trackindex>1</trackindex>
              <clipindex>8</clipindex>
              <groupindex>1</groupindex>
            </link>
          </clipitem>
          <clipitem id="vclipitem-53">
            <masterclipid>masterclip-54</masterclipid>
            <name>Unitree_Spring_Festival_Gala_Robots__a_Full_Release_of_Additional (2).mp4</name>
            <enabled>TRUE</enabled>
            <duration>250</duration>
            <rate>
              <timebase>50</timebase>
              <ntsc>FALSE</ntsc>
            </rate>
            <start>65750</start>
            <end>66000</end>
            <in>0</in>
            <out>250</out>
            <alphatype>none</alphatype>
            <pixelaspectratio>square</pixelaspectratio>
            <anamorphic>FALSE</anamorphic>
            <file id="file-54">
              <name>Unitree_Spring_Festival_Gala_Robots__a_Full_Release_of_Additional (2).mp4</name>
              <pathurl>file:///C:/Users/Nemifist/YandexDisk/PAMPAM/%D0%A0%D0%BE%D0%B1%D0%BE%D1%82%D1%8B%20%D0%BA%D1%83%D0%BD%D0%B3-%D1%84%D1%83/Unitree_Spring_Festival_Gala_Robots__a_Full_Release_of_Additional%20(2).mp4</pathurl>
              <rate>
                <timebase>50</timebase>
                <ntsc>FALSE</ntsc>
              </rate>
              <duration>250</duration>
              <timecode>
                <rate>
                  <timebase>50</timebase>
                  <ntsc>FALSE</ntsc>
                </rate>
                <string>00:00:00:00</string>
                <frame>0</frame>
                <displayformat>NDF</displayformat>
              </timecode>
              <media>
                <video>
                  <samplecharacteristics>
                    <rate>
                      <timebase>50</timebase>
                      <ntsc>FALSE</ntsc>
                    </rate>
                    <width>1920</width>
                    <height>1080</height>
                    <anamorphic>FALSE</anamorphic>
                    <pixelaspectratio>square</pixelaspectratio>
                    <fielddominance>none</fielddominance>
                  </samplecharacteristics>
                </video>
                <audio>
                  <samplecharacteristics>
                    <depth>16</depth>
                    <samplerate>48000</samplerate>
                  </samplecharacteristics>
                  <channelcount>2</channelcount>
                </audio>
              </media>
            </file>
            <filter>
              <effect>
                <name>Basic Motion</name>
                <effectid>basic</effectid>
                <effectcategory>motion</effectcategory>
                <effecttype>motion</effecttype>
                <mediatype>video</mediatype>
                <pproBypass>false</pproBypass>
                <parameter authoringApp="PremierePro">
                  <parameterid>scale</parameterid>
                  <name>Scale</name>
                  <valuemin>0</valuemin>
                  <valuemax>1000</valuemax>
                  <value>100</value>
                </parameter>
                <parameter authoringApp="PremierePro">
                  <parameterid>rotation</parameterid>
                  <name>Rotation</name>
                  <valuemin>-8640</valuemin>
                  <valuemax>8640</valuemax>
                  <value>0</value>
                </parameter>
                <parameter authoringApp="PremierePro">
                  <parameterid>center</parameterid>
                  <name>Center</name>
                  <value>
                    <horiz>0</horiz>
                    <vert>0</vert>
                  </value>
                </parameter>
                <parameter authoringApp="PremierePro">
                  <parameterid>centerOffset</parameterid>
                  <name>Anchor Point</name>
                  <value>
                    <horiz>0</horiz>
                    <vert>0</vert>
                  </value>
                </parameter>
                <parameter authoringApp="PremierePro">
                  <parameterid>antiflicker</parameterid>
                  <name>Anti-flicker Filter</name>
                  <valuemin>0.0</valuemin>
                  <valuemax>1.0</valuemax>
                  <value>0</value>
                </parameter>
              </effect>
            </filter>
            <link>
              <linkclipref>vclipitem-53</linkclipref>
              <mediatype>video</mediatype>
              <trackindex>1</trackindex>
              <clipindex>53</clipindex>
            </link>
            <link>
              <linkclipref>aclipitem-9</linkclipref>
              <mediatype>audio</mediatype>
              <trackindex>1</trackindex>
              <clipindex>9</clipindex>
              <groupindex>1</groupindex>
            </link>
          </clipitem>
          <clipitem id="vclipitem-54">
            <masterclipid>masterclip-55</masterclipid>
            <name>arrow_184800_180226.png</name>
            <enabled>TRUE</enabled>
            <duration>250</duration>
            <rate>
              <timebase>50</timebase>
              <ntsc>FALSE</ntsc>
            </rate>
            <start>66300</start>
            <end>66550</end>
            <in>0</in>
            <out>250</out>
            <alphatype>straight</alphatype>
            <pixelaspectratio>square</pixelaspectratio>
            <anamorphic>FALSE</anamorphic>
            <file id="file-55">
              <name>arrow_184800_180226.png</name>
              <pathurl>file:///C:/Users/Nemifist/YandexDisk/PAMPAM/%D0%A1%D1%82%D0%B8%D0%BC%D0%B4%D0%B5%D0%BA%20%D0%BF%D1%80%D0%BE%D0%BF%D0%B0%D0%BB%20%D1%81%20%D0%BF%D1%80%D0%BE%D0%B4%D0%B0%D0%B6%D0%B8/arrow_184800_180226.png</pathurl>
              <rate>
                <timebase>50</timebase>
                <ntsc>FALSE</ntsc>
              </rate>
              <duration>250</duration>
              <timecode>
                <rate>
                  <timebase>50</timebase>
                  <ntsc>FALSE</ntsc>
                </rate>
                <string>00:00:00:00</string>
                <frame>0</frame>
                <displayformat>NDF</displayformat>
              </timecode>
              <media>
                <video>
                  <samplecharacteristics>
                    <rate>
                      <timebase>50</timebase>
                      <ntsc>FALSE</ntsc>
                    </rate>
                    <width>960</width>
                    <height>960</height>
                    <anamorphic>FALSE</anamorphic>
                    <pixelaspectratio>square</pixelaspectratio>
                    <fielddominance>none</fielddominance>
                  </samplecharacteristics>
                </video>
              </media>
            </file>
            <filter>
              <effect>
                <name>Basic Motion</name>
                <effectid>basic</effectid>
                <effectcategory>motion</effectcategory>
                <effecttype>motion</effecttype>
                <mediatype>video</mediatype>
                <pproBypass>false</pproBypass>
                <parameter authoringApp="PremierePro">
                  <parameterid>scale</parameterid>
                  <name>Scale</name>
                  <valuemin>0</valuemin>
                  <valuemax>1000</valuemax>
                  <value>100</value>
                </parameter>
                <parameter authoringApp="PremierePro">
                  <parameterid>rotation</parameterid>
                  <name>Rotation</name>
                  <valuemin>-8640</valuemin>
                  <valuemax>8640</valuemax>
                  <value>0</value>
                </parameter>
                <parameter authoringApp="PremierePro">
                  <parameterid>center</parameterid>
                  <name>Center</name>
                  <value>
                    <horiz>-0.25</horiz>
                    <vert>0</vert>
                  </value>
                </parameter>
                <parameter authoringApp="PremierePro">
                  <parameterid>centerOffset</parameterid>
                  <name>Anchor Point</name>
                  <value>
                    <horiz>0</horiz>
                    <vert>0</vert>
                  </value>
                </parameter>
                <parameter authoringApp="PremierePro">
                  <parameterid>antiflicker</parameterid>
                  <name>Anti-flicker Filter</name>
                  <valuemin>0.0</valuemin>
                  <valuemax>1.0</valuemax>
                  <value>0</value>
                </parameter>
              </effect>
            </filter>
            <link>
              <linkclipref>vclipitem-54</linkclipref>
              <mediatype>video</mediatype>
              <trackindex>1</trackindex>
              <clipindex>54</clipindex>
            </link>
          </clipitem>
          <clipitem id="vclipitem-55">
            <masterclipid>masterclip-56</masterclipid>
            <name>arrow_184807_180226.png</name>
            <enabled>TRUE</enabled>
            <duration>250</duration>
            <rate>
              <timebase>50</timebase>
              <ntsc>FALSE</ntsc>
            </rate>
            <start>66550</start>
            <end>66800</end>
            <in>0</in>
            <out>250</out>
            <alphatype>straight</alphatype>
            <pixelaspectratio>square</pixelaspectratio>
            <anamorphic>FALSE</anamorphic>
            <file id="file-56">
              <name>arrow_184807_180226.png</name>
              <pathurl>file:///C:/Users/Nemifist/YandexDisk/PAMPAM/%D0%A1%D1%82%D0%B8%D0%BC%D0%B4%D0%B5%D0%BA%20%D0%BF%D1%80%D0%BE%D0%BF%D0%B0%D0%BB%20%D1%81%20%D0%BF%D1%80%D0%BE%D0%B4%D0%B0%D0%B6%D0%B8/arrow_184807_180226.png</pathurl>
              <rate>
                <timebase>50</timebase>
                <ntsc>FALSE</ntsc>
              </rate>
              <duration>250</duration>
              <timecode>
                <rate>
                  <timebase>50</timebase>
                  <ntsc>FALSE</ntsc>
                </rate>
                <string>00:00:00:00</string>
                <frame>0</frame>
                <displayformat>NDF</displayformat>
              </timecode>
              <media>
                <video>
                  <samplecharacteristics>
                    <rate>
                      <timebase>50</timebase>
                      <ntsc>FALSE</ntsc>
                    </rate>
                    <width>960</width>
                    <height>960</height>
                    <anamorphic>FALSE</anamorphic>
                    <pixelaspectratio>square</pixelaspectratio>
                    <fielddominance>none</fielddominance>
                  </samplecharacteristics>
                </video>
              </media>
            </file>
            <filter>
              <effect>
                <name>Basic Motion</name>
                <effectid>basic</effectid>
                <effectcategory>motion</effectcategory>
                <effecttype>motion</effecttype>
                <mediatype>video</mediatype>
                <pproBypass>false</pproBypass>
                <parameter authoringApp="PremierePro">
                  <parameterid>scale</parameterid>
                  <name>Scale</name>
                  <valuemin>0</valuemin>
                  <valuemax>1000</valuemax>
                  <value>100</value>
                </parameter>
                <parameter authoringApp="PremierePro">
                  <parameterid>rotation</parameterid>
                  <name>Rotation</name>
                  <valuemin>-8640</valuemin>
                  <valuemax>8640</valuemax>
                  <value>0</value>
                </parameter>
                <parameter authoringApp="PremierePro">
                  <parameterid>center</parameterid>
                  <name>Center</name>
                  <value>
                    <horiz>-0.25</horiz>
                    <vert>0</vert>
                  </value>
                </parameter>
                <parameter authoringApp="PremierePro">
                  <parameterid>centerOffset</parameterid>
                  <name>Anchor Point</name>
                  <value>
                    <horiz>0</horiz>
                    <vert>0</vert>
                  </value>
                </parameter>
                <parameter authoringApp="PremierePro">
                  <parameterid>antiflicker</parameterid>
                  <name>Anti-flicker Filter</name>
                  <valuemin>0.0</valuemin>
                  <valuemax>1.0</valuemax>
                  <value>0</value>
                </parameter>
              </effect>
            </filter>
            <link>
              <linkclipref>vclipitem-55</linkclipref>
              <mediatype>video</mediatype>
              <trackindex>1</trackindex>
              <clipindex>55</clipindex>
            </link>
          </clipitem>
          <clipitem id="vclipitem-56">
            <masterclipid>masterclip-57</masterclipid>
            <name>arrow_184837_180226.png</name>
            <enabled>TRUE</enabled>
            <duration>350</duration>
            <rate>
              <timebase>50</timebase>
              <ntsc>FALSE</ntsc>
            </rate>
            <start>66800</start>
            <end>67150</end>
            <in>0</in>
            <out>350</out>
            <alphatype>straight</alphatype>
            <pixelaspectratio>square</pixelaspectratio>
            <anamorphic>FALSE</anamorphic>
            <file id="file-57">
              <name>arrow_184837_180226.png</name>
              <pathurl>file:///C:/Users/Nemifist/YandexDisk/PAMPAM/%D0%A1%D1%82%D0%B8%D0%BC%D0%B4%D0%B5%D0%BA%20%D0%BF%D1%80%D0%BE%D0%BF%D0%B0%D0%BB%20%D1%81%20%D0%BF%D1%80%D0%BE%D0%B4%D0%B0%D0%B6%D0%B8/arrow_184837_180226.png</pathurl>
              <rate>
                <timebase>50</timebase>
                <ntsc>FALSE</ntsc>
              </rate>
              <duration>350</duration>
              <timecode>
                <rate>
                  <timebase>50</timebase>
                  <ntsc>FALSE</ntsc>
                </rate>
                <string>00:00:00:00</string>
                <frame>0</frame>
                <displayformat>NDF</displayformat>
              </timecode>
              <media>
                <video>
                  <samplecharacteristics>
                    <rate>
                      <timebase>50</timebase>
                      <ntsc>FALSE</ntsc>
                    </rate>
                    <width>3840</width>
                    <height>1920</height>
                    <anamorphic>FALSE</anamorphic>
                    <pixelaspectratio>square</pixelaspectratio>
                    <fielddominance>none</fielddominance>
                  </samplecharacteristics>
                </video>
              </media>
            </file>
            <filter>
              <effect>
                <name>Basic Motion</name>
                <effectid>basic</effectid>
                <effectcategory>motion</effectcategory>
                <effecttype>motion</effecttype>
                <mediatype>video</mediatype>
                <pproBypass>false</pproBypass>
                <parameter authoringApp="PremierePro">
                  <parameterid>scale</parameterid>
                  <name>Scale</name>
                  <valuemin>0</valuemin>
                  <valuemax>1000</valuemax>
                  <value>45</value>
                </parameter>
                <parameter authoringApp="PremierePro">
                  <parameterid>rotation</parameterid>
                  <name>Rotation</name>
                  <valuemin>-8640</valuemin>
                  <valuemax>8640</valuemax>
                  <value>0</value>
                </parameter>
                <parameter authoringApp="PremierePro">
                  <parameterid>center</parameterid>
                  <name>Center</name>
                  <value>
                    <horiz>0</horiz>
                    <vert>0</vert>
                  </value>
                </parameter>
                <parameter authoringApp="PremierePro">
                  <parameterid>centerOffset</parameterid>
                  <name>Anchor Point</name>
                  <value>
                    <horiz>0</horiz>
                    <vert>0</vert>
                  </value>
                </parameter>
                <parameter authoringApp="PremierePro">
                  <parameterid>antiflicker</parameterid>
                  <name>Anti-flicker Filter</name>
                  <valuemin>0.0</valuemin>
                  <valuemax>1.0</valuemax>
                  <value>0</value>
                </parameter>
              </effect>
            </filter>
            <link>
              <linkclipref>vclipitem-56</linkclipref>
              <mediatype>video</mediatype>
              <trackindex>1</trackindex>
              <clipindex>56</clipindex>
            </link>
          </clipitem>
          <clipitem id="vclipitem-57">
            <masterclipid>masterclip-58</masterclipid>
            <name>Steam Hardware Announcement.mp4</name>
            <enabled>TRUE</enabled>
            <duration>450</duration>
            <rate>
              <timebase>50</timebase>
              <ntsc>FALSE</ntsc>
            </rate>
            <start>68050</start>
            <end>68500</end>
            <in>0</in>
            <out>450</out>
            <alphatype>none</alphatype>
            <pixelaspectratio>square</pixelaspectratio>
            <anamorphic>FALSE</anamorphic>
            <file id="file-58">
              <name>Steam Hardware Announcement.mp4</name>
              <pathurl>file:///C:/Users/Nemifist/YandexDisk/PAMPAM/%D0%A1%D1%82%D0%B8%D0%BC%D0%B4%D0%B5%D0%BA%20%D0%BF%D1%80%D0%BE%D0%BF%D0%B0%D0%BB%20%D1%81%20%D0%BF%D1%80%D0%BE%D0%B4%D0%B0%D0%B6%D0%B8/Steam%20Hardware%20Announcement.mp4</pathurl>
              <rate>
                <timebase>50</timebase>
                <ntsc>FALSE</ntsc>
              </rate>
              <duration>450</duration>
              <timecode>
                <rate>
                  <timebase>50</timebase>
                  <ntsc>FALSE</ntsc>
                </rate>
                <string>00:00:00:00</string>
                <frame>0</frame>
                <displayformat>NDF</displayformat>
              </timecode>
              <media>
                <video>
                  <samplecharacteristics>
                    <rate>
                      <timebase>50</timebase>
                      <ntsc>FALSE</ntsc>
                    </rate>
                    <width>1920</width>
                    <height>850</height>
                    <anamorphic>FALSE</anamorphic>
                    <pixelaspectratio>square</pixelaspectratio>
                    <fielddominance>none</fielddominance>
                  </samplecharacteristics>
                </video>
                <audio>
                  <samplecharacteristics>
                    <depth>16</depth>
                    <samplerate>48000</samplerate>
                  </samplecharacteristics>
                  <channelcount>2</channelcount>
                </audio>
              </media>
            </file>
            <filter>
              <effect>
                <name>Basic Motion</name>
                <effectid>basic</effectid>
                <effectcategory>motion</effectcategory>
                <effecttype>motion</effecttype>
                <mediatype>video</mediatype>
                <pproBypass>false</pproBypass>
                <parameter authoringApp="PremierePro">
                  <parameterid>scale</parameterid>
                  <name>Scale</name>
                  <valuemin>0</valuemin>
                  <valuemax>1000</valuemax>
                  <value>90</value>
                </parameter>
                <parameter authoringApp="PremierePro">
                  <parameterid>rotation</parameterid>
                  <name>Rotation</name>
                  <valuemin>-8640</valuemin>
                  <valuemax>8640</valuemax>
                  <value>0</value>
                </parameter>
                <parameter authoringApp="PremierePro">
                  <parameterid>center</parameterid>
                  <name>Center</name>
                  <value>
                    <horiz>0</horiz>
                    <vert>0</vert>
                  </value>
                </parameter>
                <parameter authoringApp="PremierePro">
                  <parameterid>centerOffset</parameterid>
                  <name>Anchor Point</name>
                  <value>
                    <horiz>0</horiz>
                    <vert>0</vert>
                  </value>
                </parameter>
                <parameter authoringApp="PremierePro">
                  <parameterid>antiflicker</parameterid>
                  <name>Anti-flicker Filter</name>
                  <valuemin>0.0</valuemin>
                  <valuemax>1.0</valuemax>
                  <value>0</value>
                </parameter>
              </effect>
            </filter>
            <link>
              <linkclipref>vclipitem-57</linkclipref>
              <mediatype>video</mediatype>
              <trackindex>1</trackindex>
              <clipindex>57</clipindex>
            </link>
            <link>
              <linkclipref>aclipitem-10</linkclipref>
              <mediatype>audio</mediatype>
              <trackindex>1</trackindex>
              <clipindex>10</clipindex>
              <groupindex>1</groupindex>
            </link>
          </clipitem>
          <clipitem id="vclipitem-58">
            <masterclipid>masterclip-59</masterclipid>
            <name>Seedance 2.0 is Insane! Best AI Video Compilation (Cinematic Cats) [zd-fJy2McH0].mp4</name>
            <enabled>TRUE</enabled>
            <duration>850</duration>
            <rate>
              <timebase>50</timebase>
              <ntsc>FALSE</ntsc>
            </rate>
            <start>69200</start>
            <end>70050</end>
            <in>0</in>
            <out>850</out>
            <alphatype>none</alphatype>
            <pixelaspectratio>square</pixelaspectratio>
            <anamorphic>FALSE</anamorphic>
            <file id="file-59">
              <name>Seedance 2.0 is Insane! Best AI Video Compilation (Cinematic Cats) [zd-fJy2McH0].mp4</name>
              <pathurl>file:///C:/Users/Nemifist/YandexDisk/PAMPAM/%D0%A1%D1%82%D0%B8%D0%BC%D0%B4%D0%B5%D0%BA%20%D0%BF%D1%80%D0%BE%D0%BF%D0%B0%D0%BB%20%D1%81%20%D0%BF%D1%80%D0%BE%D0%B4%D0%B0%D0%B6%D0%B8/Seedance%202.0%20is%20Insane!%20Best%20AI%20Video%20Compilation%20(Cinematic%20Cats)%20%5Bzd-fJy2McH0%5D.mp4</pathurl>
              <rate>
                <timebase>50</timebase>
                <ntsc>FALSE</ntsc>
              </rate>
              <duration>850</duration>
              <timecode>
                <rate>
                  <timebase>50</timebase>
                  <ntsc>FALSE</ntsc>
                </rate>
                <string>00:00:00:00</string>
                <frame>0</frame>
                <displayformat>NDF</displayformat>
              </timecode>
              <media>
                <video>
                  <samplecharacteristics>
                    <rate>
                      <timebase>50</timebase>
                      <ntsc>FALSE</ntsc>
                    </rate>
                    <width>1920</width>
                    <height>1080</height>
                    <anamorphic>FALSE</anamorphic>
                    <pixelaspectratio>square</pixelaspectratio>
                    <fielddominance>none</fielddominance>
                  </samplecharacteristics>
                </video>
                <audio>
                  <samplecharacteristics>
                    <depth>16</depth>
                    <samplerate>48000</samplerate>
                  </samplecharacteristics>
                  <channelcount>2</channelcount>
                </audio>
              </media>
            </file>
            <filter>
              <effect>
                <name>Basic Motion</name>
                <effectid>basic</effectid>
                <effectcategory>motion</effectcategory>
                <effecttype>motion</effecttype>
                <mediatype>video</mediatype>
                <pproBypass>false</pproBypass>
                <parameter authoringApp="PremierePro">
                  <parameterid>scale</parameterid>
                  <name>Scale</name>
                  <valuemin>0</valuemin>
                  <valuemax>1000</valuemax>
                  <value>100</value>
                </parameter>
                <parameter authoringApp="PremierePro">
                  <parameterid>rotation</parameterid>
                  <name>Rotation</name>
                  <valuemin>-8640</valuemin>
                  <valuemax>8640</valuemax>
                  <value>0</value>
                </parameter>
                <parameter authoringApp="PremierePro">
                  <parameterid>center</parameterid>
                  <name>Center</name>
                  <value>
                    <horiz>0</horiz>
                    <vert>0</vert>
                  </value>
                </parameter>
                <parameter authoringApp="PremierePro">
                  <parameterid>centerOffset</parameterid>
                  <name>Anchor Point</name>
                  <value>
                    <horiz>0</horiz>
                    <vert>0</vert>
                  </value>
                </parameter>
                <parameter authoringApp="PremierePro">
                  <parameterid>antiflicker</parameterid>
                  <name>Anti-flicker Filter</name>
                  <valuemin>0.0</valuemin>
                  <valuemax>1.0</valuemax>
                  <value>0</value>
                </parameter>
              </effect>
            </filter>
            <link>
              <linkclipref>vclipitem-58</linkclipref>
              <mediatype>video</mediatype>
              <trackindex>1</trackindex>
              <clipindex>58</clipindex>
            </link>
            <link>
              <linkclipref>aclipitem-11</linkclipref>
              <mediatype>audio</mediatype>
              <trackindex>1</trackindex>
              <clipindex>11</clipindex>
              <groupindex>1</groupindex>
            </link>
          </clipitem>
          <clipitem id="vclipitem-59">
            <masterclipid>masterclip-60</masterclipid>
            <name>The_Best_AI_Fights_Seedance_2_0_Compilation_Spider_Man__Mike_Tyson.mp4</name>
            <enabled>TRUE</enabled>
            <duration>400</duration>
            <rate>
              <timebase>50</timebase>
              <ntsc>FALSE</ntsc>
            </rate>
            <start>71400</start>
            <end>71800</end>
            <in>0</in>
            <out>400</out>
            <alphatype>none</alphatype>
            <pixelaspectratio>square</pixelaspectratio>
            <anamorphic>FALSE</anamorphic>
            <file id="file-60">
              <name>The_Best_AI_Fights_Seedance_2_0_Compilation_Spider_Man__Mike_Tyson.mp4</name>
              <pathurl>file:///C:/Users/Nemifist/YandexDisk/PAMPAM/%D0%A1%D1%82%D0%B8%D0%BC%D0%B4%D0%B5%D0%BA%20%D0%BF%D1%80%D0%BE%D0%BF%D0%B0%D0%BB%20%D1%81%20%D0%BF%D1%80%D0%BE%D0%B4%D0%B0%D0%B6%D0%B8/The_Best_AI_Fights_Seedance_2_0_Compilation_Spider_Man__Mike_Tyson.mp4</pathurl>
              <rate>
                <timebase>50</timebase>
                <ntsc>FALSE</ntsc>
              </rate>
              <duration>400</duration>
              <timecode>
                <rate>
                  <timebase>50</timebase>
                  <ntsc>FALSE</ntsc>
                </rate>
                <string>00:00:00:00</string>
                <frame>0</frame>
                <displayformat>NDF</displayformat>
              </timecode>
              <media>
                <video>
                  <samplecharacteristics>
                    <rate>
                      <timebase>50</timebase>
                      <ntsc>FALSE</ntsc>
                    </rate>
                    <width>1920</width>
                    <height>1080</height>
                    <anamorphic>FALSE</anamorphic>
                    <pixelaspectratio>square</pixelaspectratio>
                    <fielddominance>none</fielddominance>
                  </samplecharacteristics>
                </video>
                <audio>
                  <samplecharacteristics>
                    <depth>16</depth>
                    <samplerate>48000</samplerate>
                  </samplecharacteristics>
                  <channelcount>2</channelcount>
                </audio>
              </media>
            </file>
            <filter>
              <effect>
                <name>Basic Motion</name>
                <effectid>basic</effectid>
                <effectcategory>motion</effectcategory>
                <effecttype>motion</effecttype>
                <mediatype>video</mediatype>
                <pproBypass>false</pproBypass>
                <parameter authoringApp="PremierePro">
                  <parameterid>scale</parameterid>
                  <name>Scale</name>
                  <valuemin>0</valuemin>
                  <valuemax>1000</valuemax>
                  <value>100</value>
                </parameter>
                <parameter authoringApp="PremierePro">
                  <parameterid>rotation</parameterid>
                  <name>Rotation</name>
                  <valuemin>-8640</valuemin>
                  <valuemax>8640</valuemax>
                  <value>0</value>
                </parameter>
                <parameter authoringApp="PremierePro">
                  <parameterid>center</parameterid>
                  <name>Center</name>
                  <value>
                    <horiz>0</horiz>
                    <vert>0</vert>
                  </value>
                </parameter>
                <parameter authoringApp="PremierePro">
                  <parameterid>centerOffset</parameterid>
                  <name>Anchor Point</name>
                  <value>
                    <horiz>0</horiz>
                    <vert>0</vert>
                  </value>
                </parameter>
                <parameter authoringApp="PremierePro">
                  <parameterid>antiflicker</parameterid>
                  <name>Anti-flicker Filter</name>
                  <valuemin>0.0</valuemin>
                  <valuemax>1.0</valuemax>
                  <value>0</value>
                </parameter>
              </effect>
            </filter>
            <link>
              <linkclipref>vclipitem-59</linkclipref>
              <mediatype>video</mediatype>
              <trackindex>1</trackindex>
              <clipindex>59</clipindex>
            </link>
            <link>
              <linkclipref>aclipitem-12</linkclipref>
              <mediatype>audio</mediatype>
              <trackindex>1</trackindex>
              <clipindex>12</clipindex>
              <groupindex>1</groupindex>
            </link>
          </clipitem>
          <clipitem id="vclipitem-60">
            <masterclipid>masterclip-61</masterclipid>
            <name>arrow_180340_180226.png</name>
            <enabled>TRUE</enabled>
            <duration>250</duration>
            <rate>
              <timebase>50</timebase>
              <ntsc>FALSE</ntsc>
            </rate>
            <start>72000</start>
            <end>72250</end>
            <in>0</in>
            <out>250</out>
            <alphatype>straight</alphatype>
            <pixelaspectratio>square</pixelaspectratio>
            <anamorphic>FALSE</anamorphic>
            <file id="file-61">
              <name>arrow_180340_180226.png</name>
              <pathurl>file:///C:/Users/Nemifist/YandexDisk/PAMPAM/%D0%9C%D0%B0%D0%BD%D0%B4%D0%B0%D0%BB%D0%BE%D1%80%D0%B5%D1%86/arrow_180340_180226.png</pathurl>
              <rate>
                <timebase>50</timebase>
                <ntsc>FALSE</ntsc>
              </rate>
              <duration>250</duration>
              <timecode>
                <rate>
                  <timebase>50</timebase>
                  <ntsc>FALSE</ntsc>
                </rate>
                <string>00:00:00:00</string>
                <frame>0</frame>
                <displayformat>NDF</displayformat>
              </timecode>
              <media>
                <video>
                  <samplecharacteristics>
                    <rate>
                      <timebase>50</timebase>
                      <ntsc>FALSE</ntsc>
                    </rate>
                    <width>1920</width>
                    <height>1920</height>
                    <anamorphic>FALSE</anamorphic>
                    <pixelaspectratio>square</pixelaspectratio>
                    <fielddominance>none</fielddominance>
                  </samplecharacteristics>
                </video>
              </media>
            </file>
            <filter>
              <effect>
                <name>Basic Motion</name>
                <effectid>basic</effectid>
                <effectcategory>motion</effectcategory>
                <effecttype>motion</effecttype>
                <mediatype>video</mediatype>
                <pproBypass>false</pproBypass>
                <parameter authoringApp="PremierePro">
                  <parameterid>scale</parameterid>
                  <name>Scale</name>
                  <valuemin>0</valuemin>
                  <valuemax>1000</valuemax>
                  <value>50</value>
                </parameter>
                <parameter authoringApp="PremierePro">
                  <parameterid>rotation</parameterid>
                  <name>Rotation</name>
                  <valuemin>-8640</valuemin>
                  <valuemax>8640</valuemax>
                  <value>0</value>
                </parameter>
                <parameter authoringApp="PremierePro">
                  <parameterid>center</parameterid>
                  <name>Center</name>
                  <value>
                    <horiz>-0.25</horiz>
                    <vert>0</vert>
                  </value>
                </parameter>
                <parameter authoringApp="PremierePro">
                  <parameterid>centerOffset</parameterid>
                  <name>Anchor Point</name>
                  <value>
                    <horiz>0</horiz>
                    <vert>0</vert>
                  </value>
                </parameter>
                <parameter authoringApp="PremierePro">
                  <parameterid>antiflicker</parameterid>
                  <name>Anti-flicker Filter</name>
                  <valuemin>0.0</valuemin>
                  <valuemax>1.0</valuemax>
                  <value>0</value>
                </parameter>
              </effect>
            </filter>
            <link>
              <linkclipref>vclipitem-60</linkclipref>
              <mediatype>video</mediatype>
              <trackindex>1</trackindex>
              <clipindex>60</clipindex>
            </link>
          </clipitem>
          <clipitem id="vclipitem-61">
            <masterclipid>masterclip-62</masterclipid>
            <name>The Mandalorian and Grogu ｜ Official Trailer ｜ In Theaters May 22 [IHWlvwu8t1w].mp4</name>
            <enabled>TRUE</enabled>
            <duration>300</duration>
            <rate>
              <timebase>50</timebase>
              <ntsc>FALSE</ntsc>
            </rate>
            <start>72250</start>
            <end>72550</end>
            <in>0</in>
            <out>300</out>
            <alphatype>none</alphatype>
            <pixelaspectratio>square</pixelaspectratio>
            <anamorphic>FALSE</anamorphic>
            <file id="file-62">
              <name>The Mandalorian and Grogu ｜ Official Trailer ｜ In Theaters May 22 [IHWlvwu8t1w].mp4</name>
              <pathurl>file:///C:/Users/Nemifist/YandexDisk/PAMPAM/%D0%9C%D0%B0%D0%BD%D0%B4%D0%B0%D0%BB%D0%BE%D1%80%D0%B5%D1%86/The%20Mandalorian%20and%20Grogu%20%EF%BD%9C%20Official%20Trailer%20%EF%BD%9C%20In%20Theaters%20May%2022%20%5BIHWlvwu8t1w%5D.mp4</pathurl>
              <rate>
                <timebase>50</timebase>
                <ntsc>FALSE</ntsc>
              </rate>
              <duration>300</duration>
              <timecode>
                <rate>
                  <timebase>50</timebase>
                  <ntsc>FALSE</ntsc>
                </rate>
                <string>00:00:00:00</string>
                <frame>0</frame>
                <displayformat>NDF</displayformat>
              </timecode>
              <media>
                <video>
                  <samplecharacteristics>
                    <rate>
                      <timebase>50</timebase>
                      <ntsc>FALSE</ntsc>
                    </rate>
                    <width>1920</width>
                    <height>1080</height>
                    <anamorphic>FALSE</anamorphic>
                    <pixelaspectratio>square</pixelaspectratio>
                    <fielddominance>none</fielddominance>
                  </samplecharacteristics>
                </video>
                <audio>
                  <samplecharacteristics>
                    <depth>16</depth>
                    <samplerate>48000</samplerate>
                  </samplecharacteristics>
                  <channelcount>2</channelcount>
                </audio>
              </media>
            </file>
            <filter>
              <effect>
                <name>Basic Motion</name>
                <effectid>basic</effectid>
                <effectcategory>motion</effectcategory>
                <effecttype>motion</effecttype>
                <mediatype>video</mediatype>
                <pproBypass>false</pproBypass>
                <parameter authoringApp="PremierePro">
                  <parameterid>scale</parameterid>
                  <name>Scale</name>
                  <valuemin>0</valuemin>
                  <valuemax>1000</valuemax>
                  <value>100</value>
                </parameter>
                <parameter authoringApp="PremierePro">
                  <parameterid>rotation</parameterid>
                  <name>Rotation</name>
                  <valuemin>-8640</valuemin>
                  <valuemax>8640</valuemax>
                  <value>0</value>
                </parameter>
                <parameter authoringApp="PremierePro">
                  <parameterid>center</parameterid>
                  <name>Center</name>
                  <value>
                    <horiz>0</horiz>
                    <vert>0</vert>
                  </value>
                </parameter>
                <parameter authoringApp="PremierePro">
                  <parameterid>centerOffset</parameterid>
                  <name>Anchor Point</name>
                  <value>
                    <horiz>0</horiz>
                    <vert>0</vert>
                  </value>
                </parameter>
                <parameter authoringApp="PremierePro">
                  <parameterid>antiflicker</parameterid>
                  <name>Anti-flicker Filter</name>
                  <valuemin>0.0</valuemin>
                  <valuemax>1.0</valuemax>
                  <value>0</value>
                </parameter>
              </effect>
            </filter>
            <link>
              <linkclipref>vclipitem-61</linkclipref>
              <mediatype>video</mediatype>
              <trackindex>1</trackindex>
              <clipindex>61</clipindex>
            </link>
            <link>
              <linkclipref>aclipitem-13</linkclipref>
              <mediatype>audio</mediatype>
              <trackindex>1</trackindex>
              <clipindex>13</clipindex>
              <groupindex>1</groupindex>
            </link>
          </clipitem>
          <clipitem id="vclipitem-62">
            <masterclipid>masterclip-63</masterclipid>
            <name>image 312.png</name>
            <enabled>TRUE</enabled>
            <duration>650</duration>
            <rate>
              <timebase>50</timebase>
              <ntsc>FALSE</ntsc>
            </rate>
            <start>72800</start>
            <end>73450</end>
            <in>0</in>
            <out>650</out>
            <alphatype>straight</alphatype>
            <pixelaspectratio>square</pixelaspectratio>
            <anamorphic>FALSE</anamorphic>
            <file id="file-63">
              <name>image 312.png</name>
              <pathurl>file:///C:/Users/Nemifist/YandexDisk/PAMPAM/%D0%9C%D0%B0%D0%BD%D0%B4%D0%B0%D0%BB%D0%BE%D1%80%D0%B5%D1%86/image%20312.png</pathurl>
              <rate>
                <timebase>50</timebase>
                <ntsc>FALSE</ntsc>
              </rate>
              <duration>650</duration>
              <timecode>
                <rate>
                  <timebase>50</timebase>
                  <ntsc>FALSE</ntsc>
                </rate>
                <string>00:00:00:00</string>
                <frame>0</frame>
                <displayformat>NDF</displayformat>
              </timecode>
              <media>
                <video>
                  <samplecharacteristics>
                    <rate>
                      <timebase>50</timebase>
                      <ntsc>FALSE</ntsc>
                    </rate>
                    <width>960</width>
                    <height>960</height>
                    <anamorphic>FALSE</anamorphic>
                    <pixelaspectratio>square</pixelaspectratio>
                    <fielddominance>none</fielddominance>
                  </samplecharacteristics>
                </video>
              </media>
            </file>
            <filter>
              <effect>
                <name>Basic Motion</name>
                <effectid>basic</effectid>
                <effectcategory>motion</effectcategory>
                <effecttype>motion</effecttype>
                <mediatype>video</mediatype>
                <pproBypass>false</pproBypass>
                <parameter authoringApp="PremierePro">
                  <parameterid>scale</parameterid>
                  <name>Scale</name>
                  <valuemin>0</valuemin>
                  <valuemax>1000</valuemax>
                  <value>100</value>
                </parameter>
                <parameter authoringApp="PremierePro">
                  <parameterid>rotation</parameterid>
                  <name>Rotation</name>
                  <valuemin>-8640</valuemin>
                  <valuemax>8640</valuemax>
                  <value>0</value>
                </parameter>
                <parameter authoringApp="PremierePro">
                  <parameterid>center</parameterid>
                  <name>Center</name>
                  <value>
                    <horiz>-0.25</horiz>
                    <vert>0</vert>
                  </value>
                </parameter>
                <parameter authoringApp="PremierePro">
                  <parameterid>centerOffset</parameterid>
                  <name>Anchor Point</name>
                  <value>
                    <horiz>0</horiz>
                    <vert>0</vert>
                  </value>
                </parameter>
                <parameter authoringApp="PremierePro">
                  <parameterid>antiflicker</parameterid>
                  <name>Anti-flicker Filter</name>
                  <valuemin>0.0</valuemin>
                  <valuemax>1.0</valuemax>
                  <value>0</value>
                </parameter>
              </effect>
            </filter>
            <link>
              <linkclipref>vclipitem-62</linkclipref>
              <mediatype>video</mediatype>
              <trackindex>1</trackindex>
              <clipindex>62</clipindex>
            </link>
          </clipitem>
          <clipitem id="vclipitem-63">
            <masterclipid>masterclip-64</masterclipid>
            <name>image 313.png</name>
            <enabled>TRUE</enabled>
            <duration>650</duration>
            <rate>
              <timebase>50</timebase>
              <ntsc>FALSE</ntsc>
            </rate>
            <start>73800</start>
            <end>74450</end>
            <in>0</in>
            <out>650</out>
            <alphatype>straight</alphatype>
            <pixelaspectratio>square</pixelaspectratio>
            <anamorphic>FALSE</anamorphic>
            <file id="file-64">
              <name>image 313.png</name>
              <pathurl>file:///C:/Users/Nemifist/YandexDisk/PAMPAM/%D0%9C%D0%B0%D0%BD%D0%B4%D0%B0%D0%BB%D0%BE%D1%80%D0%B5%D1%86/image%20313.png</pathurl>
              <rate>
                <timebase>50</timebase>
                <ntsc>FALSE</ntsc>
              </rate>
              <duration>650</duration>
              <timecode>
                <rate>
                  <timebase>50</timebase>
                  <ntsc>FALSE</ntsc>
                </rate>
                <string>00:00:00:00</string>
                <frame>0</frame>
                <displayformat>NDF</displayformat>
              </timecode>
              <media>
                <video>
                  <samplecharacteristics>
                    <rate>
                      <timebase>50</timebase>
                      <ntsc>FALSE</ntsc>
                    </rate>
                    <width>960</width>
                    <height>960</height>
                    <anamorphic>FALSE</anamorphic>
                    <pixelaspectratio>square</pixelaspectratio>
                    <fielddominance>none</fielddominance>
                  </samplecharacteristics>
                </video>
              </media>
            </file>
            <filter>
              <effect>
                <name>Basic Motion</name>
                <effectid>basic</effectid>
                <effectcategory>motion</effectcategory>
                <effecttype>motion</effecttype>
                <mediatype>video</mediatype>
                <pproBypass>false</pproBypass>
                <parameter authoringApp="PremierePro">
                  <parameterid>scale</parameterid>
                  <name>Scale</name>
                  <valuemin>0</valuemin>
                  <valuemax>1000</valuemax>
                  <value>100</value>
                </parameter>
                <parameter authoringApp="PremierePro">
                  <parameterid>rotation</parameterid>
                  <name>Rotation</name>
                  <valuemin>-8640</valuemin>
                  <valuemax>8640</valuemax>
                  <value>0</value>
                </parameter>
                <parameter authoringApp="PremierePro">
                  <parameterid>center</parameterid>
                  <name>Center</name>
                  <value>
                    <horiz>-0.25</horiz>
                    <vert>0</vert>
                  </value>
                </parameter>
                <parameter authoringApp="PremierePro">
                  <parameterid>centerOffset</parameterid>
                  <name>Anchor Point</name>
                  <value>
                    <horiz>0</horiz>
                    <vert>0</vert>
                  </value>
                </parameter>
                <parameter authoringApp="PremierePro">
                  <parameterid>antiflicker</parameterid>
                  <name>Anti-flicker Filter</name>
                  <valuemin>0.0</valuemin>
                  <valuemax>1.0</valuemax>
                  <value>0</value>
                </parameter>
              </effect>
            </filter>
            <link>
              <linkclipref>vclipitem-63</linkclipref>
              <mediatype>video</mediatype>
              <trackindex>1</trackindex>
              <clipindex>63</clipindex>
            </link>
          </clipitem>
          <clipitem id="vclipitem-64">
            <masterclipid>masterclip-65</masterclipid>
            <name>The Mandalorian and Grogu ｜ Official Trailer ｜ In Theaters May 22 [IHWlvwu8t1w].mp4</name>
            <enabled>TRUE</enabled>
            <duration>550</duration>
            <rate>
              <timebase>50</timebase>
              <ntsc>FALSE</ntsc>
            </rate>
            <start>75300</start>
            <end>75850</end>
            <in>0</in>
            <out>550</out>
            <alphatype>none</alphatype>
            <pixelaspectratio>square</pixelaspectratio>
            <anamorphic>FALSE</anamorphic>
            <file id="file-65">
              <name>The Mandalorian and Grogu ｜ Official Trailer ｜ In Theaters May 22 [IHWlvwu8t1w].mp4</name>
              <pathurl>file:///C:/Users/Nemifist/YandexDisk/PAMPAM/%D0%9C%D0%B0%D0%BD%D0%B4%D0%B0%D0%BB%D0%BE%D1%80%D0%B5%D1%86/The%20Mandalorian%20and%20Grogu%20%EF%BD%9C%20Official%20Trailer%20%EF%BD%9C%20In%20Theaters%20May%2022%20%5BIHWlvwu8t1w%5D.mp4</pathurl>
              <rate>
                <timebase>50</timebase>
                <ntsc>FALSE</ntsc>
              </rate>
              <duration>550</duration>
              <timecode>
                <rate>
                  <timebase>50</timebase>
                  <ntsc>FALSE</ntsc>
                </rate>
                <string>00:00:00:00</string>
                <frame>0</frame>
                <displayformat>NDF</displayformat>
              </timecode>
              <media>
                <video>
                  <samplecharacteristics>
                    <rate>
                      <timebase>50</timebase>
                      <ntsc>FALSE</ntsc>
                    </rate>
                    <width>1920</width>
                    <height>1080</height>
                    <anamorphic>FALSE</anamorphic>
                    <pixelaspectratio>square</pixelaspectratio>
                    <fielddominance>none</fielddominance>
                  </samplecharacteristics>
                </video>
                <audio>
                  <samplecharacteristics>
                    <depth>16</depth>
                    <samplerate>48000</samplerate>
                  </samplecharacteristics>
                  <channelcount>2</channelcount>
                </audio>
              </media>
            </file>
            <filter>
              <effect>
                <name>Basic Motion</name>
                <effectid>basic</effectid>
                <effectcategory>motion</effectcategory>
                <effecttype>motion</effecttype>
                <mediatype>video</mediatype>
                <pproBypass>false</pproBypass>
                <parameter authoringApp="PremierePro">
                  <parameterid>scale</parameterid>
                  <name>Scale</name>
                  <valuemin>0</valuemin>
                  <valuemax>1000</valuemax>
                  <value>100</value>
                </parameter>
                <parameter authoringApp="PremierePro">
                  <parameterid>rotation</parameterid>
                  <name>Rotation</name>
                  <valuemin>-8640</valuemin>
                  <valuemax>8640</valuemax>
                  <value>0</value>
                </parameter>
                <parameter authoringApp="PremierePro">
                  <parameterid>center</parameterid>
                  <name>Center</name>
                  <value>
                    <horiz>0</horiz>
                    <vert>0</vert>
                  </value>
                </parameter>
                <parameter authoringApp="PremierePro">
                  <parameterid>centerOffset</parameterid>
                  <name>Anchor Point</name>
                  <value>
                    <horiz>0</horiz>
                    <vert>0</vert>
                  </value>
                </parameter>
                <parameter authoringApp="PremierePro">
                  <parameterid>antiflicker</parameterid>
                  <name>Anti-flicker Filter</name>
                  <valuemin>0.0</valuemin>
                  <valuemax>1.0</valuemax>
                  <value>0</value>
                </parameter>
              </effect>
            </filter>
            <link>
              <linkclipref>vclipitem-64</linkclipref>
              <mediatype>video</mediatype>
              <trackindex>1</trackindex>
              <clipindex>64</clipindex>
            </link>
            <link>
              <linkclipref>aclipitem-14</linkclipref>
              <mediatype>audio</mediatype>
              <trackindex>1</trackindex>
              <clipindex>14</clipindex>
              <groupindex>1</groupindex>
            </link>
          </clipitem>
          <clipitem id="vclipitem-65">
            <masterclipid>masterclip-66</masterclipid>
            <name>The Mandalorian and Grogu ｜ Official Trailer ｜ In Theaters May 22 [IHWlvwu8t1w].mp4</name>
            <enabled>TRUE</enabled>
            <duration>300</duration>
            <rate>
              <timebase>50</timebase>
              <ntsc>FALSE</ntsc>
            </rate>
            <start>75850</start>
            <end>76150</end>
            <in>0</in>
            <out>300</out>
            <alphatype>none</alphatype>
            <pixelaspectratio>square</pixelaspectratio>
            <anamorphic>FALSE</anamorphic>
            <file id="file-66">
              <name>The Mandalorian and Grogu ｜ Official Trailer ｜ In Theaters May 22 [IHWlvwu8t1w].mp4</name>
              <pathurl>file:///C:/Users/Nemifist/YandexDisk/PAMPAM/%D0%9C%D0%B0%D0%BD%D0%B4%D0%B0%D0%BB%D0%BE%D1%80%D0%B5%D1%86/The%20Mandalorian%20and%20Grogu%20%EF%BD%9C%20Official%20Trailer%20%EF%BD%9C%20In%20Theaters%20May%2022%20%5BIHWlvwu8t1w%5D.mp4</pathurl>
              <rate>
                <timebase>50</timebase>
                <ntsc>FALSE</ntsc>
              </rate>
              <duration>300</duration>
              <timecode>
                <rate>
                  <timebase>50</timebase>
                  <ntsc>FALSE</ntsc>
                </rate>
                <string>00:00:00:00</string>
                <frame>0</frame>
                <displayformat>NDF</displayformat>
              </timecode>
              <media>
                <video>
                  <samplecharacteristics>
                    <rate>
                      <timebase>50</timebase>
                      <ntsc>FALSE</ntsc>
                    </rate>
                    <width>1920</width>
                    <height>1080</height>
                    <anamorphic>FALSE</anamorphic>
                    <pixelaspectratio>square</pixelaspectratio>
                    <fielddominance>none</fielddominance>
                  </samplecharacteristics>
                </video>
                <audio>
                  <samplecharacteristics>
                    <depth>16</depth>
                    <samplerate>48000</samplerate>
                  </samplecharacteristics>
                  <channelcount>2</channelcount>
                </audio>
              </media>
            </file>
            <filter>
              <effect>
                <name>Basic Motion</name>
                <effectid>basic</effectid>
                <effectcategory>motion</effectcategory>
                <effecttype>motion</effecttype>
                <mediatype>video</mediatype>
                <pproBypass>false</pproBypass>
                <parameter authoringApp="PremierePro">
                  <parameterid>scale</parameterid>
                  <name>Scale</name>
                  <valuemin>0</valuemin>
                  <valuemax>1000</valuemax>
                  <value>100</value>
                </parameter>
                <parameter authoringApp="PremierePro">
                  <parameterid>rotation</parameterid>
                  <name>Rotation</name>
                  <valuemin>-8640</valuemin>
                  <valuemax>8640</valuemax>
                  <value>0</value>
                </parameter>
                <parameter authoringApp="PremierePro">
                  <parameterid>center</parameterid>
                  <name>Center</name>
                  <value>
                    <horiz>0</horiz>
                    <vert>0</vert>
                  </value>
                </parameter>
                <parameter authoringApp="PremierePro">
                  <parameterid>centerOffset</parameterid>
                  <name>Anchor Point</name>
                  <value>
                    <horiz>0</horiz>
                    <vert>0</vert>
                  </value>
                </parameter>
                <parameter authoringApp="PremierePro">
                  <parameterid>antiflicker</parameterid>
                  <name>Anti-flicker Filter</name>
                  <valuemin>0.0</valuemin>
                  <valuemax>1.0</valuemax>
                  <value>0</value>
                </parameter>
              </effect>
            </filter>
            <link>
              <linkclipref>vclipitem-65</linkclipref>
              <mediatype>video</mediatype>
              <trackindex>1</trackindex>
              <clipindex>65</clipindex>
            </link>
            <link>
              <linkclipref>aclipitem-15</linkclipref>
              <mediatype>audio</mediatype>
              <trackindex>1</trackindex>
              <clipindex>15</clipindex>
              <groupindex>1</groupindex>
            </link>
          </clipitem>
          <clipitem id="vclipitem-66">
            <masterclipid>masterclip-67</masterclipid>
            <name>райан гослинг.png</name>
            <enabled>TRUE</enabled>
            <duration>250</duration>
            <rate>
              <timebase>50</timebase>
              <ntsc>FALSE</ntsc>
            </rate>
            <start>76500</start>
            <end>76750</end>
            <in>0</in>
            <out>250</out>
            <alphatype>straight</alphatype>
            <pixelaspectratio>square</pixelaspectratio>
            <anamorphic>FALSE</anamorphic>
            <file id="file-67">
              <name>райан гослинг.png</name>
              <pathurl>file:///C:/Users/Nemifist/YandexDisk/PAMPAM/%D0%9C%D0%B0%D0%BD%D0%B4%D0%B0%D0%BB%D0%BE%D1%80%D0%B5%D1%86/%D1%80%D0%B0%D0%B9%D0%B0%D0%BD%20%D0%B3%D0%BE%D1%81%D0%BB%D0%B8%D0%BD%D0%B3.png</pathurl>
              <rate>
                <timebase>50</timebase>
                <ntsc>FALSE</ntsc>
              </rate>
              <duration>250</duration>
              <timecode>
                <rate>
                  <timebase>50</timebase>
                  <ntsc>FALSE</ntsc>
                </rate>
                <string>00:00:00:00</string>
                <frame>0</frame>
                <displayformat>NDF</displayformat>
              </timecode>
              <media>
                <video>
                  <samplecharacteristics>
                    <rate>
                      <timebase>50</timebase>
                      <ntsc>FALSE</ntsc>
                    </rate>
                    <width>960</width>
                    <height>960</height>
                    <anamorphic>FALSE</anamorphic>
                    <pixelaspectratio>square</pixelaspectratio>
                    <fielddominance>none</fielddominance>
                  </samplecharacteristics>
                </video>
              </media>
            </file>
            <filter>
              <effect>
                <name>Basic Motion</name>
                <effectid>basic</effectid>
                <effectcategory>motion</effectcategory>
                <effecttype>motion</effecttype>
                <mediatype>video</mediatype>
                <pproBypass>false</pproBypass>
                <parameter authoringApp="PremierePro">
                  <parameterid>scale</parameterid>
                  <name>Scale</name>
                  <valuemin>0</valuemin>
                  <valuemax>1000</valuemax>
                  <value>100</value>
                </parameter>
                <parameter authoringApp="PremierePro">
                  <parameterid>rotation</parameterid>
                  <name>Rotation</name>
                  <valuemin>-8640</valuemin>
                  <valuemax>8640</valuemax>
                  <value>0</value>
                </parameter>
                <parameter authoringApp="PremierePro">
                  <parameterid>center</parameterid>
                  <name>Center</name>
                  <value>
                    <horiz>-0.25</horiz>
                    <vert>0</vert>
                  </value>
                </parameter>
                <parameter authoringApp="PremierePro">
                  <parameterid>centerOffset</parameterid>
                  <name>Anchor Point</name>
                  <value>
                    <horiz>0</horiz>
                    <vert>0</vert>
                  </value>
                </parameter>
                <parameter authoringApp="PremierePro">
                  <parameterid>antiflicker</parameterid>
                  <name>Anti-flicker Filter</name>
                  <valuemin>0.0</valuemin>
                  <valuemax>1.0</valuemax>
                  <value>0</value>
                </parameter>
              </effect>
            </filter>
            <link>
              <linkclipref>vclipitem-66</linkclipref>
              <mediatype>video</mediatype>
              <trackindex>1</trackindex>
              <clipindex>66</clipindex>
            </link>
          </clipitem>
          <clipitem id="vclipitem-67">
            <masterclipid>masterclip-68</masterclipid>
            <name>arrow_181537_180226.png</name>
            <enabled>TRUE</enabled>
            <duration>250</duration>
            <rate>
              <timebase>50</timebase>
              <ntsc>FALSE</ntsc>
            </rate>
            <start>76750</start>
            <end>77000</end>
            <in>0</in>
            <out>250</out>
            <alphatype>straight</alphatype>
            <pixelaspectratio>square</pixelaspectratio>
            <anamorphic>FALSE</anamorphic>
            <file id="file-68">
              <name>arrow_181537_180226.png</name>
              <pathurl>file:///C:/Users/Nemifist/YandexDisk/PAMPAM/%D0%9C%D0%B0%D0%BD%D0%B4%D0%B0%D0%BB%D0%BE%D1%80%D0%B5%D1%86/arrow_181537_180226.png</pathurl>
              <rate>
                <timebase>50</timebase>
                <ntsc>FALSE</ntsc>
              </rate>
              <duration>250</duration>
              <timecode>
                <rate>
                  <timebase>50</timebase>
                  <ntsc>FALSE</ntsc>
                </rate>
                <string>00:00:00:00</string>
                <frame>0</frame>
                <displayformat>NDF</displayformat>
              </timecode>
              <media>
                <video>
                  <samplecharacteristics>
                    <rate>
                      <timebase>50</timebase>
                      <ntsc>FALSE</ntsc>
                    </rate>
                    <width>960</width>
                    <height>960</height>
                    <anamorphic>FALSE</anamorphic>
                    <pixelaspectratio>square</pixelaspectratio>
                    <fielddominance>none</fielddominance>
                  </samplecharacteristics>
                </video>
              </media>
            </file>
            <filter>
              <effect>
                <name>Basic Motion</name>
                <effectid>basic</effectid>
                <effectcategory>motion</effectcategory>
                <effecttype>motion</effecttype>
                <mediatype>video</mediatype>
                <pproBypass>false</pproBypass>
                <parameter authoringApp="PremierePro">
                  <parameterid>scale</parameterid>
                  <name>Scale</name>
                  <valuemin>0</valuemin>
                  <valuemax>1000</valuemax>
                  <value>100</value>
                </parameter>
                <parameter authoringApp="PremierePro">
                  <parameterid>rotation</parameterid>
                  <name>Rotation</name>
                  <valuemin>-8640</valuemin>
                  <valuemax>8640</valuemax>
                  <value>0</value>
                </parameter>
                <parameter authoringApp="PremierePro">
                  <parameterid>center</parameterid>
                  <name>Center</name>
                  <value>
                    <horiz>-0.25</horiz>
                    <vert>0</vert>
                  </value>
                </parameter>
                <parameter authoringApp="PremierePro">
                  <parameterid>centerOffset</parameterid>
                  <name>Anchor Point</name>
                  <value>
                    <horiz>0</horiz>
                    <vert>0</vert>
                  </value>
                </parameter>
                <parameter authoringApp="PremierePro">
                  <parameterid>antiflicker</parameterid>
                  <name>Anti-flicker Filter</name>
                  <valuemin>0.0</valuemin>
                  <valuemax>1.0</valuemax>
                  <value>0</value>
                </parameter>
              </effect>
            </filter>
            <link>
              <linkclipref>vclipitem-67</linkclipref>
              <mediatype>video</mediatype>
              <trackindex>1</trackindex>
              <clipindex>67</clipindex>
            </link>
          </clipitem>
          <clipitem id="vclipitem-68">
            <masterclipid>masterclip-69</masterclipid>
            <name>Why do we pass gas？ - Purna Kashyap [GTvnjaUU6Xk].mp4</name>
            <enabled>TRUE</enabled>
            <duration>450</duration>
            <rate>
              <timebase>50</timebase>
              <ntsc>FALSE</ntsc>
            </rate>
            <start>77850</start>
            <end>78300</end>
            <in>0</in>
            <out>450</out>
            <alphatype>none</alphatype>
            <pixelaspectratio>square</pixelaspectratio>
            <anamorphic>FALSE</anamorphic>
            <file id="file-69">
              <name>Why do we pass gas？ - Purna Kashyap [GTvnjaUU6Xk].mp4</name>
              <pathurl>file:///C:/Users/Nemifist/YandexDisk/PAMPAM/%D0%A3%D0%BC%D0%BD%D1%8B%D0%B5%20%D1%82%D1%80%D1%83%D1%81%D1%8B/Why%20do%20we%20pass%20gas%EF%BC%9F%20-%20Purna%20Kashyap%20%5BGTvnjaUU6Xk%5D.mp4</pathurl>
              <rate>
                <timebase>50</timebase>
                <ntsc>FALSE</ntsc>
              </rate>
              <duration>450</duration>
              <timecode>
                <rate>
                  <timebase>50</timebase>
                  <ntsc>FALSE</ntsc>
                </rate>
                <string>00:00:00:00</string>
                <frame>0</frame>
                <displayformat>NDF</displayformat>
              </timecode>
              <media>
                <video>
                  <samplecharacteristics>
                    <rate>
                      <timebase>50</timebase>
                      <ntsc>FALSE</ntsc>
                    </rate>
                    <width>1920</width>
                    <height>1080</height>
                    <anamorphic>FALSE</anamorphic>
                    <pixelaspectratio>square</pixelaspectratio>
                    <fielddominance>none</fielddominance>
                  </samplecharacteristics>
                </video>
                <audio>
                  <samplecharacteristics>
                    <depth>16</depth>
                    <samplerate>48000</samplerate>
                  </samplecharacteristics>
                  <channelcount>2</channelcount>
                </audio>
              </media>
            </file>
            <filter>
              <effect>
                <name>Basic Motion</name>
                <effectid>basic</effectid>
                <effectcategory>motion</effectcategory>
                <effecttype>motion</effecttype>
                <mediatype>video</mediatype>
                <pproBypass>false</pproBypass>
                <parameter authoringApp="PremierePro">
                  <parameterid>scale</parameterid>
                  <name>Scale</name>
                  <valuemin>0</valuemin>
                  <valuemax>1000</valuemax>
                  <value>100</value>
                </parameter>
                <parameter authoringApp="PremierePro">
                  <parameterid>rotation</parameterid>
                  <name>Rotation</name>
                  <valuemin>-8640</valuemin>
                  <valuemax>8640</valuemax>
                  <value>0</value>
                </parameter>
                <parameter authoringApp="PremierePro">
                  <parameterid>center</parameterid>
                  <name>Center</name>
                  <value>
                    <horiz>0</horiz>
                    <vert>0</vert>
                  </value>
                </parameter>
                <parameter authoringApp="PremierePro">
                  <parameterid>centerOffset</parameterid>
                  <name>Anchor Point</name>
                  <value>
                    <horiz>0</horiz>
                    <vert>0</vert>
                  </value>
                </parameter>
                <parameter authoringApp="PremierePro">
                  <parameterid>antiflicker</parameterid>
                  <name>Anti-flicker Filter</name>
                  <valuemin>0.0</valuemin>
                  <valuemax>1.0</valuemax>
                  <value>0</value>
                </parameter>
              </effect>
            </filter>
            <link>
              <linkclipref>vclipitem-68</linkclipref>
              <mediatype>video</mediatype>
              <trackindex>1</trackindex>
              <clipindex>68</clipindex>
            </link>
            <link>
              <linkclipref>aclipitem-16</linkclipref>
              <mediatype>audio</mediatype>
              <trackindex>1</trackindex>
              <clipindex>16</clipindex>
              <groupindex>1</groupindex>
            </link>
          </clipitem>
          <clipitem id="vclipitem-69">
            <masterclipid>masterclip-70</masterclipid>
            <name>arrow_025907_180226.png</name>
            <enabled>TRUE</enabled>
            <duration>250</duration>
            <rate>
              <timebase>50</timebase>
              <ntsc>FALSE</ntsc>
            </rate>
            <start>80850</start>
            <end>81100</end>
            <in>0</in>
            <out>250</out>
            <alphatype>straight</alphatype>
            <pixelaspectratio>square</pixelaspectratio>
            <anamorphic>FALSE</anamorphic>
            <file id="file-70">
              <name>arrow_025907_180226.png</name>
              <pathurl>file:///C:/Users/Nemifist/YandexDisk/PAMPAM/%D0%A3%D0%BC%D0%BD%D1%8B%D0%B5%20%D1%82%D1%80%D1%83%D1%81%D1%8B/arrow_025907_180226.png</pathurl>
              <rate>
                <timebase>50</timebase>
                <ntsc>FALSE</ntsc>
              </rate>
              <duration>250</duration>
              <timecode>
                <rate>
                  <timebase>50</timebase>
                  <ntsc>FALSE</ntsc>
                </rate>
                <string>00:00:00:00</string>
                <frame>0</frame>
                <displayformat>NDF</displayformat>
              </timecode>
              <media>
                <video>
                  <samplecharacteristics>
                    <rate>
                      <timebase>50</timebase>
                      <ntsc>FALSE</ntsc>
                    </rate>
                    <width>1920</width>
                    <height>1920</height>
                    <anamorphic>FALSE</anamorphic>
                    <pixelaspectratio>square</pixelaspectratio>
                    <fielddominance>none</fielddominance>
                  </samplecharacteristics>
                </video>
              </media>
            </file>
            <filter>
              <effect>
                <name>Basic Motion</name>
                <effectid>basic</effectid>
                <effectcategory>motion</effectcategory>
                <effecttype>motion</effecttype>
                <mediatype>video</mediatype>
                <pproBypass>false</pproBypass>
                <parameter authoringApp="PremierePro">
                  <parameterid>scale</parameterid>
                  <name>Scale</name>
                  <valuemin>0</valuemin>
                  <valuemax>1000</valuemax>
                  <value>50</value>
                </parameter>
                <parameter authoringApp="PremierePro">
                  <parameterid>rotation</parameterid>
                  <name>Rotation</name>
                  <valuemin>-8640</valuemin>
                  <valuemax>8640</valuemax>
                  <value>0</value>
                </parameter>
                <parameter authoringApp="PremierePro">
                  <parameterid>center</parameterid>
                  <name>Center</name>
                  <value>
                    <horiz>-0.25</horiz>
                    <vert>0</vert>
                  </value>
                </parameter>
                <parameter authoringApp="PremierePro">
                  <parameterid>centerOffset</parameterid>
                  <name>Anchor Point</name>
                  <value>
                    <horiz>0</horiz>
                    <vert>0</vert>
                  </value>
                </parameter>
                <parameter authoringApp="PremierePro">
                  <parameterid>antiflicker</parameterid>
                  <name>Anti-flicker Filter</name>
                  <valuemin>0.0</valuemin>
                  <valuemax>1.0</valuemax>
                  <value>0</value>
                </parameter>
              </effect>
            </filter>
            <link>
              <linkclipref>vclipitem-69</linkclipref>
              <mediatype>video</mediatype>
              <trackindex>1</trackindex>
              <clipindex>69</clipindex>
            </link>
          </clipitem>
          <clipitem id="vclipitem-70">
            <masterclipid>masterclip-71</masterclipid>
            <name>arrow_025957_180226.png</name>
            <enabled>TRUE</enabled>
            <duration>300</duration>
            <rate>
              <timebase>50</timebase>
              <ntsc>FALSE</ntsc>
            </rate>
            <start>81100</start>
            <end>81400</end>
            <in>0</in>
            <out>300</out>
            <alphatype>straight</alphatype>
            <pixelaspectratio>square</pixelaspectratio>
            <anamorphic>FALSE</anamorphic>
            <file id="file-71">
              <name>arrow_025957_180226.png</name>
              <pathurl>file:///C:/Users/Nemifist/YandexDisk/PAMPAM/%D0%A3%D0%BC%D0%BD%D1%8B%D0%B5%20%D1%82%D1%80%D1%83%D1%81%D1%8B/arrow_025957_180226.png</pathurl>
              <rate>
                <timebase>50</timebase>
                <ntsc>FALSE</ntsc>
              </rate>
              <duration>300</duration>
              <timecode>
                <rate>
                  <timebase>50</timebase>
                  <ntsc>FALSE</ntsc>
                </rate>
                <string>00:00:00:00</string>
                <frame>0</frame>
                <displayformat>NDF</displayformat>
              </timecode>
              <media>
                <video>
                  <samplecharacteristics>
                    <rate>
                      <timebase>50</timebase>
                      <ntsc>FALSE</ntsc>
                    </rate>
                    <width>3840</width>
                    <height>1920</height>
                    <anamorphic>FALSE</anamorphic>
                    <pixelaspectratio>square</pixelaspectratio>
                    <fielddominance>none</fielddominance>
                  </samplecharacteristics>
                </video>
              </media>
            </file>
            <filter>
              <effect>
                <name>Basic Motion</name>
                <effectid>basic</effectid>
                <effectcategory>motion</effectcategory>
                <effecttype>motion</effecttype>
                <mediatype>video</mediatype>
                <pproBypass>false</pproBypass>
                <parameter authoringApp="PremierePro">
                  <parameterid>scale</parameterid>
                  <name>Scale</name>
                  <valuemin>0</valuemin>
                  <valuemax>1000</valuemax>
                  <value>45</value>
                </parameter>
                <parameter authoringApp="PremierePro">
                  <parameterid>rotation</parameterid>
                  <name>Rotation</name>
                  <valuemin>-8640</valuemin>
                  <valuemax>8640</valuemax>
                  <value>0</value>
                </parameter>
                <parameter authoringApp="PremierePro">
                  <parameterid>center</parameterid>
                  <name>Center</name>
                  <value>
                    <horiz>0</horiz>
                    <vert>0</vert>
                  </value>
                </parameter>
                <parameter authoringApp="PremierePro">
                  <parameterid>centerOffset</parameterid>
                  <name>Anchor Point</name>
                  <value>
                    <horiz>0</horiz>
                    <vert>0</vert>
                  </value>
                </parameter>
                <parameter authoringApp="PremierePro">
                  <parameterid>antiflicker</parameterid>
                  <name>Anti-flicker Filter</name>
                  <valuemin>0.0</valuemin>
                  <valuemax>1.0</valuemax>
                  <value>0</value>
                </parameter>
              </effect>
            </filter>
            <link>
              <linkclipref>vclipitem-70</linkclipref>
              <mediatype>video</mediatype>
              <trackindex>1</trackindex>
              <clipindex>70</clipindex>
            </link>
          </clipitem>
          <clipitem id="vclipitem-71">
            <masterclipid>masterclip-72</masterclipid>
            <name>arrow_030020_180226.png</name>
            <enabled>TRUE</enabled>
            <duration>250</duration>
            <rate>
              <timebase>50</timebase>
              <ntsc>FALSE</ntsc>
            </rate>
            <start>81400</start>
            <end>81650</end>
            <in>0</in>
            <out>250</out>
            <alphatype>straight</alphatype>
            <pixelaspectratio>square</pixelaspectratio>
            <anamorphic>FALSE</anamorphic>
            <file id="file-72">
              <name>arrow_030020_180226.png</name>
              <pathurl>file:///C:/Users/Nemifist/YandexDisk/PAMPAM/%D0%A3%D0%BC%D0%BD%D1%8B%D0%B5%20%D1%82%D1%80%D1%83%D1%81%D1%8B/arrow_030020_180226.png</pathurl>
              <rate>
                <timebase>50</timebase>
                <ntsc>FALSE</ntsc>
              </rate>
              <duration>250</duration>
              <timecode>
                <rate>
                  <timebase>50</timebase>
                  <ntsc>FALSE</ntsc>
                </rate>
                <string>00:00:00:00</string>
                <frame>0</frame>
                <displayformat>NDF</displayformat>
              </timecode>
              <media>
                <video>
                  <samplecharacteristics>
                    <rate>
                      <timebase>50</timebase>
                      <ntsc>FALSE</ntsc>
                    </rate>
                    <width>3840</width>
                    <height>1920</height>
                    <anamorphic>FALSE</anamorphic>
                    <pixelaspectratio>square</pixelaspectratio>
                    <fielddominance>none</fielddominance>
                  </samplecharacteristics>
                </video>
              </media>
            </file>
            <filter>
              <effect>
                <name>Basic Motion</name>
                <effectid>basic</effectid>
                <effectcategory>motion</effectcategory>
                <effecttype>motion</effecttype>
                <mediatype>video</mediatype>
                <pproBypass>false</pproBypass>
                <parameter authoringApp="PremierePro">
                  <parameterid>scale</parameterid>
                  <name>Scale</name>
                  <valuemin>0</valuemin>
                  <valuemax>1000</valuemax>
                  <value>45</value>
                </parameter>
                <parameter authoringApp="PremierePro">
                  <parameterid>rotation</parameterid>
                  <name>Rotation</name>
                  <valuemin>-8640</valuemin>
                  <valuemax>8640</valuemax>
                  <value>0</value>
                </parameter>
                <parameter authoringApp="PremierePro">
                  <parameterid>center</parameterid>
                  <name>Center</name>
                  <value>
                    <horiz>0</horiz>
                    <vert>0</vert>
                  </value>
                </parameter>
                <parameter authoringApp="PremierePro">
                  <parameterid>centerOffset</parameterid>
                  <name>Anchor Point</name>
                  <value>
                    <horiz>0</horiz>
                    <vert>0</vert>
                  </value>
                </parameter>
                <parameter authoringApp="PremierePro">
                  <parameterid>antiflicker</parameterid>
                  <name>Anti-flicker Filter</name>
                  <valuemin>0.0</valuemin>
                  <valuemax>1.0</valuemax>
                  <value>0</value>
                </parameter>
              </effect>
            </filter>
            <link>
              <linkclipref>vclipitem-71</linkclipref>
              <mediatype>video</mediatype>
              <trackindex>1</trackindex>
              <clipindex>71</clipindex>
            </link>
          </clipitem>
          <clipitem id="vclipitem-72">
            <masterclipid>masterclip-73</masterclipid>
            <name>arrow_030158_180226.png</name>
            <enabled>TRUE</enabled>
            <duration>250</duration>
            <rate>
              <timebase>50</timebase>
              <ntsc>FALSE</ntsc>
            </rate>
            <start>82350</start>
            <end>82600</end>
            <in>0</in>
            <out>250</out>
            <alphatype>straight</alphatype>
            <pixelaspectratio>square</pixelaspectratio>
            <anamorphic>FALSE</anamorphic>
            <file id="file-73">
              <name>arrow_030158_180226.png</name>
              <pathurl>file:///C:/Users/Nemifist/YandexDisk/PAMPAM/%D0%A3%D0%BC%D0%BD%D1%8B%D0%B5%20%D1%82%D1%80%D1%83%D1%81%D1%8B/arrow_030158_180226.png</pathurl>
              <rate>
                <timebase>50</timebase>
                <ntsc>FALSE</ntsc>
              </rate>
              <duration>250</duration>
              <timecode>
                <rate>
                  <timebase>50</timebase>
                  <ntsc>FALSE</ntsc>
                </rate>
                <string>00:00:00:00</string>
                <frame>0</frame>
                <displayformat>NDF</displayformat>
              </timecode>
              <media>
                <video>
                  <samplecharacteristics>
                    <rate>
                      <timebase>50</timebase>
                      <ntsc>FALSE</ntsc>
                    </rate>
                    <width>3840</width>
                    <height>1920</height>
                    <anamorphic>FALSE</anamorphic>
                    <pixelaspectratio>square</pixelaspectratio>
                    <fielddominance>none</fielddominance>
                  </samplecharacteristics>
                </video>
              </media>
            </file>
            <filter>
              <effect>
                <name>Basic Motion</name>
                <effectid>basic</effectid>
                <effectcategory>motion</effectcategory>
                <effecttype>motion</effecttype>
                <mediatype>video</mediatype>
                <pproBypass>false</pproBypass>
                <parameter authoringApp="PremierePro">
                  <parameterid>scale</parameterid>
                  <name>Scale</name>
                  <valuemin>0</valuemin>
                  <valuemax>1000</valuemax>
                  <value>45</value>
                </parameter>
                <parameter authoringApp="PremierePro">
                  <parameterid>rotation</parameterid>
                  <name>Rotation</name>
                  <valuemin>-8640</valuemin>
                  <valuemax>8640</valuemax>
                  <value>0</value>
                </parameter>
                <parameter authoringApp="PremierePro">
                  <parameterid>center</parameterid>
                  <name>Center</name>
                  <value>
                    <horiz>0</horiz>
                    <vert>0</vert>
                  </value>
                </parameter>
                <parameter authoringApp="PremierePro">
                  <parameterid>centerOffset</parameterid>
                  <name>Anchor Point</name>
                  <value>
                    <horiz>0</horiz>
                    <vert>0</vert>
                  </value>
                </parameter>
                <parameter authoringApp="PremierePro">
                  <parameterid>antiflicker</parameterid>
                  <name>Anti-flicker Filter</name>
                  <valuemin>0.0</valuemin>
                  <valuemax>1.0</valuemax>
                  <value>0</value>
                </parameter>
              </effect>
            </filter>
            <link>
              <linkclipref>vclipitem-72</linkclipref>
              <mediatype>video</mediatype>
              <trackindex>1</trackindex>
              <clipindex>72</clipindex>
            </link>
          </clipitem>
          <clipitem id="vclipitem-73">
            <masterclipid>masterclip-74</masterclipid>
            <name>arrow_031004_180226.png</name>
            <enabled>TRUE</enabled>
            <duration>400</duration>
            <rate>
              <timebase>50</timebase>
              <ntsc>FALSE</ntsc>
            </rate>
            <start>82600</start>
            <end>83000</end>
            <in>0</in>
            <out>400</out>
            <alphatype>straight</alphatype>
            <pixelaspectratio>square</pixelaspectratio>
            <anamorphic>FALSE</anamorphic>
            <file id="file-74">
              <name>arrow_031004_180226.png</name>
              <pathurl>file:///C:/Users/Nemifist/YandexDisk/PAMPAM/%D0%A3%D0%BC%D0%BD%D1%8B%D0%B5%20%D1%82%D1%80%D1%83%D1%81%D1%8B/arrow_031004_180226.png</pathurl>
              <rate>
                <timebase>50</timebase>
                <ntsc>FALSE</ntsc>
              </rate>
              <duration>400</duration>
              <timecode>
                <rate>
                  <timebase>50</timebase>
                  <ntsc>FALSE</ntsc>
                </rate>
                <string>00:00:00:00</string>
                <frame>0</frame>
                <displayformat>NDF</displayformat>
              </timecode>
              <media>
                <video>
                  <samplecharacteristics>
                    <rate>
                      <timebase>50</timebase>
                      <ntsc>FALSE</ntsc>
                    </rate>
                    <width>960</width>
                    <height>960</height>
                    <anamorphic>FALSE</anamorphic>
                    <pixelaspectratio>square</pixelaspectratio>
                    <fielddominance>none</fielddominance>
                  </samplecharacteristics>
                </video>
              </media>
            </file>
            <filter>
              <effect>
                <name>Basic Motion</name>
                <effectid>basic</effectid>
                <effectcategory>motion</effectcategory>
                <effecttype>motion</effecttype>
                <mediatype>video</mediatype>
                <pproBypass>false</pproBypass>
                <parameter authoringApp="PremierePro">
                  <parameterid>scale</parameterid>
                  <name>Scale</name>
                  <valuemin>0</valuemin>
                  <valuemax>1000</valuemax>
                  <value>100</value>
                </parameter>
                <parameter authoringApp="PremierePro">
                  <parameterid>rotation</parameterid>
                  <name>Rotation</name>
                  <valuemin>-8640</valuemin>
                  <valuemax>8640</valuemax>
                  <value>0</value>
                </parameter>
                <parameter authoringApp="PremierePro">
                  <parameterid>center</parameterid>
                  <name>Center</name>
                  <value>
                    <horiz>-0.25</horiz>
                    <vert>0</vert>
                  </value>
                </parameter>
                <parameter authoringApp="PremierePro">
                  <parameterid>centerOffset</parameterid>
                  <name>Anchor Point</name>
                  <value>
                    <horiz>0</horiz>
                    <vert>0</vert>
                  </value>
                </parameter>
                <parameter authoringApp="PremierePro">
                  <parameterid>antiflicker</parameterid>
                  <name>Anti-flicker Filter</name>
                  <valuemin>0.0</valuemin>
                  <valuemax>1.0</valuemax>
                  <value>0</value>
                </parameter>
              </effect>
            </filter>
            <link>
              <linkclipref>vclipitem-73</linkclipref>
              <mediatype>video</mediatype>
              <trackindex>1</trackindex>
              <clipindex>73</clipindex>
            </link>
          </clipitem>
          <clipitem id="vclipitem-74">
            <masterclipid>masterclip-75</masterclipid>
            <name>SP_Poster_01.png</name>
            <enabled>TRUE</enabled>
            <duration>250</duration>
            <rate>
              <timebase>50</timebase>
              <ntsc>FALSE</ntsc>
            </rate>
            <start>84900</start>
            <end>85150</end>
            <in>0</in>
            <out>250</out>
            <alphatype>straight</alphatype>
            <pixelaspectratio>square</pixelaspectratio>
            <anamorphic>FALSE</anamorphic>
            <file id="file-75">
              <name>SP_Poster_01.png</name>
              <pathurl>file:///C:/Users/Nemifist/YandexDisk/PAMPAM/%D0%A1%D0%BB%D0%BE%D0%B2%D0%BE%20%D0%BF%D0%B0%D1%86%D0%B0%D0%BD%D0%B0/SP_Poster_01.png</pathurl>
              <rate>
                <timebase>50</timebase>
                <ntsc>FALSE</ntsc>
              </rate>
              <duration>250</duration>
              <timecode>
                <rate>
                  <timebase>50</timebase>
                  <ntsc>FALSE</ntsc>
                </rate>
                <string>00:00:00:00</string>
                <frame>0</frame>
                <displayformat>NDF</displayformat>
              </timecode>
              <media>
                <video>
                  <samplecharacteristics>
                    <rate>
                      <timebase>50</timebase>
                      <ntsc>FALSE</ntsc>
                    </rate>
                    <width>960</width>
                    <height>960</height>
                    <anamorphic>FALSE</anamorphic>
                    <pixelaspectratio>square</pixelaspectratio>
                    <fielddominance>none</fielddominance>
                  </samplecharacteristics>
                </video>
              </media>
            </file>
            <filter>
              <effect>
                <name>Basic Motion</name>
                <effectid>basic</effectid>
                <effectcategory>motion</effectcategory>
                <effecttype>motion</effecttype>
                <mediatype>video</mediatype>
                <pproBypass>false</pproBypass>
                <parameter authoringApp="PremierePro">
                  <parameterid>scale</parameterid>
                  <name>Scale</name>
                  <valuemin>0</valuemin>
                  <valuemax>1000</valuemax>
                  <value>100</value>
                </parameter>
                <parameter authoringApp="PremierePro">
                  <parameterid>rotation</parameterid>
                  <name>Rotation</name>
                  <valuemin>-8640</valuemin>
                  <valuemax>8640</valuemax>
                  <value>0</value>
                </parameter>
                <parameter authoringApp="PremierePro">
                  <parameterid>center</parameterid>
                  <name>Center</name>
                  <value>
                    <horiz>-0.25</horiz>
                    <vert>0</vert>
                  </value>
                </parameter>
                <parameter authoringApp="PremierePro">
                  <parameterid>centerOffset</parameterid>
                  <name>Anchor Point</name>
                  <value>
                    <horiz>0</horiz>
                    <vert>0</vert>
                  </value>
                </parameter>
                <parameter authoringApp="PremierePro">
                  <parameterid>antiflicker</parameterid>
                  <name>Anti-flicker Filter</name>
                  <valuemin>0.0</valuemin>
                  <valuemax>1.0</valuemax>
                  <value>0</value>
                </parameter>
              </effect>
            </filter>
            <link>
              <linkclipref>vclipitem-74</linkclipref>
              <mediatype>video</mediatype>
              <trackindex>1</trackindex>
              <clipindex>74</clipindex>
            </link>
          </clipitem>
          <clipitem id="vclipitem-75">
            <masterclipid>masterclip-76</masterclipid>
            <name>jora.png</name>
            <enabled>TRUE</enabled>
            <duration>250</duration>
            <rate>
              <timebase>50</timebase>
              <ntsc>FALSE</ntsc>
            </rate>
            <start>85150</start>
            <end>85400</end>
            <in>0</in>
            <out>250</out>
            <alphatype>straight</alphatype>
            <pixelaspectratio>square</pixelaspectratio>
            <anamorphic>FALSE</anamorphic>
            <file id="file-76">
              <name>jora.png</name>
              <pathurl>file:///C:/Users/Nemifist/YandexDisk/PAMPAM/%D0%A1%D0%BB%D0%BE%D0%B2%D0%BE%20%D0%BF%D0%B0%D1%86%D0%B0%D0%BD%D0%B0/jora.png</pathurl>
              <rate>
                <timebase>50</timebase>
                <ntsc>FALSE</ntsc>
              </rate>
              <duration>250</duration>
              <timecode>
                <rate>
                  <timebase>50</timebase>
                  <ntsc>FALSE</ntsc>
                </rate>
                <string>00:00:00:00</string>
                <frame>0</frame>
                <displayformat>NDF</displayformat>
              </timecode>
              <media>
                <video>
                  <samplecharacteristics>
                    <rate>
                      <timebase>50</timebase>
                      <ntsc>FALSE</ntsc>
                    </rate>
                    <width>960</width>
                    <height>960</height>
                    <anamorphic>FALSE</anamorphic>
                    <pixelaspectratio>square</pixelaspectratio>
                    <fielddominance>none</fielddominance>
                  </samplecharacteristics>
                </video>
              </media>
            </file>
            <filter>
              <effect>
                <name>Basic Motion</name>
                <effectid>basic</effectid>
                <effectcategory>motion</effectcategory>
                <effecttype>motion</effecttype>
                <mediatype>video</mediatype>
                <pproBypass>false</pproBypass>
                <parameter authoringApp="PremierePro">
                  <parameterid>scale</parameterid>
                  <name>Scale</name>
                  <valuemin>0</valuemin>
                  <valuemax>1000</valuemax>
                  <value>100</value>
                </parameter>
                <parameter authoringApp="PremierePro">
                  <parameterid>rotation</parameterid>
                  <name>Rotation</name>
                  <valuemin>-8640</valuemin>
                  <valuemax>8640</valuemax>
                  <value>0</value>
                </parameter>
                <parameter authoringApp="PremierePro">
                  <parameterid>center</parameterid>
                  <name>Center</name>
                  <value>
                    <horiz>-0.25</horiz>
                    <vert>0</vert>
                  </value>
                </parameter>
                <parameter authoringApp="PremierePro">
                  <parameterid>centerOffset</parameterid>
                  <name>Anchor Point</name>
                  <value>
                    <horiz>0</horiz>
                    <vert>0</vert>
                  </value>
                </parameter>
                <parameter authoringApp="PremierePro">
                  <parameterid>antiflicker</parameterid>
                  <name>Anti-flicker Filter</name>
                  <valuemin>0.0</valuemin>
                  <valuemax>1.0</valuemax>
                  <value>0</value>
                </parameter>
              </effect>
            </filter>
            <link>
              <linkclipref>vclipitem-75</linkclipref>
              <mediatype>video</mediatype>
              <trackindex>1</trackindex>
              <clipindex>75</clipindex>
            </link>
          </clipitem>
          <clipitem id="vclipitem-76">
            <masterclipid>masterclip-77</masterclipid>
            <name>Post_no_otmetka 2.png</name>
            <enabled>TRUE</enabled>
            <duration>250</duration>
            <rate>
              <timebase>50</timebase>
              <ntsc>FALSE</ntsc>
            </rate>
            <start>85400</start>
            <end>85650</end>
            <in>0</in>
            <out>250</out>
            <alphatype>straight</alphatype>
            <pixelaspectratio>square</pixelaspectratio>
            <anamorphic>FALSE</anamorphic>
            <file id="file-77">
              <name>Post_no_otmetka 2.png</name>
              <pathurl>file:///C:/Users/Nemifist/YandexDisk/PAMPAM/%D0%A1%D0%BB%D0%BE%D0%B2%D0%BE%20%D0%BF%D0%B0%D1%86%D0%B0%D0%BD%D0%B0/Post_no_otmetka%202.png</pathurl>
              <rate>
                <timebase>50</timebase>
                <ntsc>FALSE</ntsc>
              </rate>
              <duration>250</duration>
              <timecode>
                <rate>
                  <timebase>50</timebase>
                  <ntsc>FALSE</ntsc>
                </rate>
                <string>00:00:00:00</string>
                <frame>0</frame>
                <displayformat>NDF</displayformat>
              </timecode>
              <media>
                <video>
                  <samplecharacteristics>
                    <rate>
                      <timebase>50</timebase>
                      <ntsc>FALSE</ntsc>
                    </rate>
                    <width>960</width>
                    <height>960</height>
                    <anamorphic>FALSE</anamorphic>
                    <pixelaspectratio>square</pixelaspectratio>
                    <fielddominance>none</fielddominance>
                  </samplecharacteristics>
                </video>
              </media>
            </file>
            <filter>
              <effect>
                <name>Basic Motion</name>
                <effectid>basic</effectid>
                <effectcategory>motion</effectcategory>
                <effecttype>motion</effecttype>
                <mediatype>video</mediatype>
                <pproBypass>false</pproBypass>
                <parameter authoringApp="PremierePro">
                  <parameterid>scale</parameterid>
                  <name>Scale</name>
                  <valuemin>0</valuemin>
                  <valuemax>1000</valuemax>
                  <value>100</value>
                </parameter>
                <parameter authoringApp="PremierePro">
                  <parameterid>rotation</parameterid>
                  <name>Rotation</name>
                  <valuemin>-8640</valuemin>
                  <valuemax>8640</valuemax>
                  <value>0</value>
                </parameter>
                <parameter authoringApp="PremierePro">
                  <parameterid>center</parameterid>
                  <name>Center</name>
                  <value>
                    <horiz>-0.25</horiz>
                    <vert>0</vert>
                  </value>
                </parameter>
                <parameter authoringApp="PremierePro">
                  <parameterid>centerOffset</parameterid>
                  <name>Anchor Point</name>
                  <value>
                    <horiz>0</horiz>
                    <vert>0</vert>
                  </value>
                </parameter>
                <parameter authoringApp="PremierePro">
                  <parameterid>antiflicker</parameterid>
                  <name>Anti-flicker Filter</name>
                  <valuemin>0.0</valuemin>
                  <valuemax>1.0</valuemax>
                  <value>0</value>
                </parameter>
              </effect>
            </filter>
            <link>
              <linkclipref>vclipitem-76</linkclipref>
              <mediatype>video</mediatype>
              <trackindex>1</trackindex>
              <clipindex>76</clipindex>
            </link>
          </clipitem>
          <clipitem id="vclipitem-77">
            <masterclipid>masterclip-78</masterclipid>
            <name>Postotmetka2.png</name>
            <enabled>TRUE</enabled>
            <duration>250</duration>
            <rate>
              <timebase>50</timebase>
              <ntsc>FALSE</ntsc>
            </rate>
            <start>85650</start>
            <end>85900</end>
            <in>0</in>
            <out>250</out>
            <alphatype>straight</alphatype>
            <pixelaspectratio>square</pixelaspectratio>
            <anamorphic>FALSE</anamorphic>
            <file id="file-78">
              <name>Postotmetka2.png</name>
              <pathurl>file:///C:/Users/Nemifist/YandexDisk/PAMPAM/%D0%A1%D0%BB%D0%BE%D0%B2%D0%BE%20%D0%BF%D0%B0%D1%86%D0%B0%D0%BD%D0%B0/Postotmetka2.png</pathurl>
              <rate>
                <timebase>50</timebase>
                <ntsc>FALSE</ntsc>
              </rate>
              <duration>250</duration>
              <timecode>
                <rate>
                  <timebase>50</timebase>
                  <ntsc>FALSE</ntsc>
                </rate>
                <string>00:00:00:00</string>
                <frame>0</frame>
                <displayformat>NDF</displayformat>
              </timecode>
              <media>
                <video>
                  <samplecharacteristics>
                    <rate>
                      <timebase>50</timebase>
                      <ntsc>FALSE</ntsc>
                    </rate>
                    <width>960</width>
                    <height>960</height>
                    <anamorphic>FALSE</anamorphic>
                    <pixelaspectratio>square</pixelaspectratio>
                    <fielddominance>none</fielddominance>
                  </samplecharacteristics>
                </video>
              </media>
            </file>
            <filter>
              <effect>
                <name>Basic Motion</name>
                <effectid>basic</effectid>
                <effectcategory>motion</effectcategory>
                <effecttype>motion</effecttype>
                <mediatype>video</mediatype>
                <pproBypass>false</pproBypass>
                <parameter authoringApp="PremierePro">
                  <parameterid>scale</parameterid>
                  <name>Scale</name>
                  <valuemin>0</valuemin>
                  <valuemax>1000</valuemax>
                  <value>100</value>
                </parameter>
                <parameter authoringApp="PremierePro">
                  <parameterid>rotation</parameterid>
                  <name>Rotation</name>
                  <valuemin>-8640</valuemin>
                  <valuemax>8640</valuemax>
                  <value>0</value>
                </parameter>
                <parameter authoringApp="PremierePro">
                  <parameterid>center</parameterid>
                  <name>Center</name>
                  <value>
                    <horiz>-0.25</horiz>
                    <vert>0</vert>
                  </value>
                </parameter>
                <parameter authoringApp="PremierePro">
                  <parameterid>centerOffset</parameterid>
                  <name>Anchor Point</name>
                  <value>
                    <horiz>0</horiz>
                    <vert>0</vert>
                  </value>
                </parameter>
                <parameter authoringApp="PremierePro">
                  <parameterid>antiflicker</parameterid>
                  <name>Anti-flicker Filter</name>
                  <valuemin>0.0</valuemin>
                  <valuemax>1.0</valuemax>
                  <value>0</value>
                </parameter>
              </effect>
            </filter>
            <link>
              <linkclipref>vclipitem-77</linkclipref>
              <mediatype>video</mediatype>
              <trackindex>1</trackindex>
              <clipindex>77</clipindex>
            </link>
          </clipitem>
          <clipitem id="vclipitem-78">
            <masterclipid>masterclip-79</masterclipid>
            <name>SP_Adidas.png</name>
            <enabled>TRUE</enabled>
            <duration>250</duration>
            <rate>
              <timebase>50</timebase>
              <ntsc>FALSE</ntsc>
            </rate>
            <start>85900</start>
            <end>86150</end>
            <in>0</in>
            <out>250</out>
            <alphatype>straight</alphatype>
            <pixelaspectratio>square</pixelaspectratio>
            <anamorphic>FALSE</anamorphic>
            <file id="file-79">
              <name>SP_Adidas.png</name>
              <pathurl>file:///C:/Users/Nemifist/YandexDisk/PAMPAM/%D0%A1%D0%BB%D0%BE%D0%B2%D0%BE%20%D0%BF%D0%B0%D1%86%D0%B0%D0%BD%D0%B0/SP_Adidas.png</pathurl>
              <rate>
                <timebase>50</timebase>
                <ntsc>FALSE</ntsc>
              </rate>
              <duration>250</duration>
              <timecode>
                <rate>
                  <timebase>50</timebase>
                  <ntsc>FALSE</ntsc>
                </rate>
                <string>00:00:00:00</string>
                <frame>0</frame>
                <displayformat>NDF</displayformat>
              </timecode>
              <media>
                <video>
                  <samplecharacteristics>
                    <rate>
                      <timebase>50</timebase>
                      <ntsc>FALSE</ntsc>
                    </rate>
                    <width>960</width>
                    <height>960</height>
                    <anamorphic>FALSE</anamorphic>
                    <pixelaspectratio>square</pixelaspectratio>
                    <fielddominance>none</fielddominance>
                  </samplecharacteristics>
                </video>
              </media>
            </file>
            <filter>
              <effect>
                <name>Basic Motion</name>
                <effectid>basic</effectid>
                <effectcategory>motion</effectcategory>
                <effecttype>motion</effecttype>
                <mediatype>video</mediatype>
                <pproBypass>false</pproBypass>
                <parameter authoringApp="PremierePro">
                  <parameterid>scale</parameterid>
                  <name>Scale</name>
                  <valuemin>0</valuemin>
                  <valuemax>1000</valuemax>
                  <value>100</value>
                </parameter>
                <parameter authoringApp="PremierePro">
                  <parameterid>rotation</parameterid>
                  <name>Rotation</name>
                  <valuemin>-8640</valuemin>
                  <valuemax>8640</valuemax>
                  <value>0</value>
                </parameter>
                <parameter authoringApp="PremierePro">
                  <parameterid>center</parameterid>
                  <name>Center</name>
                  <value>
                    <horiz>-0.25</horiz>
                    <vert>0</vert>
                  </value>
                </parameter>
                <parameter authoringApp="PremierePro">
                  <parameterid>centerOffset</parameterid>
                  <name>Anchor Point</name>
                  <value>
                    <horiz>0</horiz>
                    <vert>0</vert>
                  </value>
                </parameter>
                <parameter authoringApp="PremierePro">
                  <parameterid>antiflicker</parameterid>
                  <name>Anti-flicker Filter</name>
                  <valuemin>0.0</valuemin>
                  <valuemax>1.0</valuemax>
                  <value>0</value>
                </parameter>
              </effect>
            </filter>
            <link>
              <linkclipref>vclipitem-78</linkclipref>
              <mediatype>video</mediatype>
              <trackindex>1</trackindex>
              <clipindex>78</clipindex>
            </link>
          </clipitem>
          <clipitem id="vclipitem-79">
            <masterclipid>masterclip-80</masterclipid>
            <name>SP_Kashey.png</name>
            <enabled>TRUE</enabled>
            <duration>300</duration>
            <rate>
              <timebase>50</timebase>
              <ntsc>FALSE</ntsc>
            </rate>
            <start>86150</start>
            <end>86450</end>
            <in>0</in>
            <out>300</out>
            <alphatype>straight</alphatype>
            <pixelaspectratio>square</pixelaspectratio>
            <anamorphic>FALSE</anamorphic>
            <file id="file-80">
              <name>SP_Kashey.png</name>
              <pathurl>file:///C:/Users/Nemifist/YandexDisk/PAMPAM/%D0%A1%D0%BB%D0%BE%D0%B2%D0%BE%20%D0%BF%D0%B0%D1%86%D0%B0%D0%BD%D0%B0/SP_Kashey.png</pathurl>
              <rate>
                <timebase>50</timebase>
                <ntsc>FALSE</ntsc>
              </rate>
              <duration>300</duration>
              <timecode>
                <rate>
                  <timebase>50</timebase>
                  <ntsc>FALSE</ntsc>
                </rate>
                <string>00:00:00:00</string>
                <frame>0</frame>
                <displayformat>NDF</displayformat>
              </timecode>
              <media>
                <video>
                  <samplecharacteristics>
                    <rate>
                      <timebase>50</timebase>
                      <ntsc>FALSE</ntsc>
                    </rate>
                    <width>960</width>
                    <height>960</height>
                    <anamorphic>FALSE</anamorphic>
                    <pixelaspectratio>square</pixelaspectratio>
                    <fielddominance>none</fielddominance>
                  </samplecharacteristics>
                </video>
              </media>
            </file>
            <filter>
              <effect>
                <name>Basic Motion</name>
                <effectid>basic</effectid>
                <effectcategory>motion</effectcategory>
                <effecttype>motion</effecttype>
                <mediatype>video</mediatype>
                <pproBypass>false</pproBypass>
                <parameter authoringApp="PremierePro">
                  <parameterid>scale</parameterid>
                  <name>Scale</name>
                  <valuemin>0</valuemin>
                  <valuemax>1000</valuemax>
                  <value>100</value>
                </parameter>
                <parameter authoringApp="PremierePro">
                  <parameterid>rotation</parameterid>
                  <name>Rotation</name>
                  <valuemin>-8640</valuemin>
                  <valuemax>8640</valuemax>
                  <value>0</value>
                </parameter>
                <parameter authoringApp="PremierePro">
                  <parameterid>center</parameterid>
                  <name>Center</name>
                  <value>
                    <horiz>-0.25</horiz>
                    <vert>0</vert>
                  </value>
                </parameter>
                <parameter authoringApp="PremierePro">
                  <parameterid>centerOffset</parameterid>
                  <name>Anchor Point</name>
                  <value>
                    <horiz>0</horiz>
                    <vert>0</vert>
                  </value>
                </parameter>
                <parameter authoringApp="PremierePro">
                  <parameterid>antiflicker</parameterid>
                  <name>Anti-flicker Filter</name>
                  <valuemin>0.0</valuemin>
                  <valuemax>1.0</valuemax>
                  <value>0</value>
                </parameter>
              </effect>
            </filter>
            <link>
              <linkclipref>vclipitem-79</linkclipref>
              <mediatype>video</mediatype>
              <trackindex>1</trackindex>
              <clipindex>79</clipindex>
            </link>
          </clipitem>
          <clipitem id="vclipitem-80">
            <masterclipid>masterclip-81</masterclipid>
            <name>Слово_пацана_Кровь_на_асфальте___Трейлер___Смотрите_на_START_с_9.mp4</name>
            <enabled>TRUE</enabled>
            <duration>450</duration>
            <rate>
              <timebase>50</timebase>
              <ntsc>FALSE</ntsc>
            </rate>
            <start>87050</start>
            <end>87500</end>
            <in>0</in>
            <out>450</out>
            <alphatype>none</alphatype>
            <pixelaspectratio>square</pixelaspectratio>
            <anamorphic>FALSE</anamorphic>
            <file id="file-81">
              <name>Слово_пацана_Кровь_на_асфальте___Трейлер___Смотрите_на_START_с_9.mp4</name>
              <pathurl>file:///C:/Users/Nemifist/YandexDisk/PAMPAM/%D0%A1%D0%BB%D0%BE%D0%B2%D0%BE%20%D0%BF%D0%B0%D1%86%D0%B0%D0%BD%D0%B0/%D0%A1%D0%BB%D0%BE%D0%B2%D0%BE_%D0%BF%D0%B0%D1%86%D0%B0%D0%BD%D0%B0_%D0%9A%D1%80%D0%BE%D0%B2%D1%8C_%D0%BD%D0%B0_%D0%B0%D1%81%D1%84%D0%B0%D0%BB%D1%8C%D1%82%D0%B5___%D0%A2%D1%80%D0%B5%D0%B9%D0%BB%D0%B5%D1%80___%D0%A1%D0%BC%D0%BE%D1%82%D1%80%D0%B8%D1%82%D0%B5_%D0%BD%D0%B0_START_%D1%81_9.mp4</pathurl>
              <rate>
                <timebase>50</timebase>
                <ntsc>FALSE</ntsc>
              </rate>
              <duration>450</duration>
              <timecode>
                <rate>
                  <timebase>50</timebase>
                  <ntsc>FALSE</ntsc>
                </rate>
                <string>00:00:00:00</string>
                <frame>0</frame>
                <displayformat>NDF</displayformat>
              </timecode>
              <media>
                <video>
                  <samplecharacteristics>
                    <rate>
                      <timebase>50</timebase>
                      <ntsc>FALSE</ntsc>
                    </rate>
                    <width>1920</width>
                    <height>1080</height>
                    <anamorphic>FALSE</anamorphic>
                    <pixelaspectratio>square</pixelaspectratio>
                    <fielddominance>none</fielddominance>
                  </samplecharacteristics>
                </video>
                <audio>
                  <samplecharacteristics>
                    <depth>16</depth>
                    <samplerate>48000</samplerate>
                  </samplecharacteristics>
                  <channelcount>2</channelcount>
                </audio>
              </media>
            </file>
            <filter>
              <effect>
                <name>Basic Motion</name>
                <effectid>basic</effectid>
                <effectcategory>motion</effectcategory>
                <effecttype>motion</effecttype>
                <mediatype>video</mediatype>
                <pproBypass>false</pproBypass>
                <parameter authoringApp="PremierePro">
                  <parameterid>scale</parameterid>
                  <name>Scale</name>
                  <valuemin>0</valuemin>
                  <valuemax>1000</valuemax>
                  <value>100</value>
                </parameter>
                <parameter authoringApp="PremierePro">
                  <parameterid>rotation</parameterid>
                  <name>Rotation</name>
                  <valuemin>-8640</valuemin>
                  <valuemax>8640</valuemax>
                  <value>0</value>
                </parameter>
                <parameter authoringApp="PremierePro">
                  <parameterid>center</parameterid>
                  <name>Center</name>
                  <value>
                    <horiz>0</horiz>
                    <vert>0</vert>
                  </value>
                </parameter>
                <parameter authoringApp="PremierePro">
                  <parameterid>centerOffset</parameterid>
                  <name>Anchor Point</name>
                  <value>
                    <horiz>0</horiz>
                    <vert>0</vert>
                  </value>
                </parameter>
                <parameter authoringApp="PremierePro">
                  <parameterid>antiflicker</parameterid>
                  <name>Anti-flicker Filter</name>
                  <valuemin>0.0</valuemin>
                  <valuemax>1.0</valuemax>
                  <value>0</value>
                </parameter>
              </effect>
            </filter>
            <link>
              <linkclipref>vclipitem-80</linkclipref>
              <mediatype>video</mediatype>
              <trackindex>1</trackindex>
              <clipindex>80</clipindex>
            </link>
            <link>
              <linkclipref>aclipitem-17</linkclipref>
              <mediatype>audio</mediatype>
              <trackindex>1</trackindex>
              <clipindex>17</clipindex>
              <groupindex>1</groupindex>
            </link>
          </clipitem>
          <clipitem id="vclipitem-81">
            <masterclipid>masterclip-82</masterclipid>
            <name>SP_FakeCasting.png</name>
            <enabled>TRUE</enabled>
            <duration>400</duration>
            <rate>
              <timebase>50</timebase>
              <ntsc>FALSE</ntsc>
            </rate>
            <start>88500</start>
            <end>88900</end>
            <in>0</in>
            <out>400</out>
            <alphatype>straight</alphatype>
            <pixelaspectratio>square</pixelaspectratio>
            <anamorphic>FALSE</anamorphic>
            <file id="file-82">
              <name>SP_FakeCasting.png</name>
              <pathurl>file:///C:/Users/Nemifist/YandexDisk/PAMPAM/%D0%A1%D0%BB%D0%BE%D0%B2%D0%BE%20%D0%BF%D0%B0%D1%86%D0%B0%D0%BD%D0%B0/SP_FakeCasting.png</pathurl>
              <rate>
                <timebase>50</timebase>
                <ntsc>FALSE</ntsc>
              </rate>
              <duration>400</duration>
              <timecode>
                <rate>
                  <timebase>50</timebase>
                  <ntsc>FALSE</ntsc>
                </rate>
                <string>00:00:00:00</string>
                <frame>0</frame>
                <displayformat>NDF</displayformat>
              </timecode>
              <media>
                <video>
                  <samplecharacteristics>
                    <rate>
                      <timebase>50</timebase>
                      <ntsc>FALSE</ntsc>
                    </rate>
                    <width>1920</width>
                    <height>676</height>
                    <anamorphic>FALSE</anamorphic>
                    <pixelaspectratio>square</pixelaspectratio>
                    <fielddominance>none</fielddominance>
                  </samplecharacteristics>
                </video>
              </media>
            </file>
            <filter>
              <effect>
                <name>Basic Motion</name>
                <effectid>basic</effectid>
                <effectcategory>motion</effectcategory>
                <effecttype>motion</effecttype>
                <mediatype>video</mediatype>
                <pproBypass>false</pproBypass>
                <parameter authoringApp="PremierePro">
                  <parameterid>scale</parameterid>
                  <name>Scale</name>
                  <valuemin>0</valuemin>
                  <valuemax>1000</valuemax>
                  <value>90</value>
                </parameter>
                <parameter authoringApp="PremierePro">
                  <parameterid>rotation</parameterid>
                  <name>Rotation</name>
                  <valuemin>-8640</valuemin>
                  <valuemax>8640</valuemax>
                  <value>0</value>
                </parameter>
                <parameter authoringApp="PremierePro">
                  <parameterid>center</parameterid>
                  <name>Center</name>
                  <value>
                    <horiz>0</horiz>
                    <vert>0</vert>
                  </value>
                </parameter>
                <parameter authoringApp="PremierePro">
                  <parameterid>centerOffset</parameterid>
                  <name>Anchor Point</name>
                  <value>
                    <horiz>0</horiz>
                    <vert>0</vert>
                  </value>
                </parameter>
                <parameter authoringApp="PremierePro">
                  <parameterid>antiflicker</parameterid>
                  <name>Anti-flicker Filter</name>
                  <valuemin>0.0</valuemin>
                  <valuemax>1.0</valuemax>
                  <value>0</value>
                </parameter>
              </effect>
            </filter>
            <link>
              <linkclipref>vclipitem-81</linkclipref>
              <mediatype>video</mediatype>
              <trackindex>1</trackindex>
              <clipindex>81</clipindex>
            </link>
          </clipitem>
          <clipitem id="vclipitem-82">
            <masterclipid>masterclip-83</masterclipid>
            <name>_СРОЧНО_Доказано_отравление_Навального_Обращение_Юлии_Навальной.mp4</name>
            <enabled>TRUE</enabled>
            <duration>500</duration>
            <rate>
              <timebase>50</timebase>
              <ntsc>FALSE</ntsc>
            </rate>
            <start>90350</start>
            <end>90850</end>
            <in>0</in>
            <out>500</out>
            <alphatype>none</alphatype>
            <pixelaspectratio>square</pixelaspectratio>
            <anamorphic>FALSE</anamorphic>
            <file id="file-83">
              <name>_СРОЧНО_Доказано_отравление_Навального_Обращение_Юлии_Навальной.mp4</name>
              <pathurl>file:///C:/Users/Nemifist/YandexDisk/PAMPAM/%D0%A0%D0%B5%D0%B7%D1%83%D0%BB%D1%8C%D1%82%D0%B0%D1%82%D1%8B%20%D0%BE%D1%82%D1%80%D0%B0%D0%B2%D0%BB%D0%B5%D0%BD%D0%B8%D1%8F%20%D0%9D%D0%B0%D0%B2%D0%B0%D0%BB%D1%8C%D0%BD%D0%BE%D0%B3%D0%BE/_%D0%A1%D0%A0%D0%9E%D0%A7%D0%9D%D0%9E_%D0%94%D0%BE%D0%BA%D0%B0%D0%B7%D0%B0%D0%BD%D0%BE_%D0%BE%D1%82%D1%80%D0%B0%D0%B2%D0%BB%D0%B5%D0%BD%D0%B8%D0%B5_%D0%9D%D0%B0%D0%B2%D0%B0%D0%BB%D1%8C%D0%BD%D0%BE%D0%B3%D0%BE_%D0%9E%D0%B1%D1%80%D0%B0%D1%89%D0%B5%D0%BD%D0%B8%D0%B5_%D0%AE%D0%BB%D0%B8%D0%B8_%D0%9D%D0%B0%D0%B2%D0%B0%D0%BB%D1%8C%D0%BD%D0%BE%D0%B9.mp4</pathurl>
              <rate>
                <timebase>50</timebase>
                <ntsc>FALSE</ntsc>
              </rate>
              <duration>500</duration>
              <timecode>
                <rate>
                  <timebase>50</timebase>
                  <ntsc>FALSE</ntsc>
                </rate>
                <string>00:00:00:00</string>
                <frame>0</frame>
                <displayformat>NDF</displayformat>
              </timecode>
              <media>
                <video>
                  <samplecharacteristics>
                    <rate>
                      <timebase>50</timebase>
                      <ntsc>FALSE</ntsc>
                    </rate>
                    <width>1920</width>
                    <height>1080</height>
                    <anamorphic>FALSE</anamorphic>
                    <pixelaspectratio>square</pixelaspectratio>
                    <fielddominance>none</fielddominance>
                  </samplecharacteristics>
                </video>
                <audio>
                  <samplecharacteristics>
                    <depth>16</depth>
                    <samplerate>48000</samplerate>
                  </samplecharacteristics>
                  <channelcount>2</channelcount>
                </audio>
              </media>
            </file>
            <filter>
              <effect>
                <name>Basic Motion</name>
                <effectid>basic</effectid>
                <effectcategory>motion</effectcategory>
                <effecttype>motion</effecttype>
                <mediatype>video</mediatype>
                <pproBypass>false</pproBypass>
                <parameter authoringApp="PremierePro">
                  <parameterid>scale</parameterid>
                  <name>Scale</name>
                  <valuemin>0</valuemin>
                  <valuemax>1000</valuemax>
                  <value>100</value>
                </parameter>
                <parameter authoringApp="PremierePro">
                  <parameterid>rotation</parameterid>
                  <name>Rotation</name>
                  <valuemin>-8640</valuemin>
                  <valuemax>8640</valuemax>
                  <value>0</value>
                </parameter>
                <parameter authoringApp="PremierePro">
                  <parameterid>center</parameterid>
                  <name>Center</name>
                  <value>
                    <horiz>0</horiz>
                    <vert>0</vert>
                  </value>
                </parameter>
                <parameter authoringApp="PremierePro">
                  <parameterid>centerOffset</parameterid>
                  <name>Anchor Point</name>
                  <value>
                    <horiz>0</horiz>
                    <vert>0</vert>
                  </value>
                </parameter>
                <parameter authoringApp="PremierePro">
                  <parameterid>antiflicker</parameterid>
                  <name>Anti-flicker Filter</name>
                  <valuemin>0.0</valuemin>
                  <valuemax>1.0</valuemax>
                  <value>0</value>
                </parameter>
              </effect>
            </filter>
            <link>
              <linkclipref>vclipitem-82</linkclipref>
              <mediatype>video</mediatype>
              <trackindex>1</trackindex>
              <clipindex>82</clipindex>
            </link>
            <link>
              <linkclipref>aclipitem-18</linkclipref>
              <mediatype>audio</mediatype>
              <trackindex>1</trackindex>
              <clipindex>18</clipindex>
              <groupindex>1</groupindex>
            </link>
          </clipitem>
          <clipitem id="vclipitem-83">
            <masterclipid>masterclip-84</masterclipid>
            <name>arrow_021536_180226.png</name>
            <enabled>TRUE</enabled>
            <duration>350</duration>
            <rate>
              <timebase>50</timebase>
              <ntsc>FALSE</ntsc>
            </rate>
            <start>91550</start>
            <end>91900</end>
            <in>0</in>
            <out>350</out>
            <alphatype>straight</alphatype>
            <pixelaspectratio>square</pixelaspectratio>
            <anamorphic>FALSE</anamorphic>
            <file id="file-84">
              <name>arrow_021536_180226.png</name>
              <pathurl>file:///C:/Users/Nemifist/YandexDisk/PAMPAM/%D0%A0%D0%B5%D0%B7%D1%83%D0%BB%D1%8C%D1%82%D0%B0%D1%82%D1%8B%20%D0%BE%D1%82%D1%80%D0%B0%D0%B2%D0%BB%D0%B5%D0%BD%D0%B8%D1%8F%20%D0%9D%D0%B0%D0%B2%D0%B0%D0%BB%D1%8C%D0%BD%D0%BE%D0%B3%D0%BE/arrow_021536_180226.png</pathurl>
              <rate>
                <timebase>50</timebase>
                <ntsc>FALSE</ntsc>
              </rate>
              <duration>350</duration>
              <timecode>
                <rate>
                  <timebase>50</timebase>
                  <ntsc>FALSE</ntsc>
                </rate>
                <string>00:00:00:00</string>
                <frame>0</frame>
                <displayformat>NDF</displayformat>
              </timecode>
              <media>
                <video>
                  <samplecharacteristics>
                    <rate>
                      <timebase>50</timebase>
                      <ntsc>FALSE</ntsc>
                    </rate>
                    <width>960</width>
                    <height>960</height>
                    <anamorphic>FALSE</anamorphic>
                    <pixelaspectratio>square</pixelaspectratio>
                    <fielddominance>none</fielddominance>
                  </samplecharacteristics>
                </video>
              </media>
            </file>
            <filter>
              <effect>
                <name>Basic Motion</name>
                <effectid>basic</effectid>
                <effectcategory>motion</effectcategory>
                <effecttype>motion</effecttype>
                <mediatype>video</mediatype>
                <pproBypass>false</pproBypass>
                <parameter authoringApp="PremierePro">
                  <parameterid>scale</parameterid>
                  <name>Scale</name>
                  <valuemin>0</valuemin>
                  <valuemax>1000</valuemax>
                  <value>100</value>
                </parameter>
                <parameter authoringApp="PremierePro">
                  <parameterid>rotation</parameterid>
                  <name>Rotation</name>
                  <valuemin>-8640</valuemin>
                  <valuemax>8640</valuemax>
                  <value>0</value>
                </parameter>
                <parameter authoringApp="PremierePro">
                  <parameterid>center</parameterid>
                  <name>Center</name>
                  <value>
                    <horiz>-0.25</horiz>
                    <vert>0</vert>
                  </value>
                </parameter>
                <parameter authoringApp="PremierePro">
                  <parameterid>centerOffset</parameterid>
                  <name>Anchor Point</name>
                  <value>
                    <horiz>0</horiz>
                    <vert>0</vert>
                  </value>
                </parameter>
                <parameter authoringApp="PremierePro">
                  <parameterid>antiflicker</parameterid>
                  <name>Anti-flicker Filter</name>
                  <valuemin>0.0</valuemin>
                  <valuemax>1.0</valuemax>
                  <value>0</value>
                </parameter>
              </effect>
            </filter>
            <link>
              <linkclipref>vclipitem-83</linkclipref>
              <mediatype>video</mediatype>
              <trackindex>1</trackindex>
              <clipindex>83</clipindex>
            </link>
          </clipitem>
          <clipitem id="vclipitem-84">
            <masterclipid>masterclip-85</masterclipid>
            <name>arrow_195552_180226.png</name>
            <enabled>TRUE</enabled>
            <duration>250</duration>
            <rate>
              <timebase>50</timebase>
              <ntsc>FALSE</ntsc>
            </rate>
            <start>92200</start>
            <end>92450</end>
            <in>0</in>
            <out>250</out>
            <alphatype>straight</alphatype>
            <pixelaspectratio>square</pixelaspectratio>
            <anamorphic>FALSE</anamorphic>
            <file id="file-85">
              <name>arrow_195552_180226.png</name>
              <pathurl>file:///C:/Users/Nemifist/YandexDisk/PAMPAM/%D0%A0%D0%B5%D0%B7%D1%83%D0%BB%D1%8C%D1%82%D0%B0%D1%82%D1%8B%20%D0%BE%D1%82%D1%80%D0%B0%D0%B2%D0%BB%D0%B5%D0%BD%D0%B8%D1%8F%20%D0%9D%D0%B0%D0%B2%D0%B0%D0%BB%D1%8C%D0%BD%D0%BE%D0%B3%D0%BE/arrow_195552_180226.png</pathurl>
              <rate>
                <timebase>50</timebase>
                <ntsc>FALSE</ntsc>
              </rate>
              <duration>250</duration>
              <timecode>
                <rate>
                  <timebase>50</timebase>
                  <ntsc>FALSE</ntsc>
                </rate>
                <string>00:00:00:00</string>
                <frame>0</frame>
                <displayformat>NDF</displayformat>
              </timecode>
              <media>
                <video>
                  <samplecharacteristics>
                    <rate>
                      <timebase>50</timebase>
                      <ntsc>FALSE</ntsc>
                    </rate>
                    <width>1920</width>
                    <height>1920</height>
                    <anamorphic>FALSE</anamorphic>
                    <pixelaspectratio>square</pixelaspectratio>
                    <fielddominance>none</fielddominance>
                  </samplecharacteristics>
                </video>
              </media>
            </file>
            <filter>
              <effect>
                <name>Basic Motion</name>
                <effectid>basic</effectid>
                <effectcategory>motion</effectcategory>
                <effecttype>motion</effecttype>
                <mediatype>video</mediatype>
                <pproBypass>false</pproBypass>
                <parameter authoringApp="PremierePro">
                  <parameterid>scale</parameterid>
                  <name>Scale</name>
                  <valuemin>0</valuemin>
                  <valuemax>1000</valuemax>
                  <value>50</value>
                </parameter>
                <parameter authoringApp="PremierePro">
                  <parameterid>rotation</parameterid>
                  <name>Rotation</name>
                  <valuemin>-8640</valuemin>
                  <valuemax>8640</valuemax>
                  <value>0</value>
                </parameter>
                <parameter authoringApp="PremierePro">
                  <parameterid>center</parameterid>
                  <name>Center</name>
                  <value>
                    <horiz>-0.25</horiz>
                    <vert>0</vert>
                  </value>
                </parameter>
                <parameter authoringApp="PremierePro">
                  <parameterid>centerOffset</parameterid>
                  <name>Anchor Point</name>
                  <value>
                    <horiz>0</horiz>
                    <vert>0</vert>
                  </value>
                </parameter>
                <parameter authoringApp="PremierePro">
                  <parameterid>antiflicker</parameterid>
                  <name>Anti-flicker Filter</name>
                  <valuemin>0.0</valuemin>
                  <valuemax>1.0</valuemax>
                  <value>0</value>
                </parameter>
              </effect>
            </filter>
            <link>
              <linkclipref>vclipitem-84</linkclipref>
              <mediatype>video</mediatype>
              <trackindex>1</trackindex>
              <clipindex>84</clipindex>
            </link>
          </clipitem>
          <clipitem id="vclipitem-85">
            <masterclipid>masterclip-86</masterclipid>
            <name>arrow_195909_180226.png</name>
            <enabled>TRUE</enabled>
            <duration>500</duration>
            <rate>
              <timebase>50</timebase>
              <ntsc>FALSE</ntsc>
            </rate>
            <start>92450</start>
            <end>92950</end>
            <in>0</in>
            <out>500</out>
            <alphatype>straight</alphatype>
            <pixelaspectratio>square</pixelaspectratio>
            <anamorphic>FALSE</anamorphic>
            <file id="file-86">
              <name>arrow_195909_180226.png</name>
              <pathurl>file:///C:/Users/Nemifist/YandexDisk/PAMPAM/%D0%A0%D0%B5%D0%B7%D1%83%D0%BB%D1%8C%D1%82%D0%B0%D1%82%D1%8B%20%D0%BE%D1%82%D1%80%D0%B0%D0%B2%D0%BB%D0%B5%D0%BD%D0%B8%D1%8F%20%D0%9D%D0%B0%D0%B2%D0%B0%D0%BB%D1%8C%D0%BD%D0%BE%D0%B3%D0%BE/arrow_195909_180226.png</pathurl>
              <rate>
                <timebase>50</timebase>
                <ntsc>FALSE</ntsc>
              </rate>
              <duration>500</duration>
              <timecode>
                <rate>
                  <timebase>50</timebase>
                  <ntsc>FALSE</ntsc>
                </rate>
                <string>00:00:00:00</string>
                <frame>0</frame>
                <displayformat>NDF</displayformat>
              </timecode>
              <media>
                <video>
                  <samplecharacteristics>
                    <rate>
                      <timebase>50</timebase>
                      <ntsc>FALSE</ntsc>
                    </rate>
                    <width>1920</width>
                    <height>1920</height>
                    <anamorphic>FALSE</anamorphic>
                    <pixelaspectratio>square</pixelaspectratio>
                    <fielddominance>none</fielddominance>
                  </samplecharacteristics>
                </video>
              </media>
            </file>
            <filter>
              <effect>
                <name>Basic Motion</name>
                <effectid>basic</effectid>
                <effectcategory>motion</effectcategory>
                <effecttype>motion</effecttype>
                <mediatype>video</mediatype>
                <pproBypass>false</pproBypass>
                <parameter authoringApp="PremierePro">
                  <parameterid>scale</parameterid>
                  <name>Scale</name>
                  <valuemin>0</valuemin>
                  <valuemax>1000</valuemax>
                  <value>50</value>
                </parameter>
                <parameter authoringApp="PremierePro">
                  <parameterid>rotation</parameterid>
                  <name>Rotation</name>
                  <valuemin>-8640</valuemin>
                  <valuemax>8640</valuemax>
                  <value>0</value>
                </parameter>
                <parameter authoringApp="PremierePro">
                  <parameterid>center</parameterid>
                  <name>Center</name>
                  <value>
                    <horiz>-0.25</horiz>
                    <vert>0</vert>
                  </value>
                </parameter>
                <parameter authoringApp="PremierePro">
                  <parameterid>centerOffset</parameterid>
                  <name>Anchor Point</name>
                  <value>
                    <horiz>0</horiz>
                    <vert>0</vert>
                  </value>
                </parameter>
                <parameter authoringApp="PremierePro">
                  <parameterid>antiflicker</parameterid>
                  <name>Anti-flicker Filter</name>
                  <valuemin>0.0</valuemin>
                  <valuemax>1.0</valuemax>
                  <value>0</value>
                </parameter>
              </effect>
            </filter>
            <link>
              <linkclipref>vclipitem-85</linkclipref>
              <mediatype>video</mediatype>
              <trackindex>1</trackindex>
              <clipindex>85</clipindex>
            </link>
          </clipitem>
          <clipitem id="vclipitem-86">
            <masterclipid>masterclip-87</masterclipid>
            <name>arrow_015142_180226.png</name>
            <enabled>TRUE</enabled>
            <duration>500</duration>
            <rate>
              <timebase>50</timebase>
              <ntsc>FALSE</ntsc>
            </rate>
            <start>93900</start>
            <end>94400</end>
            <in>0</in>
            <out>500</out>
            <alphatype>straight</alphatype>
            <pixelaspectratio>square</pixelaspectratio>
            <anamorphic>FALSE</anamorphic>
            <file id="file-87">
              <name>arrow_015142_180226.png</name>
              <pathurl>file:///C:/Users/Nemifist/YandexDisk/PAMPAM/%D0%A0%D0%B5%D0%B7%D1%83%D0%BB%D1%8C%D1%82%D0%B0%D1%82%D1%8B%20%D0%BE%D1%82%D1%80%D0%B0%D0%B2%D0%BB%D0%B5%D0%BD%D0%B8%D1%8F%20%D0%9D%D0%B0%D0%B2%D0%B0%D0%BB%D1%8C%D0%BD%D0%BE%D0%B3%D0%BE/arrow_015142_180226.png</pathurl>
              <rate>
                <timebase>50</timebase>
                <ntsc>FALSE</ntsc>
              </rate>
              <duration>500</duration>
              <timecode>
                <rate>
                  <timebase>50</timebase>
                  <ntsc>FALSE</ntsc>
                </rate>
                <string>00:00:00:00</string>
                <frame>0</frame>
                <displayformat>NDF</displayformat>
              </timecode>
              <media>
                <video>
                  <samplecharacteristics>
                    <rate>
                      <timebase>50</timebase>
                      <ntsc>FALSE</ntsc>
                    </rate>
                    <width>3840</width>
                    <height>1240</height>
                    <anamorphic>FALSE</anamorphic>
                    <pixelaspectratio>square</pixelaspectratio>
                    <fielddominance>none</fielddominance>
                  </samplecharacteristics>
                </video>
              </media>
            </file>
            <filter>
              <effect>
                <name>Basic Motion</name>
                <effectid>basic</effectid>
                <effectcategory>motion</effectcategory>
                <effecttype>motion</effecttype>
                <mediatype>video</mediatype>
                <pproBypass>false</pproBypass>
                <parameter authoringApp="PremierePro">
                  <parameterid>scale</parameterid>
                  <name>Scale</name>
                  <valuemin>0</valuemin>
                  <valuemax>1000</valuemax>
                  <value>45</value>
                </parameter>
                <parameter authoringApp="PremierePro">
                  <parameterid>rotation</parameterid>
                  <name>Rotation</name>
                  <valuemin>-8640</valuemin>
                  <valuemax>8640</valuemax>
                  <value>0</value>
                </parameter>
                <parameter authoringApp="PremierePro">
                  <parameterid>center</parameterid>
                  <name>Center</name>
                  <value>
                    <horiz>0</horiz>
                    <vert>0</vert>
                  </value>
                </parameter>
                <parameter authoringApp="PremierePro">
                  <parameterid>centerOffset</parameterid>
                  <name>Anchor Point</name>
                  <value>
                    <horiz>0</horiz>
                    <vert>0</vert>
                  </value>
                </parameter>
                <parameter authoringApp="PremierePro">
                  <parameterid>antiflicker</parameterid>
                  <name>Anti-flicker Filter</name>
                  <valuemin>0.0</valuemin>
                  <valuemax>1.0</valuemax>
                  <value>0</value>
                </parameter>
              </effect>
            </filter>
            <link>
              <linkclipref>vclipitem-86</linkclipref>
              <mediatype>video</mediatype>
              <trackindex>1</trackindex>
              <clipindex>86</clipindex>
            </link>
          </clipitem>
          <clipitem id="vclipitem-87">
            <masterclipid>masterclip-88</masterclipid>
            <name>Dinner_for_One_Plus_Your_AI_Companion_at_NYC_Restaurant_Valentines.mp4</name>
            <enabled>TRUE</enabled>
            <duration>450</duration>
            <rate>
              <timebase>50</timebase>
              <ntsc>FALSE</ntsc>
            </rate>
            <start>95600</start>
            <end>96050</end>
            <in>0</in>
            <out>450</out>
            <alphatype>none</alphatype>
            <pixelaspectratio>square</pixelaspectratio>
            <anamorphic>FALSE</anamorphic>
            <file id="file-88">
              <name>Dinner_for_One_Plus_Your_AI_Companion_at_NYC_Restaurant_Valentines.mp4</name>
              <pathurl>file:///C:/Users/Nemifist/YandexDisk/PAMPAM/%D0%9F%D0%BE%D1%81%D0%BB%D0%B5%D0%B4%D0%BD%D0%B8%D0%B9%20%D1%80%D0%BE%D0%BB%D0%BB/Dinner_for_One_Plus_Your_AI_Companion_at_NYC_Restaurant_Valentines.mp4</pathurl>
              <rate>
                <timebase>50</timebase>
                <ntsc>FALSE</ntsc>
              </rate>
              <duration>450</duration>
              <timecode>
                <rate>
                  <timebase>50</timebase>
                  <ntsc>FALSE</ntsc>
                </rate>
                <string>00:00:00:00</string>
                <frame>0</frame>
                <displayformat>NDF</displayformat>
              </timecode>
              <media>
                <video>
                  <samplecharacteristics>
                    <rate>
                      <timebase>50</timebase>
                      <ntsc>FALSE</ntsc>
                    </rate>
                    <width>1280</width>
                    <height>720</height>
                    <anamorphic>FALSE</anamorphic>
                    <pixelaspectratio>square</pixelaspectratio>
                    <fielddominance>none</fielddominance>
                  </samplecharacteristics>
                </video>
                <audio>
                  <samplecharacteristics>
                    <depth>16</depth>
                    <samplerate>48000</samplerate>
                  </samplecharacteristics>
                  <channelcount>2</channelcount>
                </audio>
              </media>
            </file>
            <filter>
              <effect>
                <name>Basic Motion</name>
                <effectid>basic</effectid>
                <effectcategory>motion</effectcategory>
                <effecttype>motion</effecttype>
                <mediatype>video</mediatype>
                <pproBypass>false</pproBypass>
                <parameter authoringApp="PremierePro">
                  <parameterid>scale</parameterid>
                  <name>Scale</name>
                  <valuemin>0</valuemin>
                  <valuemax>1000</valuemax>
                  <value>150</value>
                </parameter>
                <parameter authoringApp="PremierePro">
                  <parameterid>rotation</parameterid>
                  <name>Rotation</name>
                  <valuemin>-8640</valuemin>
                  <valuemax>8640</valuemax>
                  <value>0</value>
                </parameter>
                <parameter authoringApp="PremierePro">
                  <parameterid>center</parameterid>
                  <name>Center</name>
                  <value>
                    <horiz>0</horiz>
                    <vert>0</vert>
                  </value>
                </parameter>
                <parameter authoringApp="PremierePro">
                  <parameterid>centerOffset</parameterid>
                  <name>Anchor Point</name>
                  <value>
                    <horiz>0</horiz>
                    <vert>0</vert>
                  </value>
                </parameter>
                <parameter authoringApp="PremierePro">
                  <parameterid>antiflicker</parameterid>
                  <name>Anti-flicker Filter</name>
                  <valuemin>0.0</valuemin>
                  <valuemax>1.0</valuemax>
                  <value>0</value>
                </parameter>
              </effect>
            </filter>
            <link>
              <linkclipref>vclipitem-87</linkclipref>
              <mediatype>video</mediatype>
              <trackindex>1</trackindex>
              <clipindex>87</clipindex>
            </link>
            <link>
              <linkclipref>aclipitem-19</linkclipref>
              <mediatype>audio</mediatype>
              <trackindex>1</trackindex>
              <clipindex>19</clipindex>
              <groupindex>1</groupindex>
            </link>
          </clipitem>
          <clipitem id="vclipitem-88">
            <masterclipid>masterclip-89</masterclipid>
            <name>arrow_010641_190226.png</name>
            <enabled>TRUE</enabled>
            <duration>350</duration>
            <rate>
              <timebase>50</timebase>
              <ntsc>FALSE</ntsc>
            </rate>
            <start>97400</start>
            <end>97750</end>
            <in>0</in>
            <out>350</out>
            <alphatype>straight</alphatype>
            <pixelaspectratio>square</pixelaspectratio>
            <anamorphic>FALSE</anamorphic>
            <file id="file-89">
              <name>arrow_010641_190226.png</name>
              <pathurl>file:///C:/Users/Nemifist/YandexDisk/PAMPAM/%D0%9F%D0%BE%D1%81%D0%BB%D0%B5%D0%B4%D0%BD%D0%B8%D0%B9%20%D1%80%D0%BE%D0%BB%D0%BB/arrow_010641_190226.png</pathurl>
              <rate>
                <timebase>50</timebase>
                <ntsc>FALSE</ntsc>
              </rate>
              <duration>350</duration>
              <timecode>
                <rate>
                  <timebase>50</timebase>
                  <ntsc>FALSE</ntsc>
                </rate>
                <string>00:00:00:00</string>
                <frame>0</frame>
                <displayformat>NDF</displayformat>
              </timecode>
              <media>
                <video>
                  <samplecharacteristics>
                    <rate>
                      <timebase>50</timebase>
                      <ntsc>FALSE</ntsc>
                    </rate>
                    <width>3840</width>
                    <height>1200</height>
                    <anamorphic>FALSE</anamorphic>
                    <pixelaspectratio>square</pixelaspectratio>
                    <fielddominance>none</fielddominance>
                  </samplecharacteristics>
                </video>
              </media>
            </file>
            <filter>
              <effect>
                <name>Basic Motion</name>
                <effectid>basic</effectid>
                <effectcategory>motion</effectcategory>
                <effecttype>motion</effecttype>
                <mediatype>video</mediatype>
                <pproBypass>false</pproBypass>
                <parameter authoringApp="PremierePro">
                  <parameterid>scale</parameterid>
                  <name>Scale</name>
                  <valuemin>0</valuemin>
                  <valuemax>1000</valuemax>
                  <value>45</value>
                </parameter>
                <parameter authoringApp="PremierePro">
                  <parameterid>rotation</parameterid>
                  <name>Rotation</name>
                  <valuemin>-8640</valuemin>
                  <valuemax>8640</valuemax>
                  <value>0</value>
                </parameter>
                <parameter authoringApp="PremierePro">
                  <parameterid>center</parameterid>
                  <name>Center</name>
                  <value>
                    <horiz>0</horiz>
                    <vert>0</vert>
                  </value>
                </parameter>
                <parameter authoringApp="PremierePro">
                  <parameterid>centerOffset</parameterid>
                  <name>Anchor Point</name>
                  <value>
                    <horiz>0</horiz>
                    <vert>0</vert>
                  </value>
                </parameter>
                <parameter authoringApp="PremierePro">
                  <parameterid>antiflicker</parameterid>
                  <name>Anti-flicker Filter</name>
                  <valuemin>0.0</valuemin>
                  <valuemax>1.0</valuemax>
                  <value>0</value>
                </parameter>
              </effect>
            </filter>
            <link>
              <linkclipref>vclipitem-88</linkclipref>
              <mediatype>video</mediatype>
              <trackindex>1</trackindex>
              <clipindex>88</clipindex>
            </link>
          </clipitem>
        </track>
      </video>
      <audio>
        <numOutputChannels>2</numOutputChannels>
        <format>
          <samplecharacteristics>
            <depth>16</depth>
            <samplerate>48000</samplerate>
          </samplecharacteristics>
        </format>
        <outputs>
          <group>
            <index>1</index>
            <numchannels>1</numchannels>
            <downmix>0</downmix>
            <channel>
              <index>1</index>
            </channel>
          </group>
          <group>
            <index>2</index>
            <numchannels>1</numchannels>
            <downmix>0</downmix>
            <channel>
              <index>2</index>
            </channel>
          </group>
        </outputs>
        <track>
          <enabled>TRUE</enabled>
          <locked>FALSE</locked>
          <outputchannelindex>1</outputchannelindex>
          <clipitem id="aclipitem-1" premiereChannelType="stereo">
            <masterclipid>masterclip-8</masterclipid>
            <name>Delegates_Leave_After_US__Russia_and_Ukraine_Meet_for_Third_Round.mp4</name>
            <enabled>TRUE</enabled>
            <duration>250</duration>
            <rate>
              <timebase>50</timebase>
              <ntsc>FALSE</ntsc>
            </rate>
            <start>2800</start>
            <end>3050</end>
            <in>0</in>
            <out>250</out>
            <file id="file-8"/>
            <sourcetrack>
              <mediatype>audio</mediatype>
              <trackindex>1</trackindex>
            </sourcetrack>
            <link>
              <linkclipref>aclipitem-1</linkclipref>
              <mediatype>audio</mediatype>
              <trackindex>1</trackindex>
              <clipindex>1</clipindex>
            </link>
            <link>
              <linkclipref>vclipitem-8</linkclipref>
              <mediatype>video</mediatype>
              <trackindex>1</trackindex>
              <clipindex>8</clipindex>
              <groupindex>1</groupindex>
            </link>
          </clipitem>
          <clipitem id="aclipitem-2" premiereChannelType="stereo">
            <masterclipid>masterclip-10</masterclipid>
            <name>11337708866155.mp4</name>
            <enabled>TRUE</enabled>
            <duration>250</duration>
            <rate>
              <timebase>50</timebase>
              <ntsc>FALSE</ntsc>
            </rate>
            <start>5000</start>
            <end>5250</end>
            <in>0</in>
            <out>250</out>
            <file id="file-10"/>
            <sourcetrack>
              <mediatype>audio</mediatype>
              <trackindex>1</trackindex>
            </sourcetrack>
            <link>
              <linkclipref>aclipitem-2</linkclipref>
              <mediatype>audio</mediatype>
              <trackindex>1</trackindex>
              <clipindex>2</clipindex>
            </link>
            <link>
              <linkclipref>vclipitem-10</linkclipref>
              <mediatype>video</mediatype>
              <trackindex>1</trackindex>
              <clipindex>10</clipindex>
              <groupindex>1</groupindex>
            </link>
          </clipitem>
          <clipitem id="aclipitem-3" premiereChannelType="stereo">
            <masterclipid>masterclip-17</masterclipid>
            <name>ES_Peacemaker - Splasher!.mp3</name>
            <enabled>TRUE</enabled>
            <duration>300</duration>
            <rate>
              <timebase>50</timebase>
              <ntsc>FALSE</ntsc>
            </rate>
            <start>13250</start>
            <end>13550</end>
            <in>0</in>
            <out>300</out>
            <file id="file-17">
              <name>ES_Peacemaker - Splasher!.mp3</name>
              <pathurl>file:///C:/Users/Nemifist/YandexDisk/PAMPAM/%D0%9F%D0%BE%D1%80%D0%B0%20%D0%97%D0%B0%D0%B2%D0%B0%D1%80%D0%B8%D1%82%D1%8C/ES_Peacemaker%20-%20Splasher!.mp3</pathurl>
              <rate>
                <timebase>50</timebase>
                <ntsc>FALSE</ntsc>
              </rate>
              <duration>300</duration>
              <timecode>
                <rate>
                  <timebase>50</timebase>
                  <ntsc>FALSE</ntsc>
                </rate>
                <string>00:00:00:00</string>
                <frame>0</frame>
                <displayformat>NDF</displayformat>
              </timecode>
              <media>
                <audio>
                  <samplecharacteristics>
                    <depth>16</depth>
                    <samplerate>48000</samplerate>
                  </samplecharacteristics>
                  <channelcount>2</channelcount>
                </audio>
              </media>
            </file>
            <sourcetrack>
              <mediatype>audio</mediatype>
              <trackindex>1</trackindex>
            </sourcetrack>
            <link>
              <linkclipref>aclipitem-3</linkclipref>
              <mediatype>audio</mediatype>
              <trackindex>1</trackindex>
              <clipindex>3</clipindex>
            </link>
          </clipitem>
          <clipitem id="aclipitem-4" premiereChannelType="stereo">
            <masterclipid>masterclip-49</masterclipid>
            <name>AGIBOT_Expedition_A3_Shocks_the_World_With_Insane_Flying_Kicks.mp4</name>
            <enabled>TRUE</enabled>
            <duration>450</duration>
            <rate>
              <timebase>50</timebase>
              <ntsc>FALSE</ntsc>
            </rate>
            <start>57150</start>
            <end>57600</end>
            <in>0</in>
            <out>450</out>
            <file id="file-49"/>
            <sourcetrack>
              <mediatype>audio</mediatype>
              <trackindex>1</trackindex>
            </sourcetrack>
            <link>
              <linkclipref>aclipitem-4</linkclipref>
              <mediatype>audio</mediatype>
              <trackindex>1</trackindex>
              <clipindex>4</clipindex>
            </link>
            <link>
              <linkclipref>vclipitem-48</linkclipref>
              <mediatype>video</mediatype>
              <trackindex>1</trackindex>
              <clipindex>48</clipindex>
              <groupindex>1</groupindex>
            </link>
          </clipitem>
          <clipitem id="aclipitem-5" premiereChannelType="stereo">
            <masterclipid>masterclip-50</masterclipid>
            <name>AGIBOT_Expedition_A3_Shocks_the_World_With_Insane_Flying_Kicks.mp4</name>
            <enabled>TRUE</enabled>
            <duration>250</duration>
            <rate>
              <timebase>50</timebase>
              <ntsc>FALSE</ntsc>
            </rate>
            <start>57600</start>
            <end>57850</end>
            <in>0</in>
            <out>250</out>
            <file id="file-50"/>
            <sourcetrack>
              <mediatype>audio</mediatype>
              <trackindex>1</trackindex>
            </sourcetrack>
            <link>
              <linkclipref>aclipitem-5</linkclipref>
              <mediatype>audio</mediatype>
              <trackindex>1</trackindex>
              <clipindex>5</clipindex>
            </link>
            <link>
              <linkclipref>vclipitem-49</linkclipref>
              <mediatype>video</mediatype>
              <trackindex>1</trackindex>
              <clipindex>49</clipindex>
              <groupindex>1</groupindex>
            </link>
          </clipitem>
          <clipitem id="aclipitem-6" premiereChannelType="stereo">
            <masterclipid>masterclip-51</masterclipid>
            <name>Martial arts robots dazzle at 2026 Spring Festival Gala.mp4</name>
            <enabled>TRUE</enabled>
            <duration>300</duration>
            <rate>
              <timebase>50</timebase>
              <ntsc>FALSE</ntsc>
            </rate>
            <start>60400</start>
            <end>60700</end>
            <in>0</in>
            <out>300</out>
            <file id="file-51"/>
            <sourcetrack>
              <mediatype>audio</mediatype>
              <trackindex>1</trackindex>
            </sourcetrack>
            <link>
              <linkclipref>aclipitem-6</linkclipref>
              <mediatype>audio</mediatype>
              <trackindex>1</trackindex>
              <clipindex>6</clipindex>
            </link>
            <link>
              <linkclipref>vclipitem-50</linkclipref>
              <mediatype>video</mediatype>
              <trackindex>1</trackindex>
              <clipindex>50</clipindex>
              <groupindex>1</groupindex>
            </link>
          </clipitem>
          <clipitem id="aclipitem-7" premiereChannelType="stereo">
            <masterclipid>masterclip-52</masterclipid>
            <name>Martial arts robots dazzle at 2026 Spring Festival Gala.mp4</name>
            <enabled>TRUE</enabled>
            <duration>150</duration>
            <rate>
              <timebase>50</timebase>
              <ntsc>FALSE</ntsc>
            </rate>
            <start>60900</start>
            <end>61050</end>
            <in>0</in>
            <out>150</out>
            <file id="file-52"/>
            <sourcetrack>
              <mediatype>audio</mediatype>
              <trackindex>1</trackindex>
            </sourcetrack>
            <link>
              <linkclipref>aclipitem-7</linkclipref>
              <mediatype>audio</mediatype>
              <trackindex>1</trackindex>
              <clipindex>7</clipindex>
            </link>
            <link>
              <linkclipref>vclipitem-51</linkclipref>
              <mediatype>video</mediatype>
              <trackindex>1</trackindex>
              <clipindex>51</clipindex>
              <groupindex>1</groupindex>
            </link>
          </clipitem>
          <clipitem id="aclipitem-8" premiereChannelType="stereo">
            <masterclipid>masterclip-53</masterclipid>
            <name>Live： CGTN Super Night – 2026 Spring Festival celebration [SZ2yaHcw8Vs].mp4</name>
            <enabled>TRUE</enabled>
            <duration>1150</duration>
            <rate>
              <timebase>50</timebase>
              <ntsc>FALSE</ntsc>
            </rate>
            <start>61050</start>
            <end>62200</end>
            <in>0</in>
            <out>1150</out>
            <file id="file-53"/>
            <sourcetrack>
              <mediatype>audio</mediatype>
              <trackindex>1</trackindex>
            </sourcetrack>
            <link>
              <linkclipref>aclipitem-8</linkclipref>
              <mediatype>audio</mediatype>
              <trackindex>1</trackindex>
              <clipindex>8</clipindex>
            </link>
            <link>
              <linkclipref>vclipitem-52</linkclipref>
              <mediatype>video</mediatype>
              <trackindex>1</trackindex>
              <clipindex>52</clipindex>
              <groupindex>1</groupindex>
            </link>
          </clipitem>
          <clipitem id="aclipitem-9" premiereChannelType="stereo">
            <masterclipid>masterclip-54</masterclipid>
            <name>Unitree_Spring_Festival_Gala_Robots__a_Full_Release_of_Additional (2).mp4</name>
            <enabled>TRUE</enabled>
            <duration>250</duration>
            <rate>
              <timebase>50</timebase>
              <ntsc>FALSE</ntsc>
            </rate>
            <start>65750</start>
            <end>66000</end>
            <in>0</in>
            <out>250</out>
            <file id="file-54"/>
            <sourcetrack>
              <mediatype>audio</mediatype>
              <trackindex>1</trackindex>
            </sourcetrack>
            <link>
              <linkclipref>aclipitem-9</linkclipref>
              <mediatype>audio</mediatype>
              <trackindex>1</trackindex>
              <clipindex>9</clipindex>
            </link>
            <link>
              <linkclipref>vclipitem-53</linkclipref>
              <mediatype>video</mediatype>
              <trackindex>1</trackindex>
              <clipindex>53</clipindex>
              <groupindex>1</groupindex>
            </link>
          </clipitem>
          <clipitem id="aclipitem-10" premiereChannelType="stereo">
            <masterclipid>masterclip-58</masterclipid>
            <name>Steam Hardware Announcement.mp4</name>
            <enabled>TRUE</enabled>
            <duration>450</duration>
            <rate>
              <timebase>50</timebase>
              <ntsc>FALSE</ntsc>
            </rate>
            <start>68050</start>
            <end>68500</end>
            <in>0</in>
            <out>450</out>
            <file id="file-58"/>
            <sourcetrack>
              <mediatype>audio</mediatype>
              <trackindex>1</trackindex>
            </sourcetrack>
            <link>
              <linkclipref>aclipitem-10</linkclipref>
              <mediatype>audio</mediatype>
              <trackindex>1</trackindex>
              <clipindex>10</clipindex>
            </link>
            <link>
              <linkclipref>vclipitem-57</linkclipref>
              <mediatype>video</mediatype>
              <trackindex>1</trackindex>
              <clipindex>57</clipindex>
              <groupindex>1</groupindex>
            </link>
          </clipitem>
          <clipitem id="aclipitem-11" premiereChannelType="stereo">
            <masterclipid>masterclip-59</masterclipid>
            <name>Seedance 2.0 is Insane! Best AI Video Compilation (Cinematic Cats) [zd-fJy2McH0].mp4</name>
            <enabled>TRUE</enabled>
            <duration>850</duration>
            <rate>
              <timebase>50</timebase>
              <ntsc>FALSE</ntsc>
            </rate>
            <start>69200</start>
            <end>70050</end>
            <in>0</in>
            <out>850</out>
            <file id="file-59"/>
            <sourcetrack>
              <mediatype>audio</mediatype>
              <trackindex>1</trackindex>
            </sourcetrack>
            <link>
              <linkclipref>aclipitem-11</linkclipref>
              <mediatype>audio</mediatype>
              <trackindex>1</trackindex>
              <clipindex>11</clipindex>
            </link>
            <link>
              <linkclipref>vclipitem-58</linkclipref>
              <mediatype>video</mediatype>
              <trackindex>1</trackindex>
              <clipindex>58</clipindex>
              <groupindex>1</groupindex>
            </link>
          </clipitem>
          <clipitem id="aclipitem-12" premiereChannelType="stereo">
            <masterclipid>masterclip-60</masterclipid>
            <name>The_Best_AI_Fights_Seedance_2_0_Compilation_Spider_Man__Mike_Tyson.mp4</name>
            <enabled>TRUE</enabled>
            <duration>400</duration>
            <rate>
              <timebase>50</timebase>
              <ntsc>FALSE</ntsc>
            </rate>
            <start>71400</start>
            <end>71800</end>
            <in>0</in>
            <out>400</out>
            <file id="file-60"/>
            <sourcetrack>
              <mediatype>audio</mediatype>
              <trackindex>1</trackindex>
            </sourcetrack>
            <link>
              <linkclipref>aclipitem-12</linkclipref>
              <mediatype>audio</mediatype>
              <trackindex>1</trackindex>
              <clipindex>12</clipindex>
            </link>
            <link>
              <linkclipref>vclipitem-59</linkclipref>
              <mediatype>video</mediatype>
              <trackindex>1</trackindex>
              <clipindex>59</clipindex>
              <groupindex>1</groupindex>
            </link>
          </clipitem>
          <clipitem id="aclipitem-13" premiereChannelType="stereo">
            <masterclipid>masterclip-62</masterclipid>
            <name>The Mandalorian and Grogu ｜ Official Trailer ｜ In Theaters May 22 [IHWlvwu8t1w].mp4</name>
            <enabled>TRUE</enabled>
            <duration>300</duration>
            <rate>
              <timebase>50</timebase>
              <ntsc>FALSE</ntsc>
            </rate>
            <start>72250</start>
            <end>72550</end>
            <in>0</in>
            <out>300</out>
            <file id="file-62"/>
            <sourcetrack>
              <mediatype>audio</mediatype>
              <trackindex>1</trackindex>
            </sourcetrack>
            <link>
              <linkclipref>aclipitem-13</linkclipref>
              <mediatype>audio</mediatype>
              <trackindex>1</trackindex>
              <clipindex>13</clipindex>
            </link>
            <link>
              <linkclipref>vclipitem-61</linkclipref>
              <mediatype>video</mediatype>
              <trackindex>1</trackindex>
              <clipindex>61</clipindex>
              <groupindex>1</groupindex>
            </link>
          </clipitem>
          <clipitem id="aclipitem-14" premiereChannelType="stereo">
            <masterclipid>masterclip-65</masterclipid>
            <name>The Mandalorian and Grogu ｜ Official Trailer ｜ In Theaters May 22 [IHWlvwu8t1w].mp4</name>
            <enabled>TRUE</enabled>
            <duration>550</duration>
            <rate>
              <timebase>50</timebase>
              <ntsc>FALSE</ntsc>
            </rate>
            <start>75300</start>
            <end>75850</end>
            <in>0</in>
            <out>550</out>
            <file id="file-65"/>
            <sourcetrack>
              <mediatype>audio</mediatype>
              <trackindex>1</trackindex>
            </sourcetrack>
            <link>
              <linkclipref>aclipitem-14</linkclipref>
              <mediatype>audio</mediatype>
              <trackindex>1</trackindex>
              <clipindex>14</clipindex>
            </link>
            <link>
              <linkclipref>vclipitem-64</linkclipref>
              <mediatype>video</mediatype>
              <trackindex>1</trackindex>
              <clipindex>64</clipindex>
              <groupindex>1</groupindex>
            </link>
          </clipitem>
          <clipitem id="aclipitem-15" premiereChannelType="stereo">
            <masterclipid>masterclip-66</masterclipid>
            <name>The Mandalorian and Grogu ｜ Official Trailer ｜ In Theaters May 22 [IHWlvwu8t1w].mp4</name>
            <enabled>TRUE</enabled>
            <duration>300</duration>
            <rate>
              <timebase>50</timebase>
              <ntsc>FALSE</ntsc>
            </rate>
            <start>75850</start>
            <end>76150</end>
            <in>0</in>
            <out>300</out>
            <file id="file-66"/>
            <sourcetrack>
              <mediatype>audio</mediatype>
              <trackindex>1</trackindex>
            </sourcetrack>
            <link>
              <linkclipref>aclipitem-15</linkclipref>
              <mediatype>audio</mediatype>
              <trackindex>1</trackindex>
              <clipindex>15</clipindex>
            </link>
            <link>
              <linkclipref>vclipitem-65</linkclipref>
              <mediatype>video</mediatype>
              <trackindex>1</trackindex>
              <clipindex>65</clipindex>
              <groupindex>1</groupindex>
            </link>
          </clipitem>
          <clipitem id="aclipitem-16" premiereChannelType="stereo">
            <masterclipid>masterclip-69</masterclipid>
            <name>Why do we pass gas？ - Purna Kashyap [GTvnjaUU6Xk].mp4</name>
            <enabled>TRUE</enabled>
            <duration>450</duration>
            <rate>
              <timebase>50</timebase>
              <ntsc>FALSE</ntsc>
            </rate>
            <start>77850</start>
            <end>78300</end>
            <in>0</in>
            <out>450</out>
            <file id="file-69"/>
            <sourcetrack>
              <mediatype>audio</mediatype>
              <trackindex>1</trackindex>
            </sourcetrack>
            <link>
              <linkclipref>aclipitem-16</linkclipref>
              <mediatype>audio</mediatype>
              <trackindex>1</trackindex>
              <clipindex>16</clipindex>
            </link>
            <link>
              <linkclipref>vclipitem-68</linkclipref>
              <mediatype>video</mediatype>
              <trackindex>1</trackindex>
              <clipindex>68</clipindex>
              <groupindex>1</groupindex>
            </link>
          </clipitem>
          <clipitem id="aclipitem-17" premiereChannelType="stereo">
            <masterclipid>masterclip-81</masterclipid>
            <name>Слово_пацана_Кровь_на_асфальте___Трейлер___Смотрите_на_START_с_9.mp4</name>
            <enabled>TRUE</enabled>
            <duration>450</duration>
            <rate>
              <timebase>50</timebase>
              <ntsc>FALSE</ntsc>
            </rate>
            <start>87050</start>
            <end>87500</end>
            <in>0</in>
            <out>450</out>
            <file id="file-81"/>
            <sourcetrack>
              <mediatype>audio</mediatype>
              <trackindex>1</trackindex>
            </sourcetrack>
            <link>
              <linkclipref>aclipitem-17</linkclipref>
              <mediatype>audio</mediatype>
              <trackindex>1</trackindex>
              <clipindex>17</clipindex>
            </link>
            <link>
              <linkclipref>vclipitem-80</linkclipref>
              <mediatype>video</mediatype>
              <trackindex>1</trackindex>
              <clipindex>80</clipindex>
              <groupindex>1</groupindex>
            </link>
          </clipitem>
          <clipitem id="aclipitem-18" premiereChannelType="stereo">
            <masterclipid>masterclip-83</masterclipid>
            <name>_СРОЧНО_Доказано_отравление_Навального_Обращение_Юлии_Навальной.mp4</name>
            <enabled>TRUE</enabled>
            <duration>500</duration>
            <rate>
              <timebase>50</timebase>
              <ntsc>FALSE</ntsc>
            </rate>
            <start>90350</start>
            <end>90850</end>
            <in>0</in>
            <out>500</out>
            <file id="file-83"/>
            <sourcetrack>
              <mediatype>audio</mediatype>
              <trackindex>1</trackindex>
            </sourcetrack>
            <link>
              <linkclipref>aclipitem-18</linkclipref>
              <mediatype>audio</mediatype>
              <trackindex>1</trackindex>
              <clipindex>18</clipindex>
            </link>
            <link>
              <linkclipref>vclipitem-82</linkclipref>
              <mediatype>video</mediatype>
              <trackindex>1</trackindex>
              <clipindex>82</clipindex>
              <groupindex>1</groupindex>
            </link>
          </clipitem>
          <clipitem id="aclipitem-19" premiereChannelType="stereo">
            <masterclipid>masterclip-88</masterclipid>
            <name>Dinner_for_One_Plus_Your_AI_Companion_at_NYC_Restaurant_Valentines.mp4</name>
            <enabled>TRUE</enabled>
            <duration>450</duration>
            <rate>
              <timebase>50</timebase>
              <ntsc>FALSE</ntsc>
            </rate>
            <start>95600</start>
            <end>96050</end>
            <in>0</in>
            <out>450</out>
            <file id="file-88"/>
            <sourcetrack>
              <mediatype>audio</mediatype>
              <trackindex>1</trackindex>
            </sourcetrack>
            <link>
              <linkclipref>aclipitem-19</linkclipref>
              <mediatype>audio</mediatype>
              <trackindex>1</trackindex>
              <clipindex>19</clipindex>
            </link>
            <link>
              <linkclipref>vclipitem-87</linkclipref>
              <mediatype>video</mediatype>
              <trackindex>1</trackindex>
              <clipindex>87</clipindex>
              <groupindex>1</groupindex>
            </link>
          </clipitem>
        </track>
      </audio>
    </media>
    <marker>
      <comment></comment>
      <name>Блиц (1)</name>
      <in>0</in>
      <out>100</out>
      <pproColor>4294741314</pproColor>
    </marker>
    <marker>
      <comment></comment>
      <name>Переговоры (3)</name>
      <in>2650</in>
      <out>2750</out>
      <pproColor>4294741314</pproColor>
    </marker>
    <marker>
      <comment></comment>
      <name>Пора Заварить (1)</name>
      <in>12300</in>
      <out>12400</out>
      <pproColor>4294741314</pproColor>
    </marker>
    <marker>
      <comment></comment>
      <name>Обама инопланетяне (2)</name>
      <in>16800</in>
      <out>16900</out>
      <pproColor>4294741314</pproColor>
    </marker>
    <marker>
      <comment></comment>
      <name>Дорожные знаки в Латвии (1)</name>
      <in>24000</in>
      <out>24100</out>
      <pproColor>4294741314</pproColor>
    </marker>
    <marker>
      <comment></comment>
      <name>Интро</name>
      <in>31650</in>
      <out>31750</out>
      <pproColor>4294741314</pproColor>
    </marker>
    <marker>
      <comment></comment>
      <name>НДС маркетплейс (1)</name>
      <in>33850</in>
      <out>33950</out>
      <pproColor>4294741314</pproColor>
    </marker>
    <marker>
      <comment></comment>
      <name>ФСБ отключение связи (1)</name>
      <in>36700</in>
      <out>36800</out>
      <pproColor>4294741314</pproColor>
    </marker>
    <marker>
      <comment></comment>
      <name>Ясно</name>
      <in>41600</in>
      <out>41700</out>
      <pproColor>4294741314</pproColor>
    </marker>
    <marker>
      <comment></comment>
      <name>MetaLLM (1)</name>
      <in>46500</in>
      <out>46600</out>
      <pproColor>4294741314</pproColor>
    </marker>
    <marker>
      <comment></comment>
      <name>ТамТам (1)</name>
      <in>52400</in>
      <out>52500</out>
      <pproColor>4294741314</pproColor>
    </marker>
    <marker>
      <comment></comment>
      <name>Роботы кунг-фу (7)</name>
      <in>56100</in>
      <out>56200</out>
      <pproColor>4294741314</pproColor>
    </marker>
    <marker>
      <comment></comment>
      <name>Стимдек пропал с продажи (3)</name>
      <in>66000</in>
      <out>66100</out>
      <pproColor>4294741314</pproColor>
    </marker>
    <marker>
      <comment></comment>
      <name>Мандалорец (4)</name>
      <in>71800</in>
      <out>71900</out>
      <pproColor>4294741314</pproColor>
    </marker>
    <marker>
      <comment></comment>
      <name>Умные трусы (1)</name>
      <in>77250</in>
      <out>77350</out>
      <pproColor>4294741314</pproColor>
    </marker>
    <marker>
      <comment></comment>
      <name>Слово пацана 2 (3)</name>
      <in>84700</in>
      <out>84800</out>
      <pproColor>4294741314</pproColor>
    </marker>
    <marker>
      <comment></comment>
      <name>Результаты отравления Навального (2)</name>
      <in>90350</in>
      <out>90450</out>
      <pproColor>4294741314</pproColor>
    </marker>
    <marker>
      <comment></comment>
      <name>Последний ролл (1)</name>
      <in>95350</in>
      <out>95450</out>
      <pproColor>4294741314</pproColor>
    </marker>
    <marker>
      <comment></comment>
      <name>Комплимент</name>
      <in>98250</in>
      <out>98350</out>
      <pproColor>4294741314</pproColor>
    </marker>
    <timecode>
      <rate>
        <timebase>50</timebase>
        <ntsc>FALSE</ntsc>
      </rate>
      <string>00:00:00:00</string>
      <frame>0</frame>
      <displayformat>NDF</displayformat>
    </timecode>
  </sequence>
</xmeml>
